STARTFONT 2.1
COMMENT
COMMENT Converted from OpenType font "b.ttf" by "otf2bdf 3.0".
COMMENT
FONT -FreeType-Libre Baskerville-Medium-R-Normal--64-640-72-72-P-366-ISO10646-1
SIZE 64 72 72
FONTBOUNDINGBOX 121 80 -18 -17
STARTPROPERTIES 19
FOUNDRY "FreeType"
FAMILY_NAME "Libre Baskerville"
WEIGHT_NAME "Medium"
SLANT "R"
SETWIDTH_NAME "Normal"
ADD_STYLE_NAME ""
PIXEL_SIZE 64
POINT_SIZE 640
RESOLUTION_X 72
RESOLUTION_Y 72
SPACING "P"
AVERAGE_WIDTH 366
CHARSET_REGISTRY "ISO10646"
CHARSET_ENCODING "1"
FONT_ASCENT 62
FONT_DESCENT 17
COPYRIGHT "Copyright (c) 2012, Pablo Impallari (www.impallari.com|impallari@gmail.com), Copyright (c) 2012, Rodrigo Fuenzalida (www.rfuenzalida.com|hello@rfuenzalida.com), with Reserved Font Name Libre Baskerville."
_OTF_FONTFILE "b.ttf"
_OTF_PSNAME "LibreBaskerville-Regular"
ENDPROPERTIES
CHARS 442
STARTCHAR 0020
ENCODING 32
SWIDTH 281 0
DWIDTH 18 0
BBX 0 0 0 0
BITMAP
ENDCHAR
STARTCHAR 0021
ENCODING 33
SWIDTH 312 0
DWIDTH 20 0
BBX 8 52 6 -1
BITMAP
10
7E
FE
FF
FF
FF
FF
FF
FF
FF
FF
FE
7E
7E
7E
7E
7E
7C
7C
3C
3C
3C
3C
3C
3C
3C
3C
3C
3C
3C
38
38
38
38
38
38
38
38
00
00
00
00
00
10
7E
FF
FF
FF
FF
FF
7E
10
ENDCHAR
STARTCHAR 0022
ENCODING 34
SWIDTH 359 0
DWIDTH 23 0
BBX 16 17 4 37
BITMAP
781C
F83E
FC3F
FC3F
FC3E
FC3E
F83E
F83E
783E
783E
781E
781C
781C
701C
301C
301C
300C
ENDCHAR
STARTCHAR 0023
ENCODING 35
SWIDTH 671 0
DWIDTH 43 0
BBX 38 50 2 0
BITMAP
0003C00F00
0003C00F00
0003C00E00
0003C01E00
0003C01E00
0003C01E00
0003801E00
0007801E00
0007801E00
0007801C00
0007803C00
0007803C00
0007803C00
0007003C00
000F003C00
000F003C00
1FFFFFFFFC
1FFFFFFFFC
1FFFFFFFFC
200E007800
001E007800
001E007800
001E007800
001E00F000
001E00F000
001E00F000
001C00F000
003C00F000
003C00F000
003C00F000
7FFFFFFFF0
7FFFFFFFF0
7FFFFFFFF0
807801E000
007801E000
007801E000
007803C000
007803C000
007803C000
007003C000
00F003C000
00F003C000
00F003C000
00F0038000
00F0078000
00F0078000
00E0078000
01E0078000
01E0078000
01E0078000
ENDCHAR
STARTCHAR 0024
ENCODING 36
SWIDTH 625 0
DWIDTH 40 0
BBX 35 69 2 -11
BITMAP
0000F00000
0000F00000
0000F00000
0000F00000
0000F00000
0000F00000
0000F00000
0000F00000
001FFF8000
007FFFE000
00FFFFF800
01F8F1FC00
03F0F0FE00
07E0F07F00
07C0F03F00
0FC0F03F80
0F80F03F80
0F80F03F80
1F80F01F80
1F80F01F80
1FC0F00F00
1FC0F00000
1FE0F00000
1FF0F00000
0FF8F00000
0FFCF00000
0FFFF00000
07FFF00000
07FFF00000
03FFFC0000
01FFFF0000
00FFFFC000
003FFFF000
001FFFF800
0007FFFC00
0001FFFF00
0000FFFF00
0000FFFF80
0000F3FFC0
0000F0FFC0
0000F07FE0
0000F03FE0
0000F01FE0
3800F00FE0
7C00F00FE0
7E00F00FE0
FE00F00FE0
FE00F00FE0
7F00F00FC0
7F00F00FC0
7F00F00F80
3F00F01F80
3F80F03F00
1FC0F07E00
0FF0F1FC00
03FFFFF800
00FFFFE000
003FFF8000
0001F00000
0000F00000
0000F00000
0000F00000
0000F00000
0000F00000
0000F00000
0000F00000
0000F00000
0000F00000
0000F00000
ENDCHAR
STARTCHAR 0025
ENCODING 37
SWIDTH 671 0
DWIDTH 43 0
BBX 39 52 2 -1
BITMAP
0020000000
00FC00001E
03DE00001C
0707000038
0703800070
0E038000F0
0E03C000E0
0E01C001C0
1E01C003C0
1E01C00380
1E01C00700
1E01C00E00
1E01C01E00
0E01C01C00
0E03C03800
0E03807800
0703807000
070300E000
038701E000
01FE01C000
0078038000
0000070000
00000F0000
00000E0000
00001C0000
00003C0000
0000380000
0000700000
0000F00000
0001E00000
0001C00000
0003803C00
000780FF00
000701C380
000E0381C0
001E0381C0
003C0780E0
00380700E0
00780700E0
00F00700F0
00E00700F0
01E00700F0
03C00700F0
03800700F0
07000700E0
0F000700E0
1E000380E0
1C000381C0
3C0001C1C0
780000F780
F000007E00
0000000800
ENDCHAR
STARTCHAR 0026
ENCODING 38
SWIDTH 875 0
DWIDTH 56 0
BBX 52 52 2 -1
BITMAP
00000200000000
00007FE0000000
0000FFF0000000
0001FFF8000000
0003FFFC000000
0007E0FE000000
000FC07E000000
000F807F000000
000F803F000000
001F803F000000
001F803F000000
001F803F000000
001F803F000000
001F803F000000
001F803E000000
001F807E000000
001FC07C000000
001FC0F8000000
000FE1F8000000
000FE3F0000000
000FF7E0000000
0007FF800FFFC0
0007FF000FFFC0
0003FE0001FE00
0001FC0001F800
0003FE0001F000
000FFF0001E000
003FFF8001E000
00FE7F8003C000
01FC3FC0038000
03F81FE0078000
0FF01FF0070000
1FE00FF80E0000
1FC007F81E0000
3F8003FC1C0000
7F8001FE380000
7F0001FF780000
7F0000FFF00000
FF00007FE00000
FF00003FE00000
FF00003FE00000
FF00001FE00000
7F80000FF00000
7F80003FF80000
7FC0007FFC0030
3FE001F9FF0070
3FF007F0FF8060
1FFFFFC07FFFE0
0FFFFF803FFFC0
03FFFE000FFF80
00FFF00003FE00
00060000002000
ENDCHAR
STARTCHAR 0027
ENCODING 39
SWIDTH 218 0
DWIDTH 14 0
BBX 6 17 4 37
BITMAP
78
F8
FC
FC
FC
FC
F8
F8
78
78
78
78
78
70
30
30
30
ENDCHAR
STARTCHAR 0028
ENCODING 40
SWIDTH 328 0
DWIDTH 21 0
BBX 17 65 3 -12
BITMAP
000300
000780
000F00
000F00
001E00
003C00
007C00
00F800
00F000
01F000
03E000
03E000
07C000
07C000
0F8000
0F8000
1F0000
1F0000
3F0000
3F0000
3E0000
7E0000
7E0000
7E0000
7E0000
7E0000
FE0000
FE0000
FC0000
FC0000
FC0000
FC0000
FC0000
FC0000
FC0000
FC0000
FE0000
FE0000
FE0000
7E0000
7E0000
7E0000
7E0000
3E0000
3F0000
3F0000
1F0000
1F0000
1F8000
0F8000
0F8000
07C000
07C000
03E000
01E000
01F000
00F000
007800
007800
003C00
001E00
000F00
000700
000380
000180
ENDCHAR
STARTCHAR 0029
ENCODING 41
SWIDTH 328 0
DWIDTH 21 0
BBX 17 65 1 -12
BITMAP
600000
F00000
780000
3C0000
3E0000
1E0000
0F0000
0F8000
07C000
03C000
03E000
01E000
01F000
00F000
00F800
00F800
007C00
007C00
007E00
003E00
003E00
003F00
003F00
003F00
003F00
001F80
001F80
001F80
001F80
001F80
001F80
001F80
001F80
001F80
001F80
001F80
001F80
001F80
003F80
003F80
003F00
003F00
003F00
003F00
003E00
007E00
007E00
007C00
007C00
00F800
00F800
01F000
01F000
01E000
03E000
03C000
078000
0F8000
0F0000
1E0000
3C0000
380000
780000
F00000
600000
ENDCHAR
STARTCHAR 002A
ENCODING 42
SWIDTH 515 0
DWIDTH 33 0
BBX 25 29 4 22
BITMAP
00080000
003E0000
003E0000
003E0000
003E0000
003E0000
381C0F00
7C1C1F00
FE1C1F80
FE1C3F80
7F1C7F80
3FDCFE00
07EBE000
00FF8000
003E0000
007F0000
07FBE000
3F99FE00
FF187F80
FE1C3F80
FC1C1F80
F81C1F80
783C0F00
003E0000
003E0000
007E0000
003E0000
003E0000
00080000
ENDCHAR
STARTCHAR 002B
ENCODING 43
SWIDTH 546 0
DWIDTH 35 0
BBX 30 30 3 7
BITMAP
00070000
00070000
00070000
00070000
00070000
00070000
00070000
00070000
00070000
00070000
00070000
00070000
00070000
FFFFFFFC
FFFFFFFC
FFFFFFFC
00070000
00070000
00070000
00070000
00070000
00070000
00070000
00070000
00070000
00070000
00070000
00070000
00070000
00070000
ENDCHAR
STARTCHAR 002C
ENCODING 44
SWIDTH 265 0
DWIDTH 17 0
BBX 10 19 3 -11
BITMAP
1F00
3F80
3FC0
7FC0
7FC0
7FC0
3FC0
1DC0
03C0
03C0
03C0
0380
0780
0F00
1E00
3C00
7800
F000
6000
ENDCHAR
STARTCHAR 002D
ENCODING 45
SWIDTH 468 0
DWIDTH 30 0
BBX 20 5 5 16
BITMAP
FFFFF0
FFFFF0
FFFFF0
FFFFF0
FFFFF0
ENDCHAR
STARTCHAR 002E
ENCODING 46
SWIDTH 265 0
DWIDTH 17 0
BBX 9 9 4 -1
BITMAP
0800
3E00
7F00
FF80
FF80
FF80
7F00
3E00
0800
ENDCHAR
STARTCHAR 002F
ENCODING 47
SWIDTH 453 0
DWIDTH 29 0
BBX 26 50 2 0
BITMAP
000003C0
00000380
00000700
00000700
00000F00
00000E00
00001E00
00001C00
00001C00
00003800
00003800
00007800
00007000
0000F000
0000E000
0001E000
0001C000
0001C000
00038000
00038000
00078000
00070000
000F0000
000E0000
001E0000
001C0000
003C0000
00380000
00380000
00780000
00700000
00F00000
00E00000
01E00000
01C00000
03C00000
03C00000
07800000
07800000
07000000
0F000000
0E000000
1E000000
1C000000
3C000000
3C000000
78000000
78000000
70000000
F0000000
ENDCHAR
STARTCHAR 0030
ENCODING 48
SWIDTH 718 0
DWIDTH 46 0
BBX 38 52 4 -1
BITMAP
0000200000
0003FF0000
001FFFC000
003FFFF000
007E01F800
00F800FC00
01F0007E00
03F0003F00
07E0001F80
0FE0001F80
0FC0001FC0
1FC0000FC0
1FC0000FE0
3F80000FE0
3F800007F0
3F800007F0
7F800007F0
7F800007F8
7F800007F8
7F000007F8
FF000007F8
FF000007F8
FF000007FC
FF000007FC
FF000007FC
FF000007FC
FF000007FC
FF000007FC
FF000007FC
FF000007FC
FF000007FC
FF000007F8
FF000007F8
7F000007F8
7F800007F8
7F800007F0
7F800007F0
3F800007F0
3F80000FE0
1F80000FE0
1FC0000FE0
0FC0000FC0
0FC0001F80
07E0001F80
03E0003F00
01F0007E00
01F800FC00
007E01F800
003FFFF000
001FFFC000
0007FF0000
0000200000
ENDCHAR
STARTCHAR 0031
ENCODING 49
SWIDTH 453 0
DWIDTH 29 0
BBX 20 51 4 0
BITMAP
000400
003C00
03FC00
FFFC00
FFFC00
FFFC00
03FC00
01FC00
01FC00
01FC00
01FC00
01FC00
01FC00
01FC00
01FC00
01FC00
01FC00
01FC00
01FC00
01FC00
01FC00
01FC00
01FC00
01FC00
01FC00
01FC00
01FC00
01FC00
01FC00
01FC00
01FC00
01FC00
01FC00
01FC00
01FC00
01FC00
01FC00
01FC00
01FC00
01FC00
01FC00
01FC00
01FC00
01FC00
01FC00
01FC00
01FC00
03FE00
0FFF80
7FFFF0
7FFFF0
ENDCHAR
STARTCHAR 0032
ENCODING 50
SWIDTH 609 0
DWIDTH 39 0
BBX 32 51 3 0
BITMAP
00008000
003FFE00
00FFFF80
03FFFFE0
07F01FF0
0FC007F8
1F8003FC
1F0001FC
3F0001FE
3E0000FE
7E0000FE
7E0000FF
7E0000FF
7E0000FF
7E0000FF
7E0000FF
7F0000FF
7F0000FF
3F8000FF
3FC000FE
1FFC00FE
1FFC01FE
07F801FC
03E003FC
000003F8
000007F8
000007F0
00000FE0
00000FE0
00001FC0
00003F80
00007F00
00007E00
0000FE00
0001F800
0003F000
0007E000
000FC000
001F8003
003F0007
007E0007
00FC000F
01F0000F
03E0001E
07C0003E
0FFFFFFE
1FFFFFFE
3FFFFFFE
7FFFFFFC
FFFFFFFC
FFFFFFFC
ENDCHAR
STARTCHAR 0033
ENCODING 51
SWIDTH 609 0
DWIDTH 39 0
BBX 33 52 3 -1
BITMAP
0001000000
007FFE0000
01FFFF8000
07FFFFE000
0FF00FF000
1FC007F800
1F8003F800
3F8003FC00
3F8001FC00
3F8001FE00
3F8001FE00
3F8001FE00
1F8001FE00
1FE001FE00
0FF801FE00
07F001FE00
00C001FC00
000001FC00
000003F800
000003F000
000007F000
000007E000
00000F8000
003E3E0000
007FF80000
007FFF0000
003E1FC000
000007E000
000003F800
000001FC00
000001FC00
000000FE00
07E000FE00
1FF000FF00
3FF800FF00
7FC000FF00
7F8000FF00
7F0000FF80
FE0000FF00
FE0000FF00
FE0000FF00
FE0000FF00
7E0000FF00
7E0001FE00
7F0001FC00
3F8003FC00
1FC007F800
0FE00FF000
07FFFFC000
01FFFF8000
007FFC0000
0003000000
ENDCHAR
STARTCHAR 0034
ENCODING 52
SWIDTH 578 0
DWIDTH 37 0
BBX 33 51 1 0
BITMAP
0000018000
0000038000
0000078000
0000078000
00000F8000
00001F8000
00001F8000
00003F8000
00003F8000
00007F8000
0000FF8000
0000FF8000
0001FF8000
0003FF8000
0003BF8000
0007BF8000
000F3F8000
000E3F8000
001E3F8000
001C3F8000
00383F8000
00783F8000
00703F8000
00E03F8000
01E03F8000
01C03F8000
03803F8000
07803F8000
07003F8000
0F003F8000
0E003F8000
1C003F8180
3C003F8180
38003F8380
70003F8380
F0003F8780
FFFFFFFF80
FFFFFFFF80
FFFFFFFF80
00003F8F80
00003F8380
00003F8380
00003F8380
00003F8180
00003F8180
00003F8000
00007F8000
00007FC000
000FFFF800
000FFFFC00
000FFFFC00
ENDCHAR
STARTCHAR 0035
ENCODING 53
SWIDTH 562 0
DWIDTH 36 0
BBX 32 52 1 -1
BITMAP
0003001C
0007FFFC
0007FFF8
0007FFF8
0007FFF0
000FFFE0
000FFFC0
000FFF00
000E0000
001C0000
001C0000
001C0000
001C0000
00380000
00380000
00380000
00380000
00700000
0071FC00
007FFF00
007FFFC0
00FE1FE0
00F807F0
00F003F8
00E001F8
01E001FC
01C001FC
01C001FE
018001FE
000000FE
000000FE
000000FF
000000FF
000000FF
000000FF
000001FE
000001FE
000001FE
000001FE
7C0001FC
7C0003FC
FE0003FC
FE0003F8
FE0007F0
7F000FF0
7F000FE0
3F803FC0
3FC07F80
1FFFFE00
07FFFC00
01FFE000
000C0000
ENDCHAR
STARTCHAR 0036
ENCODING 54
SWIDTH 640 0
DWIDTH 41 0
BBX 34 52 4 -1
BITMAP
0000080000
0001FFC000
0007FFF000
001FFFF800
003E07FC00
007C01FE00
00F801FE00
01F000FE00
03E000FE00
07E0007C00
07C0001800
0FC0000000
0FC0000000
1F80000000
1F80000000
3F80000000
3F80000000
3F80000000
7F01FC0000
7F07FF8000
7F1FFFE000
7F3F0FF000
FF7803F800
FFF001FC00
FFE001FE00
FFC000FE00
FF8000FF00
FF80007F00
FF00007F80
FF00007F80
FF00007F80
FF00007F80
FF00007F80
FF00007F80
FF00007FC0
FF00007F80
7F00007F80
7F00007F80
7F00007F80
3F00007F80
3F80007F00
3F80007F00
1F8000FE00
1FC000FE00
0FC000FC00
07E001F800
03F003F000
01F807E000
00FFFFC000
007FFF8000
001FFC0000
0000800000
ENDCHAR
STARTCHAR 0037
ENCODING 55
SWIDTH 500 0
DWIDTH 32 0
BBX 30 55 2 -1
BITMAP
06000000
0E000000
0E000000
0F000000
1FFFFFFC
1FFFFFFC
1FFFFFFC
1FFFFFF8
3FFFFFF8
3FFFFFF8
3E0000F0
380000F0
780001E0
700001E0
700003C0
600003C0
E00007C0
E0000780
00000F80
00000F00
00001F00
00001E00
00003E00
00003E00
00007C00
00007C00
0000F800
0000F800
0001F800
0001F000
0003F000
0003E000
0007E000
0007E000
000FC000
000FC000
001F8000
001F8000
003F8000
003F0000
007F0000
007F0000
00FE0000
00FE0000
01FC0000
01FC0000
03FC0000
03F80000
03F80000
07F00000
07F00000
07E00000
07E00000
07C00000
01000000
ENDCHAR
STARTCHAR 0038
ENCODING 56
SWIDTH 609 0
DWIDTH 39 0
BBX 31 52 4 -1
BITMAP
00010000
003FF800
00FFFE00
03FFFF80
07E01FC0
0F800FE0
0F0007E0
1F0003F0
3E0001F0
3E0001F8
3E0000F8
3E0000F8
3E0000F8
7E0000F8
3F0001F8
3F8001F0
3FC001F0
3FE003E0
1FF007E0
1FFC07C0
0FFF1F80
07FFFE00
03FFFC00
01FFFC00
00FFFE00
003FFF80
003FFFC0
00FFFFE0
03E1FFF0
07C07FF0
0F801FF8
1F000FFC
3F0003FC
7E0001FC
7E0001FE
FC0000FE
FC00007E
FC00007E
FC00007E
FC00007E
FC00007C
FC00007C
FC00007C
7E0000F8
7E0000F8
3F0001F0
1F8003E0
0FE00FC0
07FFFF80
01FFFE00
007FF800
00030000
ENDCHAR
STARTCHAR 0039
ENCODING 57
SWIDTH 640 0
DWIDTH 41 0
BBX 33 52 4 -1
BITMAP
0000800000
001FFC0000
007FFF0000
01FFFF8000
03F80FE000
07E007F000
0FC003F000
1FC001F800
3F8001FC00
3F8000FC00
7F0000FE00
7F0000FE00
FF00007F00
FF00007F00
FF00007F00
FF00007F00
FF00007F80
FF00007F80
FF00007F80
FF00007F80
FF00007F80
FF00007F80
FF00007F80
7F00007F80
7F0000FF80
7F8000FF80
3F8001FF80
3FC003FF80
1FC007FF80
0FE00F7F80
07F83E7F80
03FFFC7F00
00FFF87F00
001FC07F00
0000007E00
000000FE00
000000FE00
000000FC00
000000FC00
000001F800
000001F800
040001F000
1F0003F000
3F8003E000
3F8007C000
3FC00F8000
3FE01F0000
1FF03E0000
0FFFFC0000
07FFF00000
01FFC00000
0008000000
ENDCHAR
STARTCHAR 003A
ENCODING 58
SWIDTH 281 0
DWIDTH 18 0
BBX 8 30 5 -1
BITMAP
3C
7E
FF
FF
FF
FF
FF
7E
3C
00
00
00
00
00
00
00
00
00
00
00
00
08
7E
FF
FF
FF
FF
FF
7E
08
ENDCHAR
STARTCHAR 003B
ENCODING 59
SWIDTH 312 0
DWIDTH 20 0
BBX 10 40 5 -11
BITMAP
1E00
3F00
7F80
7F80
7F80
7F80
7F80
3F00
1E00
0000
0000
0000
0000
0000
0000
0000
0000
0000
0000
0000
0000
1E00
3F00
7F80
7F80
7F80
7FC0
7FC0
3FC0
0380
0380
0780
0780
0F00
0E00
1E00
3C00
7800
E000
C000
ENDCHAR
STARTCHAR 003C
ENCODING 60
SWIDTH 578 0
DWIDTH 37 0
BBX 30 33 2 5
BITMAP
0000000C
0000003C
000000FC
000003F8
00000FE0
00003F80
0000FE00
0003F800
000FE000
003F8000
00FE0000
03F80000
0FE00000
3F800000
FE000000
F8000000
E0000000
F8000000
FE000000
3F800000
0FE00000
03F80000
00FE0000
003F8000
000FE000
0003F800
0000FE00
00003F80
00000FE0
000003F8
000000FC
0000003C
0000000C
ENDCHAR
STARTCHAR 003D
ENCODING 61
SWIDTH 625 0
DWIDTH 40 0
BBX 29 14 5 16
BITMAP
FFFFFFF8
FFFFFFF8
FFFFFFF8
00000000
00000000
00000000
00000000
00000000
00000000
00000000
00000000
FFFFFFF8
FFFFFFF8
FFFFFFF8
ENDCHAR
STARTCHAR 003E
ENCODING 62
SWIDTH 578 0
DWIDTH 37 0
BBX 30 33 5 5
BITMAP
C0000000
F0000000
FC000000
7F000000
1FC00000
07F00000
01FC0000
007F0000
001FC000
0007F000
0001FC00
00007F00
00001FC0
000007F0
000001FC
0000007C
0000001C
0000007C
000001FC
000007F0
00001FC0
00007F00
0001FC00
0007F000
001FC000
007F0000
01FC0000
07F00000
1FC00000
7F000000
FC000000
F0000000
C0000000
ENDCHAR
STARTCHAR 003F
ENCODING 63
SWIDTH 406 0
DWIDTH 26 0
BBX 18 52 4 -1
BITMAP
080000
7F8000
7FE000
FFF000
FFF800
7FFC00
7FFE00
101E00
000F00
000700
000780
000380
000380
0003C0
0003C0
0003C0
0003C0
0003C0
0007C0
000FC0
003F80
0FFF80
0FFF00
0FFF00
0FFE00
0FFC00
0FE000
0F0000
0F0000
0F0000
0F0000
0F0000
0F0000
0F0000
0F0000
0F0000
000000
000000
000000
000000
000000
000000
000000
040000
1F0000
3F8000
7FC000
7FC000
7FC000
3F8000
1F0000
040000
ENDCHAR
STARTCHAR 0040
ENCODING 64
SWIDTH 1031 0
DWIDTH 66 0
BBX 59 61 3 -10
BITMAP
0000000040000000
0000007FFF800000
000007FFFFF00000
00001FFFFFFE0000
00007FE000FF0000
0001FF00001FC000
0003FC000007E000
000FF0000001F000
001FC0000000F800
003F800000007C00
007F000000003E00
00FC000000001E00
01FC000000000F00
03F8000000000700
03F0000000000780
07E0000000000380
0FE00000800003C0
0FC0001FF07F01C0
1F80007FFC7E01C0
1F8000FFFC7E01C0
1F8001FC1EFE00E0
3F0007F00EFC00E0
3F0007E007FC00E0
7E000FC007FC00E0
7E001F8007F800E0
7E003F8003F800E0
7E003F0003F800E0
7E007F0003F800E0
7C007E0007F000E0
FC00FE0007F001C0
FC00FC0007F001C0
FC00FC0007F001C0
FC01FC000FE001C0
FC01FC000FE00380
FC01FC000FE00380
FC01FC001FE00780
7C01F8001FC00700
7E01F8003FC00F00
7E01FC007FC00E00
7E00FC007FC01C00
7E00FC00EFC03C00
3F00FC01CFC07800
3F007E038FC0F000
3F003F1F07E3E000
1F801FFE07FFC000
1F800FFC03FF0000
0FC003F000FC0000
07E0000000000000
07E0000000000000
03F0000000000000
01F8000000000000
00FC000000000800
007E000000003800
003F800000007C00
001FC0000001F000
000FF0000007C000
0003FE00003F8000
0000FFF00FFE0000
00003FFFFFF80000
000007FFFFC00000
0000007FFC000000
ENDCHAR
STARTCHAR 0041
ENCODING 65
SWIDTH 765 0
DWIDTH 49 0
BBX 50 50 0 0
BITMAP
000001C0000000
000001E0000000
000003E0000000
000003E0000000
000007F0000000
000007F0000000
000007F8000000
00000FF8000000
00000FF8000000
00000FFC000000
00001FFC000000
00001CFE000000
00003CFE000000
000038FE000000
0000387F000000
0000787F000000
0000707F000000
0000F03F800000
0000E03F800000
0000E01FC00000
0001E01FC00000
0001C01FC00000
0003C00FE00000
0003C00FE00000
0003800FF00000
00078007F00000
00070007F00000
000F0003F80000
000F0003F80000
000FFFFFFC0000
001FFFFFFC0000
001FFFFFFC0000
001C0001FE0000
003C0000FE0000
00380000FF0000
007800007F0000
007000007F0000
007000007F8000
00F000003F8000
00E000003FC000
01E000003FC000
01E000001FC000
01C000001FE000
03C000001FE000
03C000001FF000
07C000001FF800
0FE000001FFC00
7FF000007FFE00
FFFE0007FFFFC0
FFFE0007FFFFC0
ENDCHAR
STARTCHAR 0042
ENCODING 66
SWIDTH 765 0
DWIDTH 49 0
BBX 44 50 2 0
BITMAP
3FFFFFE00000
3FFFFFFE0000
3FFFFFFF8000
03FE00FFE000
01FE001FF000
00FE0007F800
00FE0007FC00
00FE0003FC00
00FE0003FE00
00FE0001FE00
00FE0001FE00
00FE0001FE00
00FE0001FE00
00FE0001FE00
00FE0001FE00
00FE0001FE00
00FE0001FC00
00FE0003FC00
00FE0003F800
00FE0007F000
00FE001FC000
00FE007F8000
00FFFFFC0000
00FFFFF00000
00FFFFFFC000
00FE003FF000
00FE0007FC00
00FE0001FE00
00FE0000FF00
00FE00007F80
00FE00003FC0
00FE00003FE0
00FE00001FE0
00FE00001FE0
00FE00001FF0
00FE00001FF0
00FE00001FF0
00FE00001FF0
00FE00001FF0
00FE00001FF0
00FE00001FE0
00FE00003FE0
00FE00003FE0
00FF00007FC0
00FF0000FF80
01FF8001FF00
07FFF81FFE00
FFFFFFFFFC00
FFFFFFFFF000
FFFFFFFF8000
ENDCHAR
STARTCHAR 0043
ENCODING 67
SWIDTH 796 0
DWIDTH 51 0
BBX 44 52 4 -1
BITMAP
000000800000
00007FFE00C0
0003FFFFC0C0
000FFFFFF1C0
001FF003FDC0
007FC000FFC0
00FF00003FC0
01FE00001FC0
03FC00000FC0
07F8000007C0
0FF0000003C0
0FF0000003C0
1FE0000001C0
1FE0000001C0
3FC0000000C0
3FC0000000C0
7FC000000000
7F8000000000
7F8000000000
7F8000000000
FF8000000000
FF8000000000
FF8000000000
FF8000000000
FF0000000000
FF0000000000
FF0000000000
FF0000000000
FF0000000000
FF8000000000
FF8000000000
FF8000000000
FF8000000000
FF8000000000
7F8000000000
7F8000000070
7FC000000070
3FC0000000F0
3FC0000000F0
1FE0000001F0
1FE0000001F0
0FF0000003F0
0FF8000003F0
07F8000007F0
03FC00000FF0
01FF00001FF0
00FF80007EF0
003FF001FCF0
001FFFFFF070
0007FFFFC070
0000FFFE0070
000003800000
ENDCHAR
STARTCHAR 0044
ENCODING 68
SWIDTH 890 0
DWIDTH 57 0
BBX 51 50 2 0
BITMAP
3FFFFFFC000000
3FFFFFFFC00000
3FFFFFFFF00000
01FE001FFC0000
01FE0001FF0000
00FE00007F8000
00FE00001FC000
00FE00000FE000
00FE000007F000
00FE000003F800
00FE000003FC00
00FE000001FE00
00FE000000FE00
00FE000000FF00
00FE0000007F00
00FE0000007F80
00FE0000007F80
00FE0000007FC0
00FE0000003FC0
00FE0000003FC0
00FE0000003FC0
00FE0000003FC0
00FE0000003FE0
00FE0000003FE0
00FE0000003FE0
00FE0000003FE0
00FE0000003FE0
00FE0000003FE0
00FE0000003FE0
00FE0000003FE0
00FE0000003FC0
00FE0000003FC0
00FE0000003FC0
00FE0000003FC0
00FE0000007F80
00FE0000007F80
00FE0000007F80
00FE000000FF00
00FE000000FE00
00FE000001FE00
00FE000001FC00
00FE000003F800
00FE000007F800
00FF00000FE000
00FF80003FC000
01FFC000FF8000
03FFF80FFE0000
7FFFFFFFF80000
FFFFFFFFE00000
FFFFFFFE000000
ENDCHAR
STARTCHAR 0045
ENCODING 69
SWIDTH 718 0
DWIDTH 46 0
BBX 41 50 3 0
BITMAP
7FFFFFFFFC00
7FFFFFFFFC00
7FFFFFFFFC00
07FC0007FC00
03FC0000FC00
03FC00007C00
01FC00003C00
01FC00001C00
01FC00001C00
01FC00001C00
01FC00000C00
01FC00000C00
01FC00000000
01FC00000000
01FC00000000
01FC00000000
01FC00300000
01FC00300000
01FC00700000
01FC00F00000
01FC01F00000
01FC1FF00000
01FFFFF00000
01FFFFF00000
01FFFFF00000
01FC1FF00000
01FC03F00000
01FC00F00000
01FC00F00000
01FC00700000
01FC00700000
01FC00300000
01FC00300000
01FC00300000
01FC00000000
01FC00000000
01FC00000000
01FC00000000
01FC00000380
01FC00000300
01FC00000700
01FC00000700
01FC00000F00
01FC00000F00
03FE00001F00
03FF00003F00
07FFC001FF00
FFFFFFFFFF00
FFFFFFFFFF00
FFFFFFFFFF00
ENDCHAR
STARTCHAR 0046
ENCODING 70
SWIDTH 671 0
DWIDTH 43 0
BBX 38 50 3 0
BITMAP
7FFFFFFFFC
7FFFFFFFFC
7FFFFFFFFC
07FC001FFC
03FC0001FC
01FC00007C
01FC00003C
01FC00003C
01FC00001C
01FC00001C
01FC00000C
01FC00000C
01FC00000C
01FC000000
01FC000000
01FC000000
01FC003000
01FC003000
01FC007000
01FC007000
01FC00F000
01FC00F000
01FC03F000
01FC0FF000
01FFFFF000
01FFFFF000
01FFFFF000
01FC3FF000
01FC03F000
01FC00F000
01FC00F000
01FC007000
01FC007000
01FC007000
01FC003000
01FC000000
01FC000000
01FC000000
01FC000000
01FC000000
01FC000000
01FC000000
01FC000000
01FC000000
01FC000000
03FC000000
03FE000000
0FFFC00000
FFFFFE0000
FFFFFE0000
ENDCHAR
STARTCHAR 0047
ENCODING 71
SWIDTH 875 0
DWIDTH 56 0
BBX 50 52 4 -1
BITMAP
00000080000000
00007FFE00E000
0003FFFFC0C000
000FFFFFF1C000
001FF003FDC000
007FC0007FC000
00FF00003FC000
01FE00001FC000
03FC00000FC000
07F8000007C000
0FF0000007C000
0FF0000003C000
1FE0000003C000
1FE0000003C000
3FC0000001C000
3FC0000001C000
7FC00000000000
7F800000000000
7F800000000000
7F800000000000
FF800000000000
FF800000000000
FF800000000000
FF800000000000
FF000000000000
FF000000000000
FF000000000000
FF000000000000
FF000000000000
FF800000000000
FF800000FFFFC0
FF800000FFFFC0
FF8000001FFE00
FF80000007FC00
7F80000007F800
7F80000003F800
7FC0000003F800
3FC0000003F800
3FC0000003F800
3FE0000003F800
1FE0000003F800
0FF0000003F800
0FF8000007F800
07F8000007F800
03FC00000FF800
01FF00001FF800
00FF80007F0000
007FF001F80000
001FFFFFE00000
0007FFFF800000
0000FFFE000000
00000300000000
ENDCHAR
STARTCHAR 0048
ENCODING 72
SWIDTH 921 0
DWIDTH 59 0
BBX 53 50 3 0
BITMAP
7FFFF0007FFFF8
7FFFF0007FFFF8
7FFFF0007FFFF8
07FF000007FF80
03FE000001FE00
03FC000001FE00
01FC000001FE00
01FC000001FC00
01FC000000FC00
01FC000000FC00
01FC000000FC00
01FC000000FC00
01FC000000FC00
01FC000000FC00
01FC000000FC00
01FC000000FC00
01FC000000FC00
01FC000000FC00
01FC000000FC00
01FC000000FC00
01FC000000FC00
01FC000000FC00
01FC000000FC00
01FFFFFFFFFC00
01FFFFFFFFFC00
01FFFFFFFFFC00
01FC000000FC00
01FC000000FC00
01FC000000FC00
01FC000000FC00
01FC000000FC00
01FC000000FC00
01FC000000FC00
01FC000000FC00
01FC000000FC00
01FC000000FC00
01FC000000FC00
01FC000000FC00
01FC000000FC00
01FC000000FC00
01FC000000FC00
01FC000000FC00
01FC000001FC00
01FC000001FC00
01FC000001FE00
03FC000001FE00
03FE000003FF00
0FFF80000FFFC0
FFFFF8007FFFF8
FFFFF8007FFFF8
ENDCHAR
STARTCHAR 0049
ENCODING 73
SWIDTH 421 0
DWIDTH 27 0
BBX 21 50 3 0
BITMAP
7FFFF0
7FFFF0
7FFFF0
0FFF00
03FE00
03FC00
03FC00
01FC00
01FC00
01FC00
01FC00
01FC00
01FC00
01FC00
01FC00
01FC00
01FC00
01FC00
01FC00
01FC00
01FC00
01FC00
01FC00
01FC00
01FC00
01FC00
01FC00
01FC00
01FC00
01FC00
01FC00
01FC00
01FC00
01FC00
01FC00
01FC00
01FC00
01FC00
01FC00
01FC00
01FC00
01FC00
01FC00
01FC00
03FC00
03FE00
07FE00
1FFF80
FFFFF8
FFFFF8
ENDCHAR
STARTCHAR 004A
ENCODING 74
SWIDTH 390 0
DWIDTH 25 0
BBX 29 67 -7 -17
BITMAP
003FFFF8
003FFFF8
003FFFF8
0003FF80
0001FF00
0000FE00
0000FE00
0000FE00
0000FE00
0000FE00
0000FE00
0000FE00
0000FE00
0000FE00
0000FE00
0000FE00
0000FE00
0000FE00
0000FE00
0000FE00
0000FE00
0000FE00
0000FE00
0000FE00
0000FE00
0000FE00
0000FE00
0000FE00
0000FE00
0000FE00
0000FE00
0000FE00
0000FE00
0000FE00
0000FE00
0000FE00
0000FE00
0000FE00
0000FE00
0000FE00
0000FE00
0000FE00
0000FE00
0000FE00
0000FE00
0000FE00
0000FE00
0000FE00
0000FE00
0000FE00
0000FE00
0000FE00
0000FE00
0000FE00
0000FE00
0000FE00
0000FC00
7800FC00
FC00FC00
FE01F800
FE01F800
FF03F000
FF87E000
7FFFC000
3FFF8000
0FFE0000
00400000
ENDCHAR
STARTCHAR 004B
ENCODING 75
SWIDTH 781 0
DWIDTH 50 0
BBX 48 50 3 0
BITMAP
7FFFF01FFFE0
7FFFF01FFFE0
0FFF8007FF00
03FE0001FC00
03FC0001F800
01FC0003F000
01FC0003E000
01FC0007C000
01FC000F8000
01FC001F0000
01FC003E0000
01FC003E0000
01FC007C0000
01FC00F80000
01FC01F00000
01FC03E00000
01FC03C00000
01FC07800000
01FC0F800000
01FC1F000000
01FC3E000000
01FC3C000000
01FC7E000000
01FCFF000000
01FDFF800000
01FFFFC00000
01FFFFC00000
01FF9FE00000
01FF0FF00000
01FE07F80000
01FE07FC0000
01FC03FC0000
01FC01FE0000
01FC00FF0000
01FC007F8000
01FC007FC000
01FC003FE000
01FC001FE000
01FC000FF000
01FC000FF800
01FC0007FC00
01FC0003FE00
01FC0001FE00
01FC0000FF00
01FC0000FF80
03FC00007FC0
03FE00007FE0
0FFF8001FFF8
FFFFF80FFFFF
FFFFF80FFFFF
ENDCHAR
STARTCHAR 004C
ENCODING 76
SWIDTH 734 0
DWIDTH 47 0
BBX 42 50 3 0
BITMAP
7FFFF0000000
7FFFF0000000
7FFFF0000000
07FF00000000
03FE00000000
03FC00000000
01FC00000000
01FC00000000
01FC00000000
01FC00000000
01FC00000000
01FC00000000
01FC00000000
01FC00000000
01FC00000000
01FC00000000
01FC00000000
01FC00000000
01FC00000000
01FC00000000
01FC00000000
01FC00000000
01FC00000000
01FC00000000
01FC00000000
01FC00000000
01FC00000000
01FC00000000
01FC00000000
01FC00000000
01FC00000000
01FC00000000
01FC00000000
01FC00000000
01FC00000000
01FC00000000
01FC00000000
01FC000000C0
01FC000001C0
01FC000001C0
01FC000001C0
01FC000003C0
01FC000003C0
01FC000007C0
03FE00000FC0
03FF00001FC0
07FFC000FFC0
FFFFFFFFFF80
FFFFFFFFFF80
FFFFFFFFFF80
ENDCHAR
STARTCHAR 004D
ENCODING 77
SWIDTH 1093 0
DWIDTH 70 0
BBX 64 51 3 -1
BITMAP
7FFF000000007FFE
7FFF00000000FFFE
7FFF80000000FFFE
0FFF80000001FFE0
03FFC0000001FFC0
03FFC0000003FFC0
03FFE0000003FF80
01FFE0000003FF80
01FFE0000007BF80
01FFF0000007BF80
01EFF000000FBF80
01EFF800000F3F80
01E7F800001F3F80
01E7F800001E3F80
01E3FC00001E3F80
01E3FC00003C3F80
01E1FE00003C3F80
01E1FE0000783F80
01E1FF0000783F80
01E0FF0000F83F80
01E0FF0000F03F80
01E07F8000F03F80
01E07F8001E03F80
01E03FC001E03F80
01E03FC003C03F80
01E03FC003C03F80
01E01FE007803F80
01E01FE007803F80
01E00FF007803F80
01E00FF00F003F80
01E007F80F003F80
01E007F81E003F80
01E003F81E003F80
01E003FC3C003F80
01E003FC3C003F80
01E001FE38003F80
01E001FE78003F80
01E000FE78003F80
01E000FFF0003F80
01E0007FF0003F80
01E0007FE0003F80
01E0007FE0003F80
01E0003FC0003F80
01E0003FC0003F80
03E0001F80003F80
03F0001F80007FC0
07F0000F8000FFC0
1FFC000F0001FFF0
FFFFC007001FFFFF
FFFFC006001FFFFF
0000000600000000
ENDCHAR
STARTCHAR 004E
ENCODING 78
SWIDTH 906 0
DWIDTH 58 0
BBX 52 51 3 -1
BITMAP
7FFC00001FFFF0
7FFC00001FFFF0
7FFE00001FFFF0
0FFF000001FF00
03FF000000FE00
03FF8000007C00
03FFC000007C00
01FFE000007800
01FFE000007800
01FFF000007800
01FFF800007800
01EFFC00007800
01E7FC00007800
01E7FE00007800
01E3FF00007800
01E1FF80007800
01E0FF80007800
01E0FFC0007800
01E07FE0007800
01E03FE0007800
01E01FF0007800
01E01FF8007800
01E00FFC007800
01E007FC007800
01E003FE007800
01E003FF007800
01E001FF807800
01E000FF807800
01E0007FC07800
01E0003FE07800
01E0003FF07800
01E0001FF07800
01E0000FF87800
01E00007FC7800
01E00007FC7800
01E00003FE7800
01E00001FF7800
01E00000FFF800
01E00000FFF800
01E000007FF800
01E000003FF800
01E000001FF800
01E000001FF800
01E000000FF800
03E0000007F800
03F0000003F800
07F0000003F800
1FFC000001F800
FFFF800000F800
FFFF8000007800
00000000007800
ENDCHAR
STARTCHAR 004F
ENCODING 79
SWIDTH 953 0
DWIDTH 61 0
BBX 53 52 4 -1
BITMAP
00000020000000
00001FFFC00000
0000FFFFF80000
0003FFFFFE0000
000FF800FF8000
003FC0003FC000
007F80000FF000
00FE000007F800
01FC000003FC00
03F8000001FE00
07F0000000FE00
0FF00000007F00
0FE00000007F80
1FE00000003F80
3FC00000003FC0
3FC00000001FE0
3F800000001FE0
7F800000001FE0
7F800000000FF0
FF800000000FF0
FF000000000FF0
FF000000000FF0
FF000000000FF8
FF000000000FF8
FF0000000007F8
FF0000000007F8
FF0000000007F8
FF0000000007F8
FF000000000FF8
FF000000000FF8
FF000000000FF8
FF000000000FF0
FF000000000FF0
7F800000000FF0
7F800000000FE0
7F800000001FE0
3FC00000001FE0
3FC00000001FC0
1FC00000003FC0
1FE00000003F80
0FE00000007F00
07F0000000FF00
03F8000000FE00
01FC000001FC00
00FE000003F800
007F00000FF000
003FC0001FC000
000FF000FF8000
0003FFFFFE0000
0000FFFFF80000
00001FFFC00000
00000060000000
ENDCHAR
STARTCHAR 0050
ENCODING 80
SWIDTH 687 0
DWIDTH 44 0
BBX 39 50 3 0
BITMAP
7FFFFFE000
7FFFFFFE00
7FFFFFFF80
07FC00FFE0
03FC001FF0
01FC000FF8
01FC0007F8
01FC0003FC
01FC0003FC
01FC0003FE
01FC0001FE
01FC0001FE
01FC0001FE
01FC0001FE
01FC0001FE
01FC0001FE
01FC0003FE
01FC0003FC
01FC0003FC
01FC0007FC
01FC0007F8
01FC000FF0
01FC003FE0
01FC01FFC0
01FFFFFF80
01FFFFFE00
01FFFFE000
01FC000000
01FC000000
01FC000000
01FC000000
01FC000000
01FC000000
01FC000000
01FC000000
01FC000000
01FC000000
01FC000000
01FC000000
01FC000000
01FC000000
01FC000000
01FC000000
01FC000000
01FC000000
03FC000000
03FE000000
0FFFC00000
FFFFFC0000
FFFFFC0000
ENDCHAR
STARTCHAR 0051
ENCODING 81
SWIDTH 953 0
DWIDTH 61 0
BBX 56 68 4 -17
BITMAP
00000020000000
00001FFFC00000
0000FFFFF80000
0003FFFFFE0000
000FF800FF8000
003FC0003FC000
007F00000FF000
00FE000007F800
01FC000001FC00
03F8000001FE00
07F0000000FF00
0FF00000007F00
0FE00000003F80
1FE00000003FC0
1FC00000003FC0
3FC00000001FE0
3F800000001FE0
7F800000000FE0
7F800000000FF0
7F800000000FF0
FF000000000FF0
FF000000000FF8
FF000000000FF8
FF0000000007F8
FF0000000007F8
FF0000000007F8
FF0000000007F8
FF0000000007F8
FF0000000007F8
FF000000000FF8
FF000000000FF8
FF000000000FF0
FF800000000FF0
7F800000000FF0
7F800000000FF0
7F800000001FE0
3FC00000001FE0
3FC00000001FC0
1FC00000003FC0
1FE00000003F80
0FE00000007F80
0FF00000007F00
07F8000000FE00
03FC000001FC00
01FE000003FC00
00FF000007F800
007F80000FE000
003FE0003FC000
000FFC01FF8000
0007FFFFFE0000
0000FFFFF80000
00001FFFC00000
000000FF000000
000001F8000000
000007E0000000
00001FC0000002
00003FFC000007
0000FFFF800007
0003FFFFF00007
0007E07FFE000F
000FC01FFF801E
000F8007FFFFFE
000F0001FFFFFC
000000007FFFFC
000000003FFFF8
000000000FFFF0
0000000001FFC0
00000000000800
ENDCHAR
STARTCHAR 0052
ENCODING 82
SWIDTH 781 0
DWIDTH 50 0
BBX 49 50 3 0
BITMAP
7FFFFFE0000000
7FFFFFFE000000
7FFFFFFF800000
07FC00FFE00000
03FC001FF00000
01FC000FF80000
01FC0007F80000
01FC0003FC0000
01FC0003FC0000
01FC0003FE0000
01FC0001FE0000
01FC0001FE0000
01FC0001FE0000
01FC0001FE0000
01FC0001FE0000
01FC0001FE0000
01FC0003FE0000
01FC0003FC0000
01FC0003FC0000
01FC0007F80000
01FC000FF80000
01FC003FF00000
01FC01FFC00000
01FFFFFF800000
01FFFFFE000000
01FFFFE0000000
01FC7FE0000000
01FC1FF0000000
01FC0FF8000000
01FC07F8000000
01FC03FC000000
01FC01FE000000
01FC01FF000000
01FC00FF800000
01FC007F800000
01FC003FC00000
01FC003FE00000
01FC001FF00000
01FC000FF80000
01FC0007F80000
01FC0003FC0000
01FC0003FE0000
01FC0001FF0000
01FC0000FF8000
01FC00007F8000
03FC00007FE000
03FE00003FF000
0FFFC0001FFE00
FFFFFC000FFF80
FFFFFC000FFF80
ENDCHAR
STARTCHAR 0053
ENCODING 83
SWIDTH 640 0
DWIDTH 41 0
BBX 34 52 4 -1
BITMAP
0000800000
003FFC0800
00FFFF1800
01FFFF9C00
03F00FFC00
07C003FC00
0F8000FC00
1F80007C00
1F00007C00
3F00003C00
3F00003C00
3F00001C00
3F00001C00
3F00000C00
3F80000000
3F80000000
3FC0000000
3FF0000000
3FF8000000
1FFE000000
1FFF800000
0FFFE00000
07FFF80000
03FFFE0000
01FFFF8000
00FFFFE000
003FFFF000
000FFFF800
0003FFFE00
0000FFFE00
00003FFF00
00000FFF80
000003FF80
000000FF80
0000007FC0
C000007FC0
C000003FC0
E000003FC0
E000001FC0
E000001FC0
F000001F80
F000001F80
F800003F80
FC00003F00
FE00003F00
FF00007E00
FF8000FC00
77F003F800
63FFFFE000
40FFFFC000
003FFE0000
0000800000
ENDCHAR
STARTCHAR 0054
ENCODING 84
SWIDTH 796 0
DWIDTH 51 0
BBX 49 50 1 0
BITMAP
FFFFFFFFFFFF80
FFFFFFFFFFFF80
FFFFFFFFFFFF80
FF801FFC01FF80
FC0007F8001F80
F80007F8000F80
F00007F8000780
F00007F8000380
E00007F8000380
E00007F8000380
E00007F8000380
E00007F8000180
E00007F8000180
000007F8000000
000007F8000000
000007F8000000
000007F8000000
000007F8000000
000007F8000000
000007F8000000
000007F8000000
000007F8000000
000007F8000000
000007F8000000
000007F8000000
000007F8000000
000007F8000000
000007F8000000
000007F8000000
000007F8000000
000007F8000000
000007F8000000
000007F8000000
000007F8000000
000007F8000000
000007F8000000
000007F8000000
000007F8000000
000007F8000000
000007F8000000
000007F8000000
000007F8000000
000007F8000000
000007F8000000
00000FF8000000
00000FFC000000
00001FFE000000
0000FFFFC00000
0007FFFFF80000
0007FFFFF80000
ENDCHAR
STARTCHAR 0055
ENCODING 85
SWIDTH 859 0
DWIDTH 55 0
BBX 51 51 2 -1
BITMAP
FFFFFC007FFFE0
FFFFFC007FFFE0
1FFFC0000FFF00
07FF000003FC00
03FF000001F800
03FE000001F800
01FE000000F800
01FE000000F800
01FE000000F000
01FE000000F000
01FE000000F000
01FE000000F000
01FE000000F000
01FE000000F000
01FE000000F000
01FE000000F000
01FE000000F000
01FE000000F000
01FE000000F000
01FE000000F000
01FE000000F000
01FE000000F000
01FE000000F000
01FE000000F000
01FE000000F000
01FE000000F000
01FE000000F000
01FE000000F000
01FE000000F000
01FE000000F000
01FE000000F000
01FE000000F000
01FE000000F000
01FE000000F000
01FE000000F000
01FE000000F000
01FE000000F000
01FE000000E000
00FE000000E000
00FF000001E000
00FF000001E000
00FF800003C000
007F800007C000
007FC000078000
003FE0001F8000
001FF8007F0000
000FFFFFFE0000
0007FFFFFC0000
0001FFFFF00000
00007FFF800000
000000E0000000
ENDCHAR
STARTCHAR 0056
ENCODING 86
SWIDTH 781 0
DWIDTH 50 0
BBX 52 50 -1 0
BITMAP
FFFFF8000FFFF0
FFFFF8000FFFF0
FFFF800001FFC0
1FFF0000007E00
07FE0000007C00
03FE0000007C00
01FE0000007800
01FF0000007800
00FF0000007000
00FF000000F000
007F800000E000
007F800001E000
007FC00001E000
003FC00001C000
003FC00003C000
001FE000038000
001FE000078000
000FE000078000
000FF000070000
000FF0000F0000
0007F8000E0000
0007F8001E0000
0003F8001E0000
0003FC001C0000
0003FC003C0000
0001FE00380000
0001FE00780000
0000FE00780000
0000FF00700000
00007F00F00000
00007F80E00000
00007F81E00000
00003F81E00000
00003FC1C00000
00001FC3C00000
00001FC3800000
00001FE7800000
00000FE7800000
00000FF7000000
000007FF000000
000007FE000000
000003FE000000
000003FC000000
000003FC000000
000001FC000000
000001F8000000
000000F8000000
000000F0000000
000000F0000000
00000070000000
ENDCHAR
STARTCHAR 0057
ENCODING 87
SWIDTH 1171 0
DWIDTH 75 0
BBX 77 50 -1 0
BITMAP
FFFFF801FFFFC007FFF8
FFFFF801FFFFC007FFF8
1FFFC000FFFC0000FFC0
07FF00003FF800003F00
03FE00001FF800003E00
01FE00001FF000003E00
01FE00000FF800003C00
00FF00000FF800003C00
00FF000007F800007800
007F000007F800007800
007F800007FC00007800
007F80000FFC0000F000
003F80000FFC0000F000
003FC0001FFE0000F000
001FC0001FFE0001E000
001FC0001EFE0001E000
001FE0003CFE0001C000
000FE0003CFF0003C000
000FE000387F0003C000
000FF000787F00038000
0007F000787F80078000
0007F000703F80078000
0007F000F03F80070000
0003F800F03FC00F0000
0003F801E01FC00E0000
0001F801E01FC01E0000
0001FC01C01FC01E0000
0001FC03C00FE01C0000
0000FC03C00FE03C0000
0000FE038007E03C0000
0000FE078007F0380000
00007E078007F0780000
00007F070003F0700000
00007F0F0003F8700000
00003F0E0003F8F00000
00003F8E0001F8E00000
00003F9E0001F8E00000
00001F9C0001FDC00000
00001FFC0000FDC00000
00000FFC0000FDC00000
00000FF80000FF800000
00000FF800007F800000
000007F000007F800000
000007F000007F000000
000007F000003F000000
000003E000003E000000
000003E000003E000000
000003E000001E000000
000001C000001C000000
000001C000001C000000
ENDCHAR
STARTCHAR 0058
ENCODING 88
SWIDTH 812 0
DWIDTH 52 0
BBX 53 50 0 0
BITMAP
3FFFFE00FFFFC0
3FFFFE00FFFFC0
07FFF8001FFE00
01FFE00007F800
00FFE00007F000
007FE00007E000
003FE00007C000
001FF000078000
000FF0000F0000
000FF8001F0000
0007FC001E0000
0003FC003C0000
0003FE00780000
0001FF00F80000
0000FF00F00000
00007F81E00000
00007FC3C00000
00003FC7C00000
00001FE7800000
00001FFF000000
00000FFE000000
000007FE000000
000003FC000000
000003FC000000
000001FE000000
000001FF000000
000003FF800000
000007FF800000
00000FBFC00000
00001F3FE00000
00001E1FE00000
00003C0FF00000
00007C0FF80000
0000F807FC0000
0000F003FC0000
0001E003FE0000
0003C001FF0000
0007C000FF0000
00078000FF8000
000F00007FC000
001F00007FE000
003E00003FE000
003C00001FF000
007C00001FF800
00F800000FFC00
01F800000FFE00
07F800000FFF00
1FFC00003FFFC0
FFFFC001FFFFF8
FFFFC001FFFFF8
ENDCHAR
STARTCHAR 0059
ENCODING 89
SWIDTH 734 0
DWIDTH 47 0
BBX 47 50 0 0
BITMAP
FFFFF0007FFE
FFFFF0007FFE
3FFF00001FF8
0FFC00000FE0
07FC000007C0
03FC00000780
03FE00000F80
01FE00000F00
00FF00001E00
00FF00001E00
007F80003C00
007F80003C00
003FC0007800
001FC0007000
001FE000F000
000FF000E000
000FF001E000
0007F803C000
0007F8038000
0003FC078000
0001FC070000
0001FE0F0000
0000FF1E0000
0000FF1E0000
00007FBC0000
00007FB80000
00003FF80000
00003FF00000
00001FF00000
00000FE00000
00000FE00000
00000FE00000
00000FE00000
00000FE00000
00000FE00000
00000FE00000
00000FE00000
00000FE00000
00000FE00000
00000FE00000
00000FE00000
00000FE00000
00000FE00000
00000FE00000
00001FE00000
00001FF00000
00003FF80000
0003FFFF8000
0007FFFFC000
0007FFFFC000
ENDCHAR
STARTCHAR 005A
ENCODING 90
SWIDTH 765 0
DWIDTH 49 0
BBX 45 50 1 0
BITMAP
07FFFFFFFFF0
07FFFFFFFFE0
07FFFFFFFFC0
07F800007FC0
0FC000007F80
0F800000FF00
0F000001FE00
0F000001FE00
0E000003FC00
0E000007F800
0E00000FF800
0C00000FF000
0000001FE000
0000003FC000
0000007FC000
0000007F8000
000000FF0000
000001FF0000
000001FE0000
000003FC0000
000007F80000
00000FF80000
00000FF00000
00001FE00000
00003FE00000
00003FC00000
00007F800000
0000FF000000
0001FF000000
0001FE000000
0003FC000000
0007FC000000
000FF8000000
000FF0000000
001FE0000000
003FE0000038
003FC0000038
007F80000038
00FF80000038
01FF00000038
01FE00000078
03FC00000078
07FC00000078
07F8000000F8
0FF0000001F8
1FF0000003F8
3FE000000FF8
3FFFFFFFFFF8
7FFFFFFFFFF8
FFFFFFFFFFF0
ENDCHAR
STARTCHAR 005B
ENCODING 91
SWIDTH 375 0
DWIDTH 24 0
BBX 15 63 7 -10
BITMAP
FFFE
FFFE
FFFE
FC00
FC00
FC00
FC00
FC00
FC00
FC00
FC00
FC00
FC00
FC00
FC00
FC00
FC00
FC00
FC00
FC00
FC00
FC00
FC00
FC00
FC00
FC00
FC00
FC00
FC00
FC00
FC00
FC00
FC00
FC00
FC00
FC00
FC00
FC00
FC00
FC00
FC00
FC00
FC00
FC00
FC00
FC00
FC00
FC00
FC00
FC00
FC00
FC00
FC00
FC00
FC00
FC00
FC00
FC00
FC00
FC00
FFFE
FFFE
FFFE
ENDCHAR
STARTCHAR 005C
ENCODING 92
SWIDTH 453 0
DWIDTH 29 0
BBX 26 50 2 0
BITMAP
E0000000
70000000
70000000
78000000
38000000
38000000
1C000000
1C000000
0E000000
0E000000
0F000000
07000000
07800000
03800000
03C00000
01C00000
01C00000
00E00000
00E00000
00F00000
00700000
00780000
00380000
003C0000
001C0000
001E0000
000E0000
000E0000
000F0000
00070000
00078000
00038000
0003C000
0001C000
0001E000
0001E000
0000E000
0000F000
00007000
00007800
00003800
00003C00
00001C00
00001E00
00001E00
00000F00
00000F00
00000700
00000780
000003C0
ENDCHAR
STARTCHAR 005D
ENCODING 93
SWIDTH 375 0
DWIDTH 24 0
BBX 16 63 1 -10
BITMAP
FFFF
FFFF
FFFF
003F
003F
003F
003F
003F
003F
003F
003F
003F
003F
003F
003F
003F
003F
003F
003F
003F
003F
003F
003F
003F
003F
003F
003F
003F
003F
003F
003F
003F
003F
003F
003F
003F
003F
003F
003F
003F
003F
003F
003F
003F
003F
003F
003F
003F
003F
003F
003F
003F
003F
003F
003F
003F
003F
003F
003F
003F
FFFF
FFFF
FFFF
ENDCHAR
STARTCHAR 005E
ENCODING 94
SWIDTH 484 0
DWIDTH 31 0
BBX 21 12 5 15
BITMAP
01F800
01FC00
03FE00
07FE00
07FF00
0F9F80
1F0F80
1E07C0
3C03E0
7801E0
7000F0
E00078
ENDCHAR
STARTCHAR 005F
ENCODING 95
SWIDTH 718 0
DWIDTH 46 0
BBX 36 4 5 -9
BITMAP
FFFFFFFFF0
FFFFFFFFF0
FFFFFFFFF0
FFFFFFFFF0
ENDCHAR
STARTCHAR 0060
ENCODING 96
SWIDTH 281 0
DWIDTH 18 0
BBX 15 10 1 42
BITMAP
7800
FC00
FE00
7F00
7F80
1FE0
07F0
01F8
007C
001E
ENDCHAR
STARTCHAR 0061
ENCODING 97
SWIDTH 546 0
DWIDTH 35 0
BBX 33 36 3 -1
BITMAP
0004000000
03FFF80000
0FFFFE0000
1FC0FF0000
3F803F0000
7F003F8000
7F001F8000
7F001F8000
3E001F8000
1C001FC000
00001FC000
00001FC000
00001FC000
00003FC000
0000FFC000
0003FFC000
000FDFC000
007E1FC000
01F81FC000
03F01FC000
0FC01FC000
1F801FC000
3F001FC000
7E001FC000
FE001FC000
FC001FC000
FC003FC000
FC003FC000
FE007FC000
FE00EFC000
FF01CFC100
7FFF8FE100
7FFF07FF80
3FFE07FF00
0FF803FC00
0080004000
ENDCHAR
STARTCHAR 0062
ENCODING 98
SWIDTH 656 0
DWIDTH 42 0
BBX 39 54 0 -1
BITMAP
00F0000000
0FF0000000
FFF0000000
FFF0000000
1FF0000000
07F0000000
07F0000000
07F0000000
03F0000000
03F0000000
03F0000000
03F0000000
03F0000000
03F0000000
03F0000000
03F0000000
03F0000000
03F0000000
03F0020000
03F07FF000
03F0FFFC00
03F3FFFF00
03F7807F80
03FF001FC0
03FE000FE0
03FC000FF0
03F80007F0
03F80003F8
03F80003F8
03F00001FC
03F00001FC
03F00001FC
03F00001FC
03F00001FE
03F00001FE
03F00000FE
03F00000FE
03F00001FE
03F00001FE
03F00001FC
03F00001FC
03F00001FC
03F00001FC
03F80003F8
03F80003F8
03FC0007F0
03FC0007F0
03FE000FE0
03FF001FC0
03DFC07F80
038FFFFF00
0303FFFC00
0300FFF000
0000060000
ENDCHAR
STARTCHAR 0063
ENCODING 99
SWIDTH 531 0
DWIDTH 34 0
BBX 29 36 3 -1
BITMAP
00004000
001FFF80
007FFFE0
01FFFFF0
03F80FF8
07E007F8
0FC003F8
1FC001F8
1F8000F0
3F800000
3F000000
7F000000
7F000000
7F000000
FF000000
FE000000
FE000000
FE000000
FE000000
FE000000
FF000000
FF000000
FF000000
7F000000
7F000000
7F800000
3F800000
3F800000
1FC00010
1FE00038
0FF000F8
07FC03F0
03FFFFC0
00FFFF80
003FFC00
00010000
ENDCHAR
STARTCHAR 0064
ENCODING 100
SWIDTH 671 0
DWIDTH 43 0
BBX 39 55 3 -1
BITMAP
0000000180
0000007F80
00000FFF80
00000FFF80
00000FFF80
0000007F80
0000003F80
0000003F80
0000001F80
0000001F80
0000001F80
0000001F80
0000001F80
0000001F80
0000001F80
0000001F80
0000001F80
0000001F80
0000001F80
0000801F80
001FFC1F80
007FFF1F80
01FFFF9F80
03F807DF80
07E001FF80
0FC000FF80
1FC0007F80
3F80003F80
3F80003F80
7F00003F80
7F00003F80
7F00001F80
7F00001F80
FE00001F80
FE00001F80
FE00001F80
FE00001F80
FE00001F80
FE00001F80
FE00001F80
FF00001F80
7F00001F80
7F00003F80
7F00003F80
3F00003F80
3F80003F80
3F80007F80
1FC0007F80
0FE000EF80
07F003EFC0
03F80FCFE0
01FFFF8FFE
007FFF0FFE
001FFC0FFE
0000800000
ENDCHAR
STARTCHAR 0065
ENCODING 101
SWIDTH 578 0
DWIDTH 37 0
BBX 31 36 3 -1
BITMAP
00004000
000FFF00
007FFFC0
01FFFFE0
03F807F0
07E003F8
0FC001F8
1F8001FC
1F8000FC
3F0000FC
3F0001FC
7FFFFFFE
7FFFFFFE
7FFFFFFE
FF000000
FE000000
FE000000
FE000000
FE000000
FE000000
FF000000
FF000000
7F000000
7F000000
7F800000
7F800000
3F800000
3FC00008
1FE0001C
0FF0003C
0FF80078
03FE01F0
01FFFFE0
00FFFF80
001FFE00
0000C000
ENDCHAR
STARTCHAR 0066
ENCODING 102
SWIDTH 406 0
DWIDTH 26 0
BBX 32 54 1 0
BITMAP
00003FE0
0001FFF8
0007FFFE
000FC3FE
001F80FF
003F007E
003E003E
007E0008
007C0000
007C0000
00FC0000
00FC0000
00FC0000
00FC0000
00FC0000
00FC0000
00FC0000
00FC0000
00FC0000
00FC0000
00FC0000
FFFFFF00
FFFFFF00
FFFFFF00
00FC0000
00FC0000
00FC0000
00FC0000
00FC0000
00FC0000
00FC0000
00FC0000
00FC0000
00FC0000
00FC0000
00FC0000
00FC0000
00FC0000
00FC0000
00FC0000
00FC0000
00FC0000
00FC0000
00FC0000
00FC0000
00FC0000
00FC0000
01FC0000
01FC0000
01FE0000
01FE0000
07FF8000
3FFFF000
3FFFF000
ENDCHAR
STARTCHAR 0067
ENCODING 103
SWIDTH 593 0
DWIDTH 38 0
BBX 37 52 2 -17
BITMAP
0001000100
003FF80FF0
00FFFE1FF8
01F83FFFF8
07F01FFFF8
07E00FE0F8
0FC00FE020
0FC007E000
1FC007F000
1FC007F000
1F8007F000
1F8007F000
1F8007F000
1FC007F000
1FC007F000
1FC007E000
0FC007E000
0FE00FE000
07E00FC000
03F01F8000
01F83F0000
007FFE0000
01FFF80000
07FF000000
0FC0000000
1F00000000
1E00000000
1F00000000
1FF8000000
1FFFF80000
1FFFFFC000
0FFFFFF000
07FFFFF800
01FFFFFC00
000FFFFE00
00000FFF00
0F0000FF00
3FC0007F00
7F00003F80
7E00001F80
FC00001F80
FC00001F80
FC00001F80
FC00001F00
FC00001F00
7E00003E00
7F00007E00
3F8000FC00
0FFE3FF800
07FFFFE000
00FFFF0000
0001800000
ENDCHAR
STARTCHAR 0068
ENCODING 104
SWIDTH 687 0
DWIDTH 44 0
BBX 42 54 1 0
BITMAP
001000000000
01F000000000
3FF000000000
FFF000000000
FFF000000000
0FF000000000
07F000000000
03F000000000
03F000000000
03F000000000
03F000000000
03F000000000
03F000000000
03F000000000
03F000000000
03F000000000
03F000000000
03F000000000
03F000000000
03F000800000
03F01FFC0000
03F07FFF0000
03F1FFFFC000
03F3E03FC000
03F7801FE000
03FF000FE000
03FE0007F000
03FC0007F000
03F80007F000
03F80007F000
03F80003F000
03F00003F000
03F00003F000
03F00003F000
03F00003F000
03F00003F000
03F00003F000
03F00003F000
03F00003F000
03F00003F000
03F00003F000
03F00003F000
03F00003F000
03F00003F000
03F00003F000
03F00003F000
03F00003F000
03F00003F000
03F00003F000
03F80007F800
07F80007F800
1FFE003FFE00
7FFFC07FFFC0
7FFFC07FFFC0
ENDCHAR
STARTCHAR 0069
ENCODING 105
SWIDTH 343 0
DWIDTH 22 0
BBX 19 52 2 0
BITMAP
01E000
03F000
07F800
07F800
07F800
07F800
03F000
01E000
000000
000000
000000
000000
000000
000000
000000
000000
000000
001800
03F800
FFF800
FFF800
FFF800
07F800
03F800
03F800
03F800
03F800
03F800
03F800
03F800
03F800
03F800
03F800
03F800
03F800
03F800
03F800
03F800
03F800
03F800
03F800
03F800
03F800
03F800
03F800
03F800
03F800
03F800
07FC00
1FFE00
FFFFE0
FFFFE0
ENDCHAR
STARTCHAR 006A
ENCODING 106
SWIDTH 296 0
DWIDTH 19 0
BBX 23 69 -9 -17
BITMAP
000078
0000FC
0000FE
0001FE
0001FE
0000FE
0000FC
000078
000000
000000
000000
000000
000000
000000
000000
000000
000000
00000E
0001FE
003FFE
003FFE
003FFE
0001FE
0000FE
0000FE
0000FE
0000FE
0000FE
0000FE
0000FE
0000FE
0000FE
0000FE
0000FE
0000FE
0000FE
0000FE
0000FE
0000FE
0000FE
0000FE
0000FE
0000FE
0000FE
0000FE
0000FE
0000FE
0000FE
0000FE
0000FE
0000FE
0000FE
0000FE
0000FE
0000FE
0000FC
0000FC
0000FC
0000FC
3800FC
7C00F8
FC00F8
FE01F0
FF01F0
7F03E0
7FFFC0
3FFF80
0FFE00
004000
ENDCHAR
STARTCHAR 006B
ENCODING 107
SWIDTH 609 0
DWIDTH 39 0
BBX 38 54 1 0
BITMAP
0010000000
03F0000000
7FF0000000
FFF0000000
FFF0000000
07F0000000
03F0000000
03F0000000
03F0000000
03F0000000
03F0000000
03F0000000
03F0000000
03F0000000
03F0000000
03F0000000
03F0000000
03F0000000
03F0000000
03F0000000
03F01FFFE0
03F01FFFE0
03F003FF00
03F000FC00
03F000F800
03F001F000
03F003E000
03F007C000
03F00F8000
03F01F0000
03F03E0000
03F0780000
03F0F00000
03F1E00000
03F3E00000
03F7F00000
03FFF80000
03FFFC0000
03FDFE0000
03F8FF0000
03F07F0000
03F03F8000
03F03FC000
03F01FE000
03F00FF000
03F007F800
03F003FC00
03F001FE00
03F801FE00
03F800FF00
07F8007F80
1FFE007FE0
FFFFC7FFFC
FFFFC7FFFC
ENDCHAR
STARTCHAR 006C
ENCODING 108
SWIDTH 328 0
DWIDTH 21 0
BBX 18 54 1 0
BITMAP
000800
01F000
3FF000
FFF000
FFF000
0FF000
03F000
03F000
03F000
03F000
03F000
03F000
03F000
03F000
03F000
03F000
03F000
03F000
03F000
03F000
03F000
03F000
03F000
03F000
03F000
03F000
03F000
03F000
03F000
03F000
03F000
03F000
03F000
03F000
03F000
03F000
03F000
03F000
03F000
03F000
03F000
03F000
03F000
03F000
03F000
03F000
03F000
03F800
03F800
03F800
07F800
1FFE00
FFFFC0
FFFFC0
ENDCHAR
STARTCHAR 006D
ENCODING 109
SWIDTH 1078 0
DWIDTH 69 0
BBX 65 35 2 0
BITMAP
002000800000800000
03E01FFC001FFC0000
7FE07FFF007FFF0000
FFE1FFFFC1FFFF8000
FFE3C03FC3E03FC000
0FE7801FE7801FE000
07EE000FEE000FE000
07FC0007FC0007E000
03FC0007FC0007F000
03F80007F80007F000
03F80007F80007F000
03F00003F00003F000
03F00003F00003F000
03F00003F00003F000
03F00003F00003F000
03F00003F00003F000
03F00003F00003F000
03F00003F00003F000
03F00003F00003F000
03F00003F00003F000
03F00003F00003F000
03F00003F00003F000
03F00003F00003F000
03F00003F00003F000
03F00003F00003F000
03F00003F00003F000
03F00003F00003F000
03F00003F00003F000
03F00003F00003F000
03F00003F00003F000
07F80007F00007F800
07F80007F80007F800
1FFE003FFE003FFE00
FFFF80FFFF80FFFF80
FFFF80FFFF80FFFF80
ENDCHAR
STARTCHAR 006E
ENCODING 110
SWIDTH 687 0
DWIDTH 44 0
BBX 41 35 2 0
BITMAP
002000800000
03E01FFC0000
7FE0FFFF0000
FFE1FFFF8000
FFE3C03FC000
0FEF001FC000
07EE000FE000
07FC000FE000
07F8000FE000
03F80007E000
03F00007E000
03F00007E000
03F00007E000
03F00007E000
03F00007E000
03F00007E000
03F00007E000
03F00007E000
03F00007E000
03F00007E000
03F00007E000
03F00007E000
03F00007E000
03F00007E000
03F00007E000
03F00007E000
03F00007E000
03F00007E000
03F00007E000
03F00007F000
07F00007F000
07F8000FF000
1FFC003FFC00
FFFF80FFFF80
FFFF80FFFF80
ENDCHAR
STARTCHAR 006F
ENCODING 111
SWIDTH 656 0
DWIDTH 42 0
BBX 36 36 3 -1
BITMAP
0000400000
000FFF0000
007FFFC000
00FFFFF000
03FC03F800
07F001FE00
0FE0007F00
1FC0007F00
1FC0003F80
3F80001FC0
3F80001FC0
7F00000FE0
7F00000FE0
7F00000FE0
FF00000FE0
FE00000FF0
FE00000FF0
FE000007F0
FE000007F0
FE00000FF0
FE00000FF0
FF00000FE0
7F00000FE0
7F00000FE0
7F00000FE0
3F80001FC0
3F80001FC0
1FC0003F80
1FC0003F00
0FE0007E00
07F000FC00
03FC03F800
00FFFFF000
007FFFC000
000FFF0000
0000400000
ENDCHAR
STARTCHAR 0070
ENCODING 112
SWIDTH 671 0
DWIDTH 43 0
BBX 39 51 1 -16
BITMAP
0000020000
00703FF800
0FF0FFFE00
FFF1FFFF00
FFF3C07FC0
3FF7001FE0
07FE000FE0
03FC0007F0
03FC0003F8
03F80003F8
03F80001FC
03F80001FC
03F80001FE
03F80000FE
03F80000FE
03F80000FE
03F80000FE
03F80000FE
03F80000FE
03F80000FE
03F80000FE
03F80000FE
03F80000FE
03F80000FE
03F80001FC
03F80001FC
03F80001F8
03FC0003F8
03FE0007F0
03FF0007F0
03FF800FE0
03FFE03FC0
03FBFFFF00
03F9FFFE00
03F87FF000
03F8060000
03F8000000
03F8000000
03F8000000
03F8000000
03F8000000
03F8000000
03F8000000
03F8000000
03F8000000
03F8000000
03F8000000
07FC000000
3FFF800000
FFFFF00000
FFFFF00000
ENDCHAR
STARTCHAR 0071
ENCODING 113
SWIDTH 656 0
DWIDTH 42 0
BBX 40 51 3 -16
BITMAP
0000800000
001FFC0180
007FFF0380
01FFFFC380
03FC07E780
07F001F780
0FE000FF80
1FC0007F80
1F80007F80
3F80003F80
3F80003F80
7F00003F80
7F00001F80
7F00001F80
FF00001F80
FE00001F80
FE00001F80
FE00001F80
FE00001F80
FE00001F80
FE00001F80
FF00001F80
FF00001F80
7F00003F80
7F00003F80
7F80003F80
3F80003F80
3F80007F80
1FC0007F80
1FE000FF80
0FF001DF80
07FC079F80
01FFFF9F80
00FFFE1F80
003FFC1F80
0001801F80
0000001F80
0000001F80
0000001F80
0000001F80
0000001F80
0000001F80
0000001F80
0000001F80
0000001F80
0000003F80
0000003F80
0000007FC0
000003FFF0
00000FFFFF
00000FFFFF
ENDCHAR
STARTCHAR 0072
ENCODING 114
SWIDTH 484 0
DWIDTH 31 0
BBX 28 35 2 0
BITMAP
00000100
00300FE0
03F03FF0
7FF07FF0
FFF0FFF0
FFF1FFF0
0FF3C7E0
07F78080
03F70000
03FE0000
03FE0000
03FC0000
03FC0000
03F80000
03F80000
03F80000
03F80000
03F80000
03F00000
03F00000
03F00000
03F00000
03F00000
03F00000
03F00000
03F00000
03F00000
03F00000
03F00000
03F00000
07F80000
07F80000
3FFE0000
FFFF8000
FFFF8000
ENDCHAR
STARTCHAR 0073
ENCODING 115
SWIDTH 453 0
DWIDTH 29 0
BBX 22 36 4 -1
BITMAP
004000
07FC20
0FFF60
1FFFE0
3E03E0
7C01E0
7C00E0
7C00E0
FC0060
FC0060
FC0000
FE0000
7F0000
7FC000
3FF000
3FF800
1FFE00
07FF00
03FFC0
01FFE0
007FF0
001FF8
000FF8
0003FC
C001FC
C000FC
E000FC
E000FC
F000FC
F000F8
FC01F8
FE03F0
FFFFF0
C7FFC0
C3FF80
003000
ENDCHAR
STARTCHAR 0074
ENCODING 116
SWIDTH 375 0
DWIDTH 24 0
BBX 21 43 3 -1
BITMAP
00C000
01C000
01C000
03C000
03C000
07C000
0FC000
1FC000
7FC000
FFFFC0
FFFFC0
FFFFC0
1FC000
1FC000
1FC000
1FC000
1FC000
1FC000
1FC000
1FC000
1FC000
1FC000
1FC000
1FC000
1FC000
1FC000
1FC000
1FC000
1FC000
1FC000
1FC000
1FC000
1FC000
1FC000
1FC000
1FC000
0FC010
0FE038
0FE070
07FFF0
03FFE0
01FF80
001800
ENDCHAR
STARTCHAR 0075
ENCODING 117
SWIDTH 671 0
DWIDTH 43 0
BBX 40 35 1 -1
BITMAP
FFF001FFE0
FFF001FFE0
7FF000FFE0
0FF0001FE0
07F0000FE0
07F0000FE0
03F00007E0
03F00007E0
03F00007E0
03F00007E0
03F00007E0
03F00007E0
03F00007E0
03F00007E0
03F00007E0
03F00007E0
03F00007E0
03F00007E0
03F00007E0
03F0000FE0
03F0000FE0
03F0000FE0
03F0000FE0
03F0001FE0
03F8001FE0
03F8003FE0
03F8003FE0
03FC007FE0
01FC00F7E0
01FE01E7E0
00FFFFC3F0
00FFFF83FF
003FFF03FF
000FFC03FF
0000800200
ENDCHAR
STARTCHAR 0076
ENCODING 118
SWIDTH 609 0
DWIDTH 39 0
BBX 38 35 0 -1
BITMAP
FFFF807FFC
FFFF807FFC
1FFC000FF0
0FF80007E0
07F80007C0
03F80007C0
03F8000780
03FC000780
01FC000700
01FC000F00
00FE000F00
00FE001E00
00FE001E00
007F001C00
007F003C00
003F803C00
003F807800
003F807800
001FC07000
001FC0F000
000FC0E000
000FE1E000
000FE1E000
0007E3C000
0007F3C000
0003F38000
0003F78000
0003FF0000
0001FF0000
0001FF0000
0000FE0000
0000FE0000
0000FC0000
00007C0000
0000780000
ENDCHAR
STARTCHAR 0077
ENCODING 119
SWIDTH 859 0
DWIDTH 55 0
BBX 53 35 1 -1
BITMAP
FFFF801800FFF8
FFFF803800FFF8
3FFC003C003FE0
0FF0003C000FC0
07F0007C000F80
07F0007E000F00
03F000FE000F00
03F800FF000F00
03F800FF001E00
01F801FF001E00
01F801FF803C00
01FC03DF803C00
00FC03DF803C00
00FC039FC07800
00FE078FC07800
00FE070FC07000
007E0F0FE0F000
007E0F07E0F000
007F0E07F0E000
003F1E07F1E000
003F1C03F1C000
003FBC03FBC000
001FBC03FBC000
001FB801FB8000
001FF801FF8000
000FF001FF0000
000FF000FF0000
000FF000FF0000
0007E000FE0000
0007E0007E0000
0007C0007C0000
0007C0007C0000
0003C0003C0000
00038000380000
00038000380000
ENDCHAR
STARTCHAR 0078
ENCODING 120
SWIDTH 609 0
DWIDTH 39 0
BBX 37 34 1 0
BITMAP
7FFF83FFF0
7FFF83FFF0
0FFE00FFC0
07FC007F00
03FC003E00
01FC007C00
00FE007800
00FF00F000
007F01E000
003F81C000
003FC3C000
001FC78000
000FEF0000
0007FE0000
0007FE0000
0003FC0000
0001FC0000
0001FE0000
0001FE0000
0001FF0000
0003FF8000
0007BFC000
000F1FC000
001E0FE000
003C07F000
003C07F800
007803FC00
00F001FC00
01E000FE00
03E000FF00
07E000FF80
1FF001FFE0
FFFC0FFFF8
FFFC0FFFF8
ENDCHAR
STARTCHAR 0079
ENCODING 121
SWIDTH 640 0
DWIDTH 41 0
BBX 40 51 0 -17
BITMAP
FFFF803FFF
FFFF803FFF
3FFE0007FC
0FF80003F8
07F80001F0
07F80001E0
03F80003E0
03FC0003C0
01FC0003C0
01FC000780
00FE000780
00FE000780
007F000F00
007F000F00
003F001E00
003F801E00
001F801C00
001FC03C00
001FC03800
000FC07800
000FE07800
0007E07000
0007F0F000
0003F0E000
0003F1E000
0001F9C000
0001FBC000
0000FF8000
0000FF8000
00007F0000
00007F0000
00007F0000
00003E0000
00003E0000
00001C0000
00003C0000
0000380000
0000780000
0000700000
0000F00000
0000F00000
0001E00000
0003E00000
000FC00000
00FFC00000
03FF800000
07FF000000
07FF000000
07FE000000
03F8000000
0080000000
ENDCHAR
STARTCHAR 007A
ENCODING 122
SWIDTH 562 0
DWIDTH 36 0
BBX 32 34 1 0
BITMAP
0FFFFFFF
0FFFFFFE
0FFFFFFC
0FC003F8
0E0007F8
0C0007F0
1C000FE0
1C001FE0
18003FC0
00003F80
00007F00
0000FF00
0000FE00
0001FC00
0003FC00
0007F800
0007F000
000FF000
001FE000
003FC000
003F8000
007F8000
00FF0000
00FE0000
01FE0003
03FC0007
07F80007
07F00007
0FF0000E
1FE0001E
1FC000FE
3FFFFFFE
7FFFFFFE
FFFFFFFE
ENDCHAR
STARTCHAR 007B
ENCODING 123
SWIDTH 328 0
DWIDTH 21 0
BBX 17 64 2 -10
BITMAP
000F80
007F80
00FE00
01F800
03F800
03F000
03F000
03F000
03E000
03E000
03E000
03E000
03E000
03E000
03E000
03E000
03E000
03E000
03E000
03E000
03E000
03E000
03E000
03E000
07E000
07E000
07E000
07E000
07C000
0F8000
3F0000
FE0000
FC0000
3F0000
1FC000
0FC000
07E000
07E000
07E000
07E000
03E000
03E000
03E000
03E000
03E000
03E000
03E000
03E000
03E000
03E000
03E000
03E000
03E000
03E000
03E000
03E000
03E000
03F000
03F000
03F000
01F800
01FC00
007F80
001F80
ENDCHAR
STARTCHAR 007C
ENCODING 124
SWIDTH 296 0
DWIDTH 19 0
BBX 5 69 7 -16
BITMAP
F8
F8
F8
F8
F8
F8
F8
F8
F8
F8
F8
F8
F8
F8
F8
F8
F8
F8
F8
F8
F8
F8
F8
F8
F8
F8
F8
F8
F8
F8
F8
F8
F8
F8
F8
F8
F8
F8
F8
F8
F8
F8
F8
F8
F8
F8
F8
F8
F8
F8
F8
F8
F8
F8
F8
F8
F8
F8
F8
F8
F8
F8
F8
F8
F8
F8
F8
F8
F8
ENDCHAR
STARTCHAR 007D
ENCODING 125
SWIDTH 328 0
DWIDTH 21 0
BBX 17 64 3 -10
BITMAP
F80000
FF0000
7F8000
1F8000
0FC000
0FC000
07E000
07E000
07E000
07E000
07E000
07E000
07E000
07E000
07E000
07E000
07E000
07E000
07E000
07E000
07E000
07E000
07E000
07E000
07E000
07E000
03E000
03E000
03F000
01F800
00FC00
003F80
003F80
00FC00
01F800
03F000
03F000
07E000
07E000
07E000
07E000
07E000
07E000
07E000
07E000
07E000
07E000
07E000
07E000
07E000
07E000
07E000
07E000
07E000
07E000
07E000
07E000
07E000
07C000
0FC000
1FC000
3F8000
FF0000
F80000
ENDCHAR
STARTCHAR 007E
ENCODING 126
SWIDTH 546 0
DWIDTH 35 0
BBX 25 8 5 16
BITMAP
07E00180
1FFC0380
3FFF8380
3FFFFF00
7FFFFF00
707FFE00
600FFC00
E001F800
ENDCHAR
STARTCHAR 00A0
ENCODING 160
SWIDTH 281 0
DWIDTH 18 0
BBX 0 0 0 0
BITMAP
ENDCHAR
STARTCHAR 00A1
ENCODING 161
SWIDTH 312 0
DWIDTH 20 0
BBX 8 52 6 -1
BITMAP
10
7E
FE
FF
FF
FF
FF
FE
7E
10
00
00
00
00
38
38
38
38
38
38
38
38
38
3C
3C
3C
3C
3C
3C
3C
3C
3C
3C
7C
7C
7E
7E
7E
7E
7E
FE
FF
FF
FF
FF
FF
FF
FF
FF
FE
7E
10
ENDCHAR
STARTCHAR 00A2
ENCODING 162
SWIDTH 562 0
DWIDTH 36 0
BBX 30 54 3 -10
BITMAP
0001E000
0001E000
0001E000
0001E000
0001E000
0001E000
0001E000
0001E000
0001E000
0001E000
000FFF80
007FFFE0
00FFFFF0
03F9E7F8
07E1E3F8
0FC1E1F8
1FC1E1F8
1F81E070
3F81E000
3F01E000
7F01E000
7F01E000
7F01E000
7F01E000
7F01E000
FF01E000
FF01E000
FF01E000
FF01E000
FF01E000
7F01E000
7F01E000
7F01E000
7F81E000
3F81E000
3F81E000
3FC1E000
1FC1E010
0FE1E03C
0FF1E0F8
07FDE3F0
03FFFFC0
00FFFF80
003FFC00
0001E000
0001E000
0001E000
0001E000
0001E000
0001E000
0001E000
0001E000
0001E000
0001E000
ENDCHAR
STARTCHAR 00A3
ENCODING 163
SWIDTH 687 0
DWIDTH 44 0
BBX 39 52 2 -1
BITMAP
0000008000
00003FFC00
0000FFFF80
0003FFFFC0
0007E01FE0
000FC00FF0
001F8007F0
001F0003F0
003F0003F0
003F0001F0
007F0000E0
007F000000
007F000000
007F000000
007F000000
007F000000
007F000000
007F800000
007F800000
003F800000
003F800000
003FC00000
003FC00000
1FFFFFFF00
1FFFFFFF00
1FFFFFFF00
1FFFFFFF00
000FE00000
000FE00000
0007F00000
0007F00000
0007F00000
0007F00000
0003F00000
0003F00000
0003F00000
0003F00000
0003F00000
0003E00000
0003E00000
0FE3E00004
1FFBC00006
3FFFC0000E
7C7FE0003C
780FFFFFFC
F807FFFFFC
780FFFFFFC
781F7FFFF8
7FFE1FFFF0
3FF807FFE0
1FE001FFC0
0200000C00
ENDCHAR
STARTCHAR 00A4
ENCODING 164
SWIDTH 609 0
DWIDTH 39 0
BBX 31 32 4 1
BITMAP
20000008
7000000C
F81FF01E
7C7FFC3C
3FFFFF78
1FF01FF0
0FC007E0
0F8003E0
0F0001E0
1E0000F0
1C000070
3C000078
38000038
38000038
38000038
3800003C
3800003C
38000038
38000038
38000038
3C000078
1C000070
1E0000F0
0F0001E0
0F8003E0
0FC007E0
1FF83FF0
3CFFFF78
787FFC3C
F00FF01E
6000000C
00000008
ENDCHAR
STARTCHAR 00A5
ENCODING 165
SWIDTH 796 0
DWIDTH 51 0
BBX 47 50 2 0
BITMAP
FFFFF0007FFE
FFFFF0007FFE
1FFF00001FF8
0FFC000007E0
07FC000007C0
03FE000007C0
01FE00000F80
01FE00000F00
00FF00000F00
007F00001E00
007F80001C00
003FC0003C00
003FC0007800
001FE0007000
001FE000F000
000FF000E000
0007F801E000
0007F801C000
0003FC03C000
0003FC078000
0001FE070000
0001FE0F0000
0000FF0E0000
00007F9E0000
00007FBC0000
00003FF80000
007FFFFFFC00
007FFFFFFC00
007FFFFFFC00
007FFFFFFC00
00000FE00000
00000FE00000
00000FE00000
00000FE00000
00000FE00000
007FFFFFFC00
007FFFFFFC00
007FFFFFFC00
007FFFFFFC00
00000FE00000
00000FE00000
00000FE00000
00000FE00000
00000FE00000
00000FF00000
00001FF00000
00003FF80000
0003FFFF8000
0007FFFFC000
0007FFFFC000
ENDCHAR
STARTCHAR 00A6
ENCODING 166
SWIDTH 296 0
DWIDTH 19 0
BBX 5 60 7 -12
BITMAP
F8
F8
F8
F8
F8
F8
F8
F8
F8
F8
F8
F8
F8
F8
F8
F8
F8
F8
F8
F8
F8
F8
F8
F8
F8
00
00
00
00
00
00
00
00
00
00
F8
F8
F8
F8
F8
F8
F8
F8
F8
F8
F8
F8
F8
F8
F8
F8
F8
F8
F8
F8
F8
F8
F8
F8
F8
ENDCHAR
STARTCHAR 00A7
ENCODING 167
SWIDTH 562 0
DWIDTH 36 0
BBX 28 65 4 -11
BITMAP
007FE000
01FFF800
07FFFE00
0FC07F00
0F801F80
1F000F80
1E000FC0
3E001FC0
3E001FC0
3E003FC0
3E003FC0
3E001F80
3E001F80
3F000200
3F800000
1FC00000
1FF00000
1FFC0000
0FFE0000
07FF8000
03FFE000
07FFF000
0FFFFC00
1F3FFE00
3E0FFF00
7C03FF80
7801FFC0
F8007FE0
F8001FE0
F8000FF0
F80007F0
FC0003F0
FE0001F0
FF0001F0
7F8001F0
7FE000F0
3FF000F0
3FFC01E0
1FFF01E0
0FFF83C0
03FFE780
01FFFF00
00FFFE00
003FFE00
000FFF00
0003FF80
0001FFC0
00007FC0
00001FE0
3C000FE0
7E0007E0
FF0003F0
FF0003F0
FF0003F0
FF0001E0
FE0001E0
FC0003E0
F80003E0
780003C0
7C0007C0
3E001F80
1FC0FF00
0FFFFC00
03FFF800
007FC000
ENDCHAR
STARTCHAR 00A8
ENCODING 168
SWIDTH 328 0
DWIDTH 21 0
BBX 18 8 1 42
BITMAP
3C0780
7E0FC0
FE1FC0
FF1FC0
FF1FC0
7E1FC0
7E0FC0
3C0780
ENDCHAR
STARTCHAR 00A9
ENCODING 169
SWIDTH 890 0
DWIDTH 57 0
BBX 49 52 4 -1
BITMAP
00000080000000
00007FFE000000
0001FFFFC00000
0007FFFFF00000
001FC003FC0000
003F00007E0000
00FC00001F0000
01F000000F8000
03E0000003C000
07C0000001E000
0780000000F000
0F0007F0007800
1E003FFC603800
1C00FFFF603C00
3C01FE1FE01E00
3803F003E00E00
7807E001E00E00
7007C000E00F00
700FC000600700
F00F8000600700
E01F8000600780
E01F8000000380
E01F0000000380
E01F0000000380
E01F0000000380
E03F0000000380
E03F0000000380
E03F0000000380
E01F0000000380
E01F0000000380
E01F0000000380
E01F8000600780
F01F8000600700
700FC000E00700
700FC000C00F00
7807E001C00E00
3803F003801E00
3C01FE0F801C00
1C00FFFF003C00
1E003FFC003800
0F000FF0007800
0780000000F000
07C0000001E000
03E0000003C000
01F000000F8000
00FC00001F0000
003F00007E0000
001FC003FC0000
0007FFFFF00000
0001FFFFC00000
00007FFE000000
00000180000000
ENDCHAR
STARTCHAR 00AA
ENCODING 170
SWIDTH 375 0
DWIDTH 24 0
BBX 17 19 4 32
BITMAP
010000
3FF000
7CF800
707800
703800
603C00
003C00
007C00
01FC00
07BC00
1E3C00
383C00
783C00
F03C00
F07C00
F0FC00
FFBC80
7F1F00
0C0C00
ENDCHAR
STARTCHAR 00AB
ENCODING 171
SWIDTH 484 0
DWIDTH 31 0
BBX 23 20 3 7
BITMAP
002004
00700E
00F01C
01E03C
03C078
0780F0
0F81F0
1F03E0
3E07C0
7E0F80
FC1F80
7E0FC0
1F07E0
0F01E0
0780F0
03C078
01C038
00E01C
00700E
003006
ENDCHAR
STARTCHAR 00AC
ENCODING 172
SWIDTH 625 0
DWIDTH 40 0
BBX 30 16 5 7
BITMAP
FFFFFFFC
FFFFFFFC
FFFFFFFC
0000003C
0000003C
0000003C
0000003C
0000003C
0000003C
0000003C
0000003C
0000003C
0000003C
0000003C
0000003C
0000003C
ENDCHAR
STARTCHAR 00AD
ENCODING 173
SWIDTH 468 0
DWIDTH 30 0
BBX 20 5 5 16
BITMAP
FFFFF0
FFFFF0
FFFFF0
FFFFF0
FFFFF0
ENDCHAR
STARTCHAR 00AE
ENCODING 174
SWIDTH 890 0
DWIDTH 57 0
BBX 49 52 4 -1
BITMAP
00000080000000
00007FFE000000
0001FFFFC00000
0007FFFFF00000
001FC003FC0000
003F00007E0000
00FC00001F0000
01F000000F8000
03E0000003C000
07C0000001E000
0780000000F000
0F0FFFF0007800
1E0FFFFC003800
1C03F03F003C00
3C01F00F801E00
3801F00F800E00
7801F00FC00E00
7001F007C00F00
7001F007C00700
F001F00FC00700
E001F00FC00780
E001F00F800380
E001F01F800380
E001F03F000380
E001FFFC000380
E001FFF0000380
E001F7F0000380
E001F1F0000380
E001F0F8000380
E001F0FC000380
E001F07E000380
E001F03F000780
F001F01F800700
7001F00F800700
7001F00FC00F00
7801F007E00E00
3801F003F01E00
3C03F801FC1C00
1C0FFF00FE3C00
1E000000003800
0F000000007800
0780000000F000
07C0000001E000
03E0000003C000
01F000000F8000
00FC00001F0000
003F00007E0000
001FC003FC0000
0007FFFFF00000
0001FFFFC00000
00007FFE000000
00000180000000
ENDCHAR
STARTCHAR 00AF
ENCODING 175
SWIDTH 312 0
DWIDTH 20 0
BBX 18 3 1 45
BITMAP
FFFFC0
FFFFC0
FFFFC0
ENDCHAR
STARTCHAR 00B0
ENCODING 176
SWIDTH 343 0
DWIDTH 22 0
BBX 16 16 3 35
BITMAP
0080
0FF0
1FF8
381C
700E
6006
6007
C003
C003
C003
6006
6006
300C
3C3C
0FF8
07E0
ENDCHAR
STARTCHAR 00B1
ENCODING 177
SWIDTH 640 0
DWIDTH 41 0
BBX 30 39 5 6
BITMAP
00038000
00038000
00038000
00038000
00038000
00038000
00038000
00038000
00038000
00038000
00038000
00038000
00038000
FFFFFFFC
FFFFFFFC
FFFFFFFC
00038000
00038000
00038000
00038000
00038000
00038000
00038000
00038000
00038000
00038000
00038000
00038000
00038000
00038000
00000000
00000000
00000000
00000000
00000000
00000000
FFFFFFFC
FFFFFFFC
FFFFFFFC
ENDCHAR
STARTCHAR 00B2
ENCODING 178
SWIDTH 281 0
DWIDTH 18 0
BBX 14 21 2 30
BITMAP
0200
1FE0
3070
6078
6038
E038
F038
7838
7C78
1070
00F0
00E0
01C0
0380
0700
0604
0C0C
181C
7FF8
FFF8
FFF8
ENDCHAR
STARTCHAR 00B3
ENCODING 179
SWIDTH 281 0
DWIDTH 18 0
BBX 13 21 2 30
BITMAP
0200
3FE0
7070
7078
7078
7C78
1070
0070
00E0
0F80
0CE0
0070
0038
7838
7038
E038
E038
F078
70F0
3FE0
0300
ENDCHAR
STARTCHAR 00B4
ENCODING 180
SWIDTH 281 0
DWIDTH 18 0
BBX 15 10 1 42
BITMAP
001E
007E
00FE
01FE
03FC
07F0
0FC0
1F00
3C00
F000
ENDCHAR
STARTCHAR 00B5
ENCODING 181
SWIDTH 718 0
DWIDTH 46 0
BBX 40 51 3 -17
BITMAP
FFF001FFE0
FFF001FFE0
1FF0003FE0
0FF0001FE0
07F0000FE0
07F0000FE0
07F0000FE0
07F0000FE0
07F0000FE0
07F0000FE0
07F0000FE0
07F0000FE0
07F0000FE0
07F0000FE0
07F0000FE0
07F0000FE0
07F0000FE0
07F0000FE0
07F0000FE0
07F0000FE0
07F0000FE0
07F0000FE0
07F0000FE0
07F0001FE0
07F0001FE0
07F0003FE0
07F8003FE0
07F80077E0
07F800F7E0
07DC01E7E0
07DE03C7E0
07CFFF87F8
07E7FF07FF
07E3FC07FF
07E0200200
07E0000000
07E0000000
07F0000000
07F0000000
07F0000000
07F0000000
07F0000000
07F0000000
07F0000000
07F8000000
07F8000000
07F8000000
07F0000000
03F0000000
01E0000000
0040000000
ENDCHAR
STARTCHAR 00B6
ENCODING 182
SWIDTH 625 0
DWIDTH 40 0
BBX 35 60 2 -10
BITMAP
000FFFFFE0
00FFFFFFE0
03FFFFFF00
07FFF0FC00
1FFFF0F800
1FFFF0F800
3FFFF0F800
7FFFF0F000
7FFFF0F000
7FFFF0F000
FFFFF0F000
FFFFF0F000
FFFFF0F000
FFFFF0F000
FFFFF0F000
FFFFF0F000
7FFFF0F000
7FFFF0F000
7FFFF0F000
3FFFF0F000
3FFFF0F000
1FFFF0F000
0FFFF0F000
07FFF0F000
01FFF0F000
0007F0F000
0001F0F000
0001F0F000
0001F0F000
0001F0F000
0001F0F000
0001F0F000
0001F0F000
0001F0F000
0001F0F000
0001F0F000
0001F0F000
0001F0F000
0001F0F000
0001F0F000
0001F0F000
0001F0F000
0001F0F000
0001F0F000
0001F0F000
0001F0F000
0001F0F000
0001F0F000
0001F0F000
0001F0F000
0001F0F000
0001F0F000
0001F0F800
0001F0F800
0001F0F800
0001F0F800
0003F0FC00
000FF0FE00
00FFF0FFE0
00FFF0FFE0
ENDCHAR
STARTCHAR 00B7
ENCODING 183
SWIDTH 281 0
DWIDTH 18 0
BBX 8 9 5 14
BITMAP
3C
7E
FF
FF
FF
FF
FF
7E
3C
ENDCHAR
STARTCHAR 00B8
ENCODING 184
SWIDTH 234 0
DWIDTH 15 0
BBX 16 18 0 -17
BITMAP
03C0
0380
0780
0780
0700
0FC0
0FFC
1FFE
007E
003F
603F
F01F
F83F
783E
7FFE
3FFC
1FF0
0100
ENDCHAR
STARTCHAR 00B9
ENCODING 185
SWIDTH 250 0
DWIDTH 16 0
BBX 8 20 4 31
BITMAP
18
F8
38
18
18
18
18
18
18
18
18
18
18
18
18
18
18
3C
3C
FF
ENDCHAR
STARTCHAR 00BA
ENCODING 186
SWIDTH 390 0
DWIDTH 25 0
BBX 18 19 3 32
BITMAP
004000
07F800
0F3E00
1E0F00
3C0780
780780
7803C0
7803C0
F803C0
F003C0
F803C0
7803C0
7803C0
780780
380780
3C0F00
1E1E00
07FC00
01F000
ENDCHAR
STARTCHAR 00BB
ENCODING 187
SWIDTH 484 0
DWIDTH 31 0
BBX 23 20 5 7
BITMAP
400800
E01C00
700E00
380F00
3C0780
1E03C0
0F01E0
0F81F0
07C0F8
03E07C
03F07E
07E0FC
07C0F8
0F81F0
1F03E0
1E03C0
380700
700E00
E01C00
401800
ENDCHAR
STARTCHAR 00BC
ENCODING 188
SWIDTH 671 0
DWIDTH 43 0
BBX 38 51 2 0
BITMAP
0010000000
03F000001C
0070000038
0070000038
0070000070
00700000E0
00700001E0
00700001C0
0070000380
0070000780
0070000700
0070000E00
0070001C00
0070001C00
0070003800
0070007000
007000F000
007000E000
00F801C000
01FE03C000
0000038000
0000070000
00000E0000
00001E0000
00001C0000
0000380000
0000780000
0000700000
0000E00000
0001E00000
0003C00600
0003800600
0007800E00
000F000E00
000E001E00
001C003E00
003C002E00
0038006E00
0070004E00
00F0008E00
01E0018E00
01C0010E00
03C0030E60
0780060E60
0700040E60
0E0007FFE0
1E0007FFE0
3C00000E60
3800000E00
7800001E00
F000007F80
ENDCHAR
STARTCHAR 00BD
ENCODING 189
SWIDTH 671 0
DWIDTH 43 0
BBX 38 51 2 0
BITMAP
0010000000
03F000001C
0070000038
0070000038
0070000070
00700000E0
00700001E0
00700001C0
0070000380
0070000780
0070000700
0070000E00
0070001C00
0070001C00
0070003800
0070007000
007000F000
007000E000
00F801C000
01FE03C000
0000038000
0000070000
00000E0000
00001E0000
00001C0000
0000380000
0000780000
0000700000
0000E00000
0001E00000
0003C00000
0003807E00
000780FF80
000F01C3C0
000E0381C0
001C0381E0
003C0381E0
00380381E0
007003C1C0
00F001E1C0
01E00003C0
01C0000380
03C0000700
0780000E00
0700000C00
0E00001800
1E00003020
3C00006060
380001FFE0
780003FFE0
F00003FFE0
ENDCHAR
STARTCHAR 00BE
ENCODING 190
SWIDTH 671 0
DWIDTH 43 0
BBX 39 51 2 0
BITMAP
0040000000
03FC00001E
070E00001C
0607000038
0707000070
0787000070
03070000E0
00070001C0
000E0001C0
019C000380
01F0000700
000E000F00
0007000E00
0707801C00
0F87803C00
0E07803800
0E07807000
0E0780E000
0E0F01E000
07FE01C000
01F8038000
0000078000
0000070000
00000E0000
00001E0000
00003C0000
0000380000
0000700000
0000F00000
0000E00000
0001C00000
0003C00600
0003800600
0007000E00
000F000E00
001E001E00
001C003E00
0038002E00
0078006E00
007000CE00
00E0008E00
01E0018E00
03C0010E20
0380030E20
0780060E60
0F0007FFE0
0E0007FFE0
1E00000E20
3C00000F00
7800000F00
F000003FC0
ENDCHAR
STARTCHAR 00BF
ENCODING 191
SWIDTH 406 0
DWIDTH 26 0
BBX 17 52 4 -1
BITMAP
001000
007E00
00FE00
00FF00
00FF00
00FF00
00FF00
00FE00
007E00
001000
000000
000000
000000
000000
000000
000000
000000
003C00
003C00
003C00
003C00
003C00
003C00
003C00
003C00
03FC00
0FFC00
1FFC00
3FFC00
7FFC00
7FFC00
FF0000
FC0000
F80000
F00000
F00000
E00000
E00000
F00000
F00000
F00000
700000
780000
380000
3E0400
1FFF00
0FFF80
07FF80
03FF80
01FF80
007F00
000400
ENDCHAR
STARTCHAR 00C0
ENCODING 192
SWIDTH 765 0
DWIDTH 49 0
BBX 50 62 0 0
BITMAP
0000F000000000
0001FC00000000
0001FF00000000
0000FF80000000
00007FE0000000
000007F8000000
0000007E000000
00000000000000
00000000000000
00000000000000
00000000000000
00000000000000
000001C0000000
000001E0000000
000003E0000000
000003E0000000
000007F0000000
000007F0000000
000007F8000000
00000FF8000000
00000FF8000000
00000FFC000000
00001FFC000000
00001CFE000000
00003CFE000000
000038FE000000
0000387F000000
0000787F000000
0000707F000000
0000F03F800000
0000E03F800000
0000E01FC00000
0001E01FC00000
0001C01FC00000
0003C00FE00000
0003C00FE00000
0003800FF00000
00078007F00000
00070007F00000
000F0003F80000
000F0003F80000
000FFFFFFC0000
001FFFFFFC0000
001FFFFFFC0000
001C0001FE0000
003C0000FE0000
00380000FF0000
007800007F0000
007000007F0000
007000007F8000
00F000003F8000
00E000003FC000
01E000003FC000
01E000001FC000
01C000001FE000
03C000001FE000
03C000001FF000
07C000001FF800
0FE000001FFC00
7FF000007FFE00
FFFE0007FFFFC0
FFFE0007FFFFC0
ENDCHAR
STARTCHAR 00C1
ENCODING 193
SWIDTH 765 0
DWIDTH 49 0
BBX 50 62 0 0
BITMAP
00000003C00000
0000001FC00000
0000003FC00000
000000FFC00000
000003FF000000
000007F0000000
00003F00000000
00000000000000
00000000000000
00000000000000
00000000000000
00000000000000
000001C0000000
000001E0000000
000003E0000000
000003E0000000
000007F0000000
000007F0000000
000007F8000000
00000FF8000000
00000FF8000000
00001FFC000000
00001FFC000000
00001CFE000000
00003CFE000000
000038FE000000
0000387F000000
0000787F000000
0000707F800000
0000F03F800000
0000E03F800000
0000E01FC00000
0001E01FC00000
0001C01FE00000
0003C00FE00000
0003C00FE00000
0003800FF00000
00078007F00000
00070007F00000
000F0003F80000
000F0003F80000
000FFFFFFC0000
001FFFFFFC0000
001FFFFFFC0000
003C0001FE0000
003C0000FE0000
00380000FF0000
007800007F0000
007000007F0000
00F000007F8000
00F000003F8000
00E000003FC000
01E000003FC000
01E000001FE000
03C000001FE000
03C000001FF000
07C000001FF000
07C000001FF800
1FE000001FFC00
FFFE0003FFFFC0
FFFE0007FFFFC0
FFFE0007FFFFC0
ENDCHAR
STARTCHAR 00C2
ENCODING 194
SWIDTH 765 0
DWIDTH 49 0
BBX 50 62 0 0
BITMAP
00000FF8000000
00001FFC000000
00003FFE000000
00007FFF000000
0000FC1F800000
0001F007C00000
0003C001E00000
00000000000000
00000000000000
00000000000000
00000000000000
00000000000000
000001C0000000
000001E0000000
000003E0000000
000003E0000000
000007F0000000
000007F0000000
000007F8000000
00000FF8000000
00000FF8000000
00000FFC000000
00001FFC000000
00001CFE000000
00003CFE000000
000038FE000000
0000387F000000
0000787F000000
0000707F000000
0000F03F800000
0000E03F800000
0000E01FC00000
0001E01FC00000
0001C01FC00000
0003C00FE00000
0003C00FE00000
0003800FF00000
00078007F00000
00070007F00000
000F0003F80000
000F0003F80000
000FFFFFFC0000
001FFFFFFC0000
001FFFFFFC0000
001C0001FE0000
003C0000FE0000
00380000FF0000
007800007F0000
007000007F0000
007000007F8000
00F000003F8000
00E000003FC000
01E000003FC000
01E000001FC000
01C000001FE000
03C000001FE000
03C000001FF000
07C000001FF800
0FE000001FFC00
7FF000007FFE00
FFFE0007FFFFC0
FFFE0007FFFFC0
ENDCHAR
STARTCHAR 00C3
ENCODING 195
SWIDTH 765 0
DWIDTH 49 0
BBX 50 62 0 0
BITMAP
00003E00600000
00007F80600000
0000FFF0E00000
0001FFFFE00000
0003FFFFC00000
000387FF800000
000300FF800000
0003003E000000
00000000000000
00000000000000
00000000000000
00000000000000
000001C0000000
000001E0000000
000003E0000000
000003E0000000
000007F0000000
000007F0000000
000007F8000000
00000FF8000000
00000FF8000000
00001FFC000000
00001FFC000000
00001CFE000000
00003CFE000000
000038FE000000
0000387F000000
0000787F000000
0000707F800000
0000F03F800000
0000E03F800000
0000E01FC00000
0001E01FC00000
0001C01FE00000
0003C00FE00000
0003C00FE00000
0003800FF00000
00078007F00000
00070007F00000
000F0003F80000
000F0003F80000
000FFFFFFC0000
001FFFFFFC0000
001FFFFFFC0000
003C0001FE0000
003C0000FE0000
00380000FF0000
007800007F0000
007000007F0000
00F000007F8000
00F000003F8000
00E000003FC000
01E000003FC000
01E000001FE000
03C000001FE000
03C000001FF000
07C000001FF000
07C000001FF800
1FE000001FFC00
FFFE0003FFFFC0
FFFE0007FFFFC0
FFFE0007FFFFC0
ENDCHAR
STARTCHAR 00C4
ENCODING 196
SWIDTH 765 0
DWIDTH 49 0
BBX 50 62 0 0
BITMAP
00007007000000
0000F80F800000
0000FC1F800000
0001FC1FC00000
0000FC1F800000
0000F80F800000
00007007000000
00000000000000
00000000000000
00000000000000
00000000000000
00000000000000
000001C0000000
000001E0000000
000003E0000000
000003E0000000
000007F0000000
000007F0000000
000007F8000000
00000FF8000000
00000FF8000000
00000FFC000000
00001FFC000000
00001CFE000000
00003CFE000000
000038FE000000
0000387F000000
0000787F000000
0000707F000000
0000F03F800000
0000E03F800000
0000E01FC00000
0001E01FC00000
0001C01FC00000
0003C00FE00000
0003C00FE00000
0003800FF00000
00078007F00000
00070007F00000
000F0003F80000
000F0003F80000
000FFFFFFC0000
001FFFFFFC0000
001FFFFFFC0000
001C0001FE0000
003C0000FE0000
00380000FF0000
007800007F0000
007000007F0000
007000007F8000
00F000003F8000
00E000003FC000
01E000003FC000
01E000001FC000
01C000001FE000
03C000001FE000
03C000001FF000
07C000001FF800
0FE000001FFC00
7FF000007FFE00
FFFE0007FFFFC0
FFFE0007FFFFC0
ENDCHAR
STARTCHAR 00C5
ENCODING 197
SWIDTH 765 0
DWIDTH 49 0
BBX 50 62 0 0
BITMAP
000003E0000000
000007F0000000
00000630000000
00000C18000000
00000C18000000
00000630000000
000007F0000000
000003E0000000
00000000000000
00000000000000
00000000000000
00000000000000
000001C0000000
000001E0000000
000003E0000000
000003E0000000
000007F0000000
000007F0000000
000007F8000000
00000FF8000000
00000FF8000000
00000FFC000000
00001FFC000000
00001CFE000000
00003CFE000000
000038FE000000
0000387F000000
0000787F000000
0000707F000000
0000F03F800000
0000E03F800000
0000E01FC00000
0001E01FC00000
0001C01FC00000
0003C00FE00000
0003C00FE00000
0003800FF00000
00078007F00000
00070007F00000
000F0003F80000
000F0003F80000
000FFFFFFC0000
001FFFFFFC0000
001FFFFFFC0000
001C0001FE0000
003C0000FE0000
00380000FF0000
007800007F0000
007000007F0000
007000007F8000
00F000003F8000
00E000003FC000
01E000003FC000
01E000001FC000
01C000001FE000
03C000001FE000
03C000001FF000
07C000001FF800
0FE000001FFC00
7FF000007FFE00
FFFE0007FFFFC0
FFFE0007FFFFC0
ENDCHAR
STARTCHAR 00C6
ENCODING 198
SWIDTH 1046 0
DWIDTH 67 0
BBX 65 50 -1 0
BITMAP
000003FFFFFFFFFE00
000003FFFFFFFFFE00
000003FFFFFFFFFE00
0000001FFC0003FE00
0000001EFC00007E00
0000001EFC00003E00
0000003CFC00001E00
0000003CFC00001E00
00000078FC00000E00
00000070FC00000E00
000000F0FC00000E00
000000E0FC00000E00
000001E0FC00000000
000001C0FC00000000
000003C0FC00000000
00000380FC00000000
00000780FC00380000
00000700FC00380000
00000F00FC00380000
00000E00FC00780000
00001E00FC00F80000
00001C00FC0FF80000
00003C00FFFFF80000
00003800FFFFF80000
00007800FFFFF80000
0000F000FC0FF80000
0000F000FC01F80000
0001E000FC00F80000
0001E000FC00780000
0003FFFFFC00780000
0003FFFFFC00380000
0007FFFFFC00380000
00078000FC00380000
000F0000FC00380000
000F0000FC00000000
001E0000FC00000000
001E0000FC00000000
003C0000FC00000000
003C0000FC00000180
00780000FC00000180
00F00000FC00000380
00F00000FE00000380
01F00000FE00000780
01E00000FE00000780
03E00001FF00000F80
07E00001FF80003F80
0FF00003FFE000FF80
FFFF007FFFFFFFFF80
FFFF007FFFFFFFFF80
FFFF007FFFFFFFFF00
ENDCHAR
STARTCHAR 00C7
ENCODING 199
SWIDTH 796 0
DWIDTH 51 0
BBX 44 68 4 -17
BITMAP
000000800000
00007FFE00C0
0003FFFFC0C0
000FFFFFF1C0
001FF003FDC0
007FC000FFC0
00FF00003FC0
01FE00001FC0
03FC00000FC0
07F8000007C0
07F0000003C0
0FF0000003C0
1FE0000001C0
1FE0000001C0
3FC0000000C0
3FC0000000C0
3FC000000000
7F8000000000
7F8000000000
7F8000000000
FF8000000000
FF8000000000
FF8000000000
FF8000000000
FF0000000000
FF0000000000
FF0000000000
FF0000000000
FF0000000000
FF8000000000
FF8000000000
FF8000000000
FF8000000000
FF8000000000
7F8000000000
7F8000000070
7FC000000070
3FC0000000F0
3FC0000000F0
3FE0000001F0
1FE0000001F0
1FF0000003F0
0FF8000003F0
07F8000007F0
03FC00000FF0
01FF00001FF0
00FF80007EF0
007FF001FCF0
003FFFFFF070
000FFFFFC070
0001FFFF0070
00000FC00000
000007000000
000007000000
00000F000000
00000FE00000
00001FF80000
00001FFC0000
000000FE0000
0000007E0000
0000603E0000
0000F03E0000
0000F03E0000
0000F87E0000
0000FFFC0000
00007FF80000
00001FF00000
000003000000
ENDCHAR
STARTCHAR 00C8
ENCODING 200
SWIDTH 718 0
DWIDTH 46 0
BBX 41 62 3 0
BITMAP
000780000000
000FE0000000
000FF0000000
000FFC000000
0003FF000000
00003F800000
000003F00000
000000000000
000000000000
000000000000
000000000000
000000000000
7FFFFFFFFC00
7FFFFFFFFC00
7FFFFFFFFC00
07FC0007FC00
03FC0000FC00
03FC00007C00
01FC00003C00
01FC00001C00
01FC00001C00
01FC00001C00
01FC00000C00
01FC00000C00
01FC00000000
01FC00000000
01FC00000000
01FC00000000
01FC00300000
01FC00300000
01FC00700000
01FC00F00000
01FC01F00000
01FC1FF00000
01FFFFF00000
01FFFFF00000
01FFFFF00000
01FC1FF00000
01FC03F00000
01FC00F00000
01FC00F00000
01FC00700000
01FC00700000
01FC00300000
01FC00300000
01FC00300000
01FC00000000
01FC00000000
01FC00000000
01FC00000000
01FC00000380
01FC00000300
01FC00000700
01FC00000700
01FC00000F00
01FC00000F00
03FE00001F00
03FF00003F00
07FFC001FF00
FFFFFFFFFF00
FFFFFFFFFF00
FFFFFFFFFF00
ENDCHAR
STARTCHAR 00C9
ENCODING 201
SWIDTH 718 0
DWIDTH 46 0
BBX 41 62 3 0
BITMAP
0000003C0000
000000FE0000
000003FE0000
000007FE0000
00001FF80000
00007F800000
0001F8000000
000000000000
000000000000
000000000000
000000000000
000000000000
7FFFFFFFFC00
7FFFFFFFFC00
7FFFFFFFFC00
07FC0007FC00
03FC0000FC00
03FC00007C00
01FC00003C00
01FC00001C00
01FC00001C00
01FC00001C00
01FC00000C00
01FC00000C00
01FC00000000
01FC00000000
01FC00000000
01FC00000000
01FC00300000
01FC00300000
01FC00700000
01FC00F00000
01FC01F00000
01FC1FF00000
01FFFFF00000
01FFFFF00000
01FFFFF00000
01FC1FF00000
01FC03F00000
01FC00F00000
01FC00F00000
01FC00700000
01FC00700000
01FC00300000
01FC00300000
01FC00300000
01FC00000000
01FC00000000
01FC00000000
01FC00000000
01FC00000380
01FC00000300
01FC00000700
01FC00000700
01FC00000F00
01FC00000F00
03FE00001F00
03FF00003F00
07FFC001FF00
FFFFFFFFFF00
FFFFFFFFFF00
FFFFFFFFFF00
ENDCHAR
STARTCHAR 00CA
ENCODING 202
SWIDTH 718 0
DWIDTH 46 0
BBX 41 62 3 0
BITMAP
00007F800000
0000FFC00000
0001FFE00000
0003FFF00000
0007E1F80000
000F803C0000
001E000F0000
000000000000
000000000000
000000000000
000000000000
000000000000
7FFFFFFFFC00
7FFFFFFFFC00
7FFFFFFFFC00
07FC0007FC00
03FC0000FC00
03FC00007C00
01FC00003C00
01FC00001C00
01FC00001C00
01FC00001C00
01FC00000C00
01FC00000C00
01FC00000000
01FC00000000
01FC00000000
01FC00000000
01FC00300000
01FC00300000
01FC00700000
01FC00F00000
01FC01F00000
01FC1FF00000
01FFFFF00000
01FFFFF00000
01FFFFF00000
01FC1FF00000
01FC03F00000
01FC00F00000
01FC00F00000
01FC00700000
01FC00700000
01FC00300000
01FC00300000
01FC00300000
01FC00000000
01FC00000000
01FC00000000
01FC00000000
01FC00000380
01FC00000300
01FC00000700
01FC00000700
01FC00000F00
01FC00000F00
03FE00001F00
03FF00003F00
07FFC001FF00
FFFFFFFFFF00
FFFFFFFFFF00
FFFFFFFFFF00
ENDCHAR
STARTCHAR 00CB
ENCODING 203
SWIDTH 718 0
DWIDTH 46 0
BBX 41 62 3 0
BITMAP
000700700000
000F80F80000
001FC1F80000
001FC1F80000
001FC1F80000
000F80F80000
000700F00000
000000000000
000000000000
000000000000
000000000000
000000000000
7FFFFFFFFC00
7FFFFFFFFC00
7FFFFFFFFC00
07FC0007FC00
03FC0000FC00
03FC00007C00
01FC00003C00
01FC00001C00
01FC00001C00
01FC00001C00
01FC00000C00
01FC00000C00
01FC00000000
01FC00000000
01FC00000000
01FC00000000
01FC00300000
01FC00300000
01FC00700000
01FC00F00000
01FC01F00000
01FC1FF00000
01FFFFF00000
01FFFFF00000
01FFFFF00000
01FC1FF00000
01FC03F00000
01FC00F00000
01FC00F00000
01FC00700000
01FC00700000
01FC00300000
01FC00300000
01FC00300000
01FC00000000
01FC00000000
01FC00000000
01FC00000000
01FC00000380
01FC00000300
01FC00000700
01FC00000700
01FC00000F00
01FC00000F00
03FE00001F00
03FF00003F00
07FFC001FF00
FFFFFFFFFF00
FFFFFFFFFF00
FFFFFFFFFF00
ENDCHAR
STARTCHAR 00CC
ENCODING 204
SWIDTH 421 0
DWIDTH 27 0
BBX 21 62 3 0
BITMAP
7C0000
7F0000
7F8000
7FE000
1FF800
01FC00
001F80
000000
000000
000000
000000
000000
7FFFF0
7FFFF0
7FFFF0
0FFF00
03FE00
03FC00
03FC00
01FC00
01FC00
01FC00
01FC00
01FC00
01FC00
01FC00
01FC00
01FC00
01FC00
01FC00
01FC00
01FC00
01FC00
01FC00
01FC00
01FC00
01FC00
01FC00
01FC00
01FC00
01FC00
01FC00
01FC00
01FC00
01FC00
01FC00
01FC00
01FC00
01FC00
01FC00
01FC00
01FC00
01FC00
01FC00
01FC00
01FC00
03FC00
03FE00
07FE00
1FFF80
FFFFF8
FFFFF8
ENDCHAR
STARTCHAR 00CD
ENCODING 205
SWIDTH 421 0
DWIDTH 27 0
BBX 21 62 3 0
BITMAP
0001E0
0007F0
001FF0
003FE0
00FFC0
03FC00
0FC000
000000
000000
000000
000000
000000
7FFFF0
7FFFF0
7FFFF0
0FFF00
03FE00
03FC00
03FC00
01FC00
01FC00
01FC00
01FC00
01FC00
01FC00
01FC00
01FC00
01FC00
01FC00
01FC00
01FC00
01FC00
01FC00
01FC00
01FC00
01FC00
01FC00
01FC00
01FC00
01FC00
01FC00
01FC00
01FC00
01FC00
01FC00
01FC00
01FC00
01FC00
01FC00
01FC00
01FC00
01FC00
01FC00
01FC00
01FC00
01FC00
03FC00
03FE00
07FE00
1FFF80
FFFFF8
FFFFF8
ENDCHAR
STARTCHAR 00CE
ENCODING 206
SWIDTH 421 0
DWIDTH 27 0
BBX 21 62 3 0
BITMAP
03FC00
07FE00
0FFF00
1FFF80
3F0FC0
7C03E0
F00078
000000
000000
000000
000000
000000
7FFFF0
7FFFF0
7FFFF0
0FFF00
03FE00
03FC00
03FC00
01FC00
01FC00
01FC00
01FC00
01FC00
01FC00
01FC00
01FC00
01FC00
01FC00
01FC00
01FC00
01FC00
01FC00
01FC00
01FC00
01FC00
01FC00
01FC00
01FC00
01FC00
01FC00
01FC00
01FC00
01FC00
01FC00
01FC00
01FC00
01FC00
01FC00
01FC00
01FC00
01FC00
01FC00
01FC00
01FC00
01FC00
03FC00
03FE00
07FF00
FFFFF0
FFFFF8
FFFFF8
ENDCHAR
STARTCHAR 00CF
ENCODING 207
SWIDTH 421 0
DWIDTH 27 0
BBX 21 62 3 0
BITMAP
1C03C0
3E07E0
7F07E0
7F07E0
7F07E0
3E07E0
1C03C0
000000
000000
000000
000000
000000
7FFFF0
7FFFF0
7FFFF0
0FFF00
03FE00
03FC00
03FC00
01FC00
01FC00
01FC00
01FC00
01FC00
01FC00
01FC00
01FC00
01FC00
01FC00
01FC00
01FC00
01FC00
01FC00
01FC00
01FC00
01FC00
01FC00
01FC00
01FC00
01FC00
01FC00
01FC00
01FC00
01FC00
01FC00
01FC00
01FC00
01FC00
01FC00
01FC00
01FC00
01FC00
01FC00
01FC00
01FC00
01FC00
03FC00
03FE00
07FE00
1FFF80
FFFFF8
FFFFF8
ENDCHAR
STARTCHAR 00D0
ENCODING 208
SWIDTH 875 0
DWIDTH 56 0
BBX 51 50 2 0
BITMAP
3FFFFFFC000000
3FFFFFFF800000
3FFFFFFFF00000
03FE001FFC0000
01FE0001FF0000
00FE00007F8000
00FE00001FC000
00FE00000FE000
00FE000007F000
00FE000003F800
00FE000003FC00
00FE000001FE00
00FE000000FE00
00FE000000FF00
00FE000000FF00
00FE0000007F80
00FE0000007F80
00FE0000007F80
00FE0000003FC0
00FE0000003FC0
00FE0000003FC0
00FE0000003FC0
1FFFFF80003FC0
1FFFFF80003FE0
1FFFFF80003FE0
00FE0000003FE0
00FE0000003FE0
00FE0000003FE0
00FE0000003FE0
00FE0000003FC0
00FE0000003FC0
00FE0000003FC0
00FE0000003FC0
00FE0000003FC0
00FE0000007F80
00FE0000007F80
00FE0000007F00
00FE000000FF00
00FE000000FE00
00FE000001FE00
00FE000003FC00
00FE000003F800
00FE000007F000
00FF00000FE000
00FF80003FC000
01FFC000FF8000
03FFF80FFE0000
FFFFFFFFF80000
FFFFFFFFE00000
FFFFFFFE000000
ENDCHAR
STARTCHAR 00D1
ENCODING 209
SWIDTH 906 0
DWIDTH 58 0
BBX 52 63 3 -1
BITMAP
00000F801C0000
00001FF0180000
00003FFC380000
00007FFFF80000
00007FFFF00000
0000E1FFF00000
0000C03FE00000
0000C00F800000
00000000000000
00000000000000
00000000000000
00000000000000
7FFC00001FFFF0
7FFC00001FFFF0
7FFE00001FFFF0
0FFF000001FF00
03FF000000FE00
03FF8000007C00
03FFC000007C00
01FFE000007800
01FFE000007800
01FFF000007800
01FFF800007800
01EFFC00007800
01E7FC00007800
01E7FE00007800
01E3FF00007800
01E1FF80007800
01E0FF80007800
01E0FFC0007800
01E07FE0007800
01E03FE0007800
01E01FF0007800
01E01FF8007800
01E00FFC007800
01E007FC007800
01E003FE007800
01E003FF007800
01E001FF807800
01E000FF807800
01E0007FC07800
01E0003FE07800
01E0003FF07800
01E0001FF07800
01E0000FF87800
01E00007FC7800
01E00007FC7800
01E00003FE7800
01E00001FF7800
01E00000FFF800
01E00000FFF800
01E000007FF800
01E000003FF800
01E000001FF800
01E000001FF800
01E000000FF800
03E0000007F800
03F0000003F800
07F0000003F800
1FFC000001F800
FFFF800000F800
FFFF8000007800
00000000007800
ENDCHAR
STARTCHAR 00D2
ENCODING 210
SWIDTH 953 0
DWIDTH 61 0
BBX 53 64 4 -1
BITMAP
00001000000000
00007E00000000
00007F00000000
00007FC0000000
00003FF0000000
00000FF8000000
000001FE000000
0000001F800000
00000000000000
00000000000000
00000000000000
00000000000000
00000020000000
00001FFFC00000
0000FFFFF80000
0003FFFFFE0000
000FF800FF8000
003FC0003FC000
007F80000FF000
00FE000007F800
01FC000003FC00
03F8000001FE00
07F0000000FE00
0FF00000007F00
0FE00000007F80
1FE00000003F80
3FC00000003FC0
3FC00000001FE0
3F800000001FE0
7F800000001FE0
7F800000000FF0
FF800000000FF0
FF000000000FF0
FF000000000FF0
FF000000000FF8
FF000000000FF8
FF0000000007F8
FF0000000007F8
FF0000000007F8
FF0000000007F8
FF000000000FF8
FF000000000FF8
FF000000000FF8
FF000000000FF0
FF000000000FF0
7F800000000FF0
7F800000000FE0
7F800000001FE0
3FC00000001FE0
3FC00000001FC0
1FC00000003FC0
1FE00000003F80
0FE00000007F00
07F0000000FF00
03F8000000FE00
01FC000001FC00
00FE000003F800
007F00000FF000
003FC0001FC000
000FF000FF8000
0003FFFFFE0000
0000FFFFF80000
00001FFFC00000
00000060000000
ENDCHAR
STARTCHAR 00D3
ENCODING 211
SWIDTH 953 0
DWIDTH 61 0
BBX 53 64 4 -1
BITMAP
00000000400000
00000003F00000
00000007F00000
0000001FF00000
0000007FE00000
000000FF800000
000003FC000000
00000FC0000000
00000000000000
00000000000000
00000000000000
00000000000000
00000020000000
00001FFFC00000
0000FFFFF80000
0003FFFFFE0000
000FF800FF8000
003FC0003FC000
007F80000FF000
00FE000007F800
01FC000003FC00
03F8000001FE00
07F0000000FE00
0FF00000007F00
0FE00000007F80
1FE00000003F80
3FC00000003FC0
3FC00000001FE0
3F800000001FE0
7F800000001FE0
7F800000000FF0
FF800000000FF0
FF000000000FF0
FF000000000FF0
FF000000000FF8
FF000000000FF8
FF0000000007F8
FF0000000007F8
FF0000000007F8
FF0000000007F8
FF000000000FF8
FF000000000FF8
FF000000000FF8
FF000000000FF0
FF000000000FF0
7F800000000FF0
7F800000000FE0
7F800000001FE0
3FC00000001FE0
3FC00000001FC0
1FC00000003FC0
1FE00000003F80
0FE00000007F00
07F0000000FF00
03F8000000FE00
01FC000001FC00
00FE000003F800
007F00000FF000
003FC0001FC000
000FF000FF8000
0003FFFFFE0000
0000FFFFF80000
00001FFFC00000
00000060000000
ENDCHAR
STARTCHAR 00D4
ENCODING 212
SWIDTH 953 0
DWIDTH 61 0
BBX 53 64 4 -1
BITMAP
000001FC000000
000003FE000000
000007FF000000
00000FFF800000
00001F9FC00000
00003E07E00000
00007800F00000
0000E000380000
00000000000000
00000000000000
00000000000000
00000000000000
00000020000000
00001FFFC00000
0000FFFFF80000
0003FFFFFE0000
000FF800FF8000
003FC0003FC000
007F80000FF000
00FE000007F800
01FC000003FC00
03F8000001FE00
07F0000000FE00
0FF00000007F00
0FE00000007F80
1FE00000003F80
3FC00000003FC0
3FC00000001FE0
3F800000001FE0
7F800000001FE0
7F800000000FF0
FF800000000FF0
FF000000000FF0
FF000000000FF0
FF000000000FF8
FF000000000FF8
FF0000000007F8
FF0000000007F8
FF0000000007F8
FF0000000007F8
FF000000000FF8
FF000000000FF8
FF000000000FF8
FF000000000FF0
FF000000000FF0
7F800000000FF0
7F800000000FE0
7F800000001FE0
3FC00000001FE0
3FC00000001FC0
1FC00000003FC0
1FE00000003F80
0FE00000007F00
07F0000000FF00
03F8000000FE00
01FC000001FC00
00FE000003F800
007F00000FF000
003FC0001FC000
000FF000FF8000
0003FFFFFE0000
0000FFFFF80000
00001FFFC00000
00000060000000
ENDCHAR
STARTCHAR 00D5
ENCODING 213
SWIDTH 953 0
DWIDTH 61 0
BBX 53 63 4 -1
BITMAP
00000F80180000
00003FE0380000
00007FFC380000
00007FFFF00000
0000FFFFF00000
0000E1FFE00000
0000C03FC00000
0001C00F800000
00000000000000
00000000000000
00000000000000
00000020000000
00001FFFC00000
0000FFFFF80000
0003FFFFFE0000
000FF800FF8000
003FC0003FC000
007F80000FF000
00FE000007F800
01FC000003FC00
03F8000001FE00
07F0000000FE00
0FF00000007F00
0FE00000007F80
1FE00000003F80
3FC00000003FC0
3FC00000001FE0
3F800000001FE0
7F800000001FE0
7F800000000FF0
FF800000000FF0
FF000000000FF0
FF000000000FF0
FF000000000FF8
FF000000000FF8
FF0000000007F8
FF0000000007F8
FF0000000007F8
FF0000000007F8
FF000000000FF8
FF000000000FF8
FF000000000FF8
FF000000000FF0
FF000000000FF0
7F800000000FF0
7F800000000FE0
7F800000001FE0
3FC00000001FE0
3FC00000001FC0
1FC00000003FC0
1FE00000003F80
0FE00000007F00
07F0000000FF00
03F8000000FE00
01FC000001FC00
00FE000003F800
007F00000FF000
003FC0001FC000
000FF000FF8000
0003FFFFFE0000
0000FFFFF80000
00001FFFC00000
00000060000000
ENDCHAR
STARTCHAR 00D6
ENCODING 214
SWIDTH 953 0
DWIDTH 61 0
BBX 53 64 4 -1
BITMAP
00001C03C00000
00003E07E00000
00007F07E00000
00007F07E00000
00007F07E00000
00003E07E00000
00001C03C00000
00000000000000
00000000000000
00000000000000
00000000000000
00000000000000
00000020000000
00001FFFC00000
0000FFFFF80000
0003FFFFFE0000
000FF800FF8000
003FC0003FC000
007F80000FF000
00FE000007F800
01FC000003FC00
03F8000001FE00
07F0000000FE00
0FF00000007F00
0FE00000007F80
1FE00000003F80
3FC00000003FC0
3FC00000001FE0
3F800000001FE0
7F800000001FE0
7F800000000FF0
FF800000000FF0
FF000000000FF0
FF000000000FF0
FF000000000FF8
FF000000000FF8
FF0000000007F8
FF0000000007F8
FF0000000007F8
FF0000000007F8
FF000000000FF8
FF000000000FF8
FF000000000FF8
FF000000000FF0
FF000000000FF0
7F800000000FF0
7F800000000FE0
7F800000001FE0
3FC00000001FE0
3FC00000001FC0
1FC00000003FC0
1FE00000003F80
0FE00000007F00
07F0000000FF00
03F8000000FE00
01FC000001FC00
00FE000003F800
007F00000FF000
003FC0001FC000
000FF000FF8000
0003FFFFFE0000
0000FFFFF80000
00001FFFC00000
00000060000000
ENDCHAR
STARTCHAR 00D7
ENCODING 215
SWIDTH 515 0
DWIDTH 33 0
BBX 25 25 4 9
BITMAP
20000200
70000700
F8000F80
7C001F00
3E003E00
1F007C00
0F80F800
07C1F000
03E3E000
01F7C000
00FF8000
007F0000
003E0000
007F0000
00FF8000
01F7C000
03E3E000
07C1F000
0F80F800
1F007C00
3E003E00
7C001F00
F8000F80
30000700
20000200
ENDCHAR
STARTCHAR 00D8
ENCODING 216
SWIDTH 953 0
DWIDTH 61 0
BBX 53 59 4 -5
BITMAP
000000000003C0
00000000000780
00000000000F80
00000020001F00
00001FFFC01E00
0000FFFFF83C00
0003FFFFFE7C00
000FF800FF7800
003FC0003FF000
007F80001FE000
00FE000007F000
01FC000007F800
03F8000007FC00
07F000000FFE00
0FF000001FFF00
0FE000003E7F80
1FE000007C3F80
1FC00000783FC0
3FC00000F01FC0
3F800001F01FE0
7F800003E01FE0
7F800003C00FF0
7F800007800FF0
FF00000F800FF0
FF00001F000FF0
FF00003E000FF8
FF00003C000FF8
FF000078000FF8
FF0000F80007F8
FF0001F00007F8
FF0001E00007F8
FF0003C00007F8
FF000780000FF8
FF000F80000FF8
FF001F00000FF0
FF001E00000FF0
7F803C00000FF0
7F807C00000FF0
7F80F800001FE0
3F80F000001FE0
3FC1E000001FC0
1FC3C000003FC0
1FE7C000003F80
0FEF8000007F00
07FF000000FF00
07FE000000FE00
03FE000001FC00
01FE000003F800
00FF00000FF000
00FFC0001FC000
01FFF000FF8000
03E7FFFFFE0000
07C1FFFFF80000
07803FFFC00000
0F000060000000
1E000000000000
3C000000000000
7C000000000000
F8000000000000
ENDCHAR
STARTCHAR 00D9
ENCODING 217
SWIDTH 859 0
DWIDTH 55 0
BBX 51 64 2 -1
BITMAP
00000800000000
00003F00000000
00003F80000000
00003FE0000000
00001FF8000000
000007FC000000
000000FF000000
0000000FC00000
00000000000000
00000000000000
00000000000000
00000000000000
00000000000000
FFFFFC007FFFE0
FFFFFC007FFFE0
1FFFC0000FFF00
07FF000003FC00
03FF000001F800
03FE000001F800
01FE000000F800
01FE000000F800
01FE000000F000
01FE000000F000
01FE000000F000
01FE000000F000
01FE000000F000
01FE000000F000
01FE000000F000
01FE000000F000
01FE000000F000
01FE000000F000
01FE000000F000
01FE000000F000
01FE000000F000
01FE000000F000
01FE000000F000
01FE000000F000
01FE000000F000
01FE000000F000
01FE000000F000
01FE000000F000
01FE000000F000
01FE000000F000
01FE000000F000
01FE000000F000
01FE000000F000
01FE000000F000
01FE000000F000
01FE000000F000
01FE000000F000
01FE000000E000
00FE000000E000
00FF000001E000
00FF000001E000
00FF800003C000
007F800007C000
007FC000078000
003FE0001F8000
001FF8007F0000
000FFFFFFE0000
0007FFFFFC0000
0001FFFFF00000
00007FFF800000
000000E0000000
ENDCHAR
STARTCHAR 00DA
ENCODING 218
SWIDTH 859 0
DWIDTH 55 0
BBX 51 64 2 -1
BITMAP
00000000200000
00000001F80000
00000003F80000
0000000FF80000
0000001FF00000
0000007FC00000
000001FE000000
000007E0000000
00000000000000
00000000000000
00000000000000
00000000000000
00000000000000
FFFFFC007FFFE0
FFFFFC007FFFE0
1FFFC0000FFF00
07FF000003FC00
03FF000001F800
03FE000001F800
01FE000000F800
01FE000000F800
01FE000000F000
01FE000000F000
01FE000000F000
01FE000000F000
01FE000000F000
01FE000000F000
01FE000000F000
01FE000000F000
01FE000000F000
01FE000000F000
01FE000000F000
01FE000000F000
01FE000000F000
01FE000000F000
01FE000000F000
01FE000000F000
01FE000000F000
01FE000000F000
01FE000000F000
01FE000000F000
01FE000000F000
01FE000000F000
01FE000000F000
01FE000000F000
01FE000000F000
01FE000000F000
01FE000000F000
01FE000000F000
01FE000000F000
01FE000000E000
00FE000000E000
00FF000001E000
00FF000001E000
00FF800003C000
007F800007C000
007FC000078000
003FE0001F8000
001FF8007F0000
000FFFFFFE0000
0007FFFFFC0000
0001FFFFF00000
00007FFF800000
000000E0000000
ENDCHAR
STARTCHAR 00DB
ENCODING 219
SWIDTH 859 0
DWIDTH 55 0
BBX 51 64 2 -1
BITMAP
000000FE000000
000001FF000000
000003FF800000
000007FFC00000
00000FCFE00000
00001F01F00000
00003C00780000
000070001C0000
00000000000000
00000000000000
00000000000000
00000000000000
00000000000000
FFFFFC007FFFE0
FFFFFC007FFFE0
1FFFC0000FFF00
07FF000003FC00
03FF000001F800
03FE000001F800
01FE000000F800
01FE000000F800
01FE000000F000
01FE000000F000
01FE000000F000
01FE000000F000
01FE000000F000
01FE000000F000
01FE000000F000
01FE000000F000
01FE000000F000
01FE000000F000
01FE000000F000
01FE000000F000
01FE000000F000
01FE000000F000
01FE000000F000
01FE000000F000
01FE000000F000
01FE000000F000
01FE000000F000
01FE000000F000
01FE000000F000
01FE000000F000
01FE000000F000
01FE000000F000
01FE000000F000
01FE000000F000
01FE000000F000
01FE000000F000
01FE000000F000
01FE000000E000
00FE000000E000
00FF000001E000
00FF000001E000
00FF800003C000
007F800007C000
007FC000078000
003FE0001F8000
001FF8007F0000
000FFFFFFE0000
0007FFFFFC0000
0001FFFFF00000
00007FFF800000
000000E0000000
ENDCHAR
STARTCHAR 00DC
ENCODING 220
SWIDTH 859 0
DWIDTH 55 0
BBX 51 64 2 -1
BITMAP
00000E00E00000
00001F01F00000
00003F83F00000
00003F83F00000
00003F83F00000
00001F01F00000
00000E01E00000
00000000000000
00000000000000
00000000000000
00000000000000
00000000000000
00000000000000
FFFFFC007FFFE0
FFFFFC007FFFE0
1FFFC0000FFF00
07FF000003FC00
03FF000001F800
03FE000001F800
01FE000000F800
01FE000000F800
01FE000000F000
01FE000000F000
01FE000000F000
01FE000000F000
01FE000000F000
01FE000000F000
01FE000000F000
01FE000000F000
01FE000000F000
01FE000000F000
01FE000000F000
01FE000000F000
01FE000000F000
01FE000000F000
01FE000000F000
01FE000000F000
01FE000000F000
01FE000000F000
01FE000000F000
01FE000000F000
01FE000000F000
01FE000000F000
01FE000000F000
01FE000000F000
01FE000000F000
01FE000000F000
01FE000000F000
01FE000000F000
01FE000000F000
01FE000000E000
00FE000000E000
00FF000001E000
00FF000001E000
00FF800003C000
007F800007C000
007FC000078000
003FE0001F8000
001FF8007F0000
000FFFFFFE0000
0007FFFFFC0000
0001FFFFF00000
00007FFF800000
000000E0000000
ENDCHAR
STARTCHAR 00DD
ENCODING 221
SWIDTH 734 0
DWIDTH 47 0
BBX 47 62 0 0
BITMAP
000000078000
0000001FC000
0000007FC000
000000FF8000
000003FF0000
00000FF00000
00003F000000
000000000000
000000000000
000000000000
000000000000
000000000000
FFFFF0007FFE
FFFFF0007FFE
3FFF00001FF8
0FFC00000FE0
07FC000007C0
03FC00000780
03FE00000F80
01FE00000F00
00FF00001E00
00FF00001E00
007F80003C00
007F80003C00
003FC0007800
001FC0007000
001FE000F000
000FF000E000
000FF001E000
0007F803C000
0007F8038000
0003FC078000
0001FC070000
0001FE0F0000
0000FF1E0000
0000FF1E0000
00007FBC0000
00007FB80000
00003FF80000
00003FF00000
00001FF00000
00000FE00000
00000FE00000
00000FE00000
00000FE00000
00000FE00000
00000FE00000
00000FE00000
00000FE00000
00000FE00000
00000FE00000
00000FE00000
00000FE00000
00000FE00000
00000FE00000
00000FE00000
00001FE00000
00001FF00000
00003FF80000
0003FFFF8000
0007FFFFC000
0007FFFFC000
ENDCHAR
STARTCHAR 00DE
ENCODING 222
SWIDTH 703 0
DWIDTH 45 0
BBX 39 50 3 0
BITMAP
FFFFFE0000
FFFFFE0000
FFFFFE0000
07FF800000
03FE000000
03FC000000
01FC000000
01FC000000
01FC000000
01FC000000
01FC000000
01FFFFE000
01FFFFFC00
01FFFFFF00
01FC00FFC0
01FC001FE0
01FC000FF0
01FC0007F8
01FC0003FC
01FC0003FC
01FC0001FE
01FC0001FE
01FC0001FE
01FC0001FE
01FC0001FE
01FC0001FE
01FC0001FE
01FC0001FE
01FC0003FE
01FC0003FC
01FC0003FC
01FC0007FC
01FC000FF8
01FC003FF0
01FC01FFE0
01FFFFFF80
01FFFFFE00
01FFFFE000
01FC000000
01FC000000
01FC000000
01FC000000
01FC000000
01FC000000
01FC000000
03FE000000
03FF000000
0FFFC00000
FFFFFE0000
FFFFFE0000
ENDCHAR
STARTCHAR 00DF
ENCODING 223
SWIDTH 656 0
DWIDTH 42 0
BBX 37 55 2 -1
BITMAP
0001FF0000
0007FFE000
001FFFF000
003F07FC00
007C01FE00
00F800FE00
01F000FF00
01F0007F00
03F0007F80
03E0007F80
03E0007F80
07E0007F80
07E0007F80
07E0007F80
07E0007F80
07E0007F80
07E0007F00
07E0007F00
07E000FE00
07E000FE00
07E001FC00
07E007F800
07E03FC000
07E03F0000
07E03FF800
07E00FFC00
07E001FF00
07E0007F80
07E0003FC0
07E0001FC0
07E0001FE0
07E0000FE0
07E0000FF0
07E0000FF0
07E00007F0
07E00007F8
07E00007F8
07E00007F8
07E00007F8
07E00007F8
07E00007F8
07E00007F8
07E00007F8
07E00007F8
07E00007F0
07E00007F0
07E0300FF0
07E0780FE0
07E0780FC0
07F07C1FC0
0FF07C3F80
3FFC7E7F00
FFFE3FFC00
FFFE1FF800
0000010000
ENDCHAR
STARTCHAR 00E0
ENCODING 224
SWIDTH 546 0
DWIDTH 35 0
BBX 33 53 3 -1
BITMAP
03C0000000
07E0000000
07F8000000
03FC000000
01FE000000
007F000000
001F800000
0007C00000
0001E00000
0000700000
0000000000
0000000000
0000000000
0000000000
0000000000
0000000000
0000000000
0004000000
03FFF80000
0FFFFE0000
1FC0FF0000
3F803F0000
7F003F8000
7F001F8000
7F001F8000
3E001F8000
1C001FC000
00001FC000
00001FC000
00001FC000
00003FC000
0000FFC000
0003FFC000
000FDFC000
007E1FC000
01F81FC000
03F01FC000
0FC01FC000
1F801FC000
3F001FC000
7E001FC000
FE001FC000
FC001FC000
FC003FC000
FC003FC000
FE007FC000
FE00EFC000
FF01CFC100
7FFF8FE100
7FFF07FF80
3FFE07FF00
0FF803FC00
0080004000
ENDCHAR
STARTCHAR 00E1
ENCODING 225
SWIDTH 546 0
DWIDTH 35 0
BBX 33 53 3 -1
BITMAP
00001C0000
00007E0000
0000FE0000
0001FE0000
0003FC0000
0007F00000
000FC00000
003F000000
0078000000
00E0000000
0000000000
0000000000
0000000000
0000000000
0000000000
0000000000
0000000000
0004000000
03FFF80000
0FFFFE0000
1FC0FF0000
3F803F0000
7F003F8000
7F001F8000
7F001F8000
3E001F8000
1C001FC000
00001FC000
00001FC000
00001FC000
00003FC000
0000FFC000
0003FFC000
000FDFC000
007E1FC000
01F81FC000
03F01FC000
0FC01FC000
1F801FC000
3F001FC000
7E001FC000
FE001FC000
FC001FC000
FC003FC000
FC003FC000
FE007FC000
FE00EFC000
FF01CFC100
7FFF8FE100
7FFF07FF80
3FFE07FF00
0FF803FC00
0080004000
ENDCHAR
STARTCHAR 00E2
ENCODING 226
SWIDTH 546 0
DWIDTH 35 0
BBX 33 52 3 -1
BITMAP
001F800000
003FC00000
007FE00000
00FFF00000
01FFF80000
03F0FC0000
07C03E0000
0F000F0000
1C00030000
0000000000
0000000000
0000000000
0000000000
0000000000
0000000000
0000000000
0004000000
03FFF80000
0FFFFE0000
1FC0FF0000
3F803F0000
7F003F8000
7F001F8000
7F001F8000
3E001F8000
1C001FC000
00001FC000
00001FC000
00001FC000
00003FC000
0000FFC000
0003FFC000
000FDFC000
007E1FC000
01F81FC000
03F01FC000
0FC01FC000
1F801FC000
3F001FC000
7E001FC000
FE001FC000
FC001FC000
FC003FC000
FC003FC000
FE007FC000
FE00EFC000
FF01CFC100
7FFF8FE100
7FFF07FF80
3FFE07FF00
0FF803FC00
0080004000
ENDCHAR
STARTCHAR 00E3
ENCODING 227
SWIDTH 546 0
DWIDTH 35 0
BBX 33 51 3 -1
BITMAP
00F8018000
03FE038000
07FF870000
0FFFFF0000
0FFFFF0000
0C1FFE0000
1C07FC0000
1800F80000
0000000000
0000000000
0000000000
0000000000
0000000000
0000000000
0000000000
0004000000
03FFF80000
0FFFFE0000
1FC0FF0000
3F803F0000
7F003F8000
7F001F8000
7F001F8000
3E001F8000
1C001FC000
00001FC000
00001FC000
00001FC000
00003FC000
0000FFC000
0003FFC000
000FDFC000
007E1FC000
01F81FC000
03F01FC000
0FC01FC000
1F801FC000
3F001FC000
7E001FC000
FE001FC000
FC001FC000
FC003FC000
FC003FC000
FE007FC000
FE00EFC000
FF01CFC100
7FFF8FE100
7FFF07FF80
3FFE07FF00
0FF803FC00
0080004000
ENDCHAR
STARTCHAR 00E4
ENCODING 228
SWIDTH 546 0
DWIDTH 35 0
BBX 33 51 3 -1
BITMAP
01E0780000
03F0FC0000
07F0FE0000
07F0FE0000
07F0FE0000
07F0FE0000
03F0FC0000
01C0780000
0000000000
0000000000
0000000000
0000000000
0000000000
0000000000
0000000000
0004000000
03FFF80000
0FFFFE0000
1FC0FF0000
3F803F0000
7F003F8000
7F001F8000
7F001F8000
3E001F8000
1C001FC000
00001FC000
00001FC000
00001FC000
00003FC000
0000FFC000
0003FFC000
000FDFC000
007E1FC000
01F81FC000
03F01FC000
0FC01FC000
1F801FC000
3F001FC000
7E001FC000
FE001FC000
FC001FC000
FC003FC000
FC003FC000
FE007FC000
FE00EFC000
FF01CFC100
7FFF8FE100
7FFF07FF80
3FFE07FF00
0FF803FC00
0080004000
ENDCHAR
STARTCHAR 00E5
ENCODING 229
SWIDTH 546 0
DWIDTH 35 0
BBX 33 55 3 -1
BITMAP
000F800000
001FC00000
003FE00000
0078F00000
0070700000
0060700000
0060700000
0070700000
0078F00000
003FE00000
001FC00000
0007000000
0000000000
0000000000
0000000000
0000000000
0000000000
0000000000
0000000000
0004000000
03FFF80000
0FFFFE0000
1FC0FF0000
3F803F0000
7F003F8000
7F001F8000
7F001F8000
3E001F8000
1C001FC000
00001FC000
00001FC000
00001FC000
00003FC000
0000FFC000
0003FFC000
000FDFC000
007E1FC000
01F81FC000
03F01FC000
0FC01FC000
1F801FC000
3F001FC000
7E001FC000
FE001FC000
FC001FC000
FC003FC000
FC003FC000
FE007FC000
FE00EFC000
FF01CFC100
7FFF8FE100
7FFF07FF80
3FFE07FF00
0FF803FC00
0080004000
ENDCHAR
STARTCHAR 00E6
ENCODING 230
SWIDTH 859 0
DWIDTH 55 0
BBX 49 36 3 -1
BITMAP
00040000100000
03FFF803FFC000
0FFFFC0FFFF000
1FC0FF3FFFF800
3F803F7E01FC00
7F003FFC00FE00
7F001FF8007E00
7E001FF0007F00
3E001FF0003F00
08001FF0003F00
00001FE0007F00
00001FFFFFFF80
00001FFFFFFF80
00001FFFFFFF00
0000FFE0000000
0003FFE0000000
001FFFE0000000
00FF1FE0000000
03FC1FE0000000
07F01FE0000000
1FC01FE0000000
3F801FE0000000
7F001FE0000000
7E001FE0000000
FE001FF0000000
FC001FF0000000
FC003FF0000000
FC003FF8000200
FE007BF8000700
FE00F1FC000F00
FF01E1FE003E00
7FFFC0FF807C00
7FFF803FFFF000
3FFF001FFFE000
0FFC0007FF8000
00800000300000
ENDCHAR
STARTCHAR 00E7
ENCODING 231
SWIDTH 531 0
DWIDTH 34 0
BBX 29 52 3 -17
BITMAP
00004000
001FFF80
007FFFE0
01FFFFF0
03F80FF8
07E007F8
0FC003F8
1FC001F8
1F8000F0
3F800000
3F000000
7F000000
7F000000
7F000000
FF000000
FE000000
FE000000
FE000000
FE000000
FE000000
FF000000
FF000000
FF000000
7F000000
7F000000
7F800000
3F800000
3F800000
1FC00010
1FE00038
0FF000F8
07FC03F0
03FFFFE0
01FFFF80
007FFE00
00078000
00078000
00070000
000F0000
000FE000
001FF800
001FFC00
0000FE00
00007E00
00603E00
00F03E00
00F03E00
00F87E00
00FFFC00
007FF800
001FF000
00010000
ENDCHAR
STARTCHAR 00E8
ENCODING 232
SWIDTH 578 0
DWIDTH 37 0
BBX 31 53 3 -1
BITMAP
001E0000
001F8000
003FC000
001FE000
000FF000
0003F800
0000FC00
00003E00
00000F00
000001C0
00000000
00000000
00000000
00000000
00000000
00000000
00000000
00004000
000FFF00
007FFFC0
01FFFFE0
03F807F0
07E003F8
0FC001F8
1F8001FC
1F8000FC
3F0000FC
3F0001FC
7FFFFFFE
7FFFFFFE
7FFFFFFE
FF000000
FE000000
FE000000
FE000000
FE000000
FE000000
FF000000
FF000000
7F000000
7F000000
7F800000
7F800000
3F800000
3FC00008
1FE0001C
0FF0003C
0FF80078
03FE01F0
01FFFFE0
00FFFF80
001FFE00
0000C000
ENDCHAR
STARTCHAR 00E9
ENCODING 233
SWIDTH 578 0
DWIDTH 37 0
BBX 31 53 3 -1
BITMAP
000001E0
000007E0
00000FE0
00001FE0
00003FC0
00007F00
0000FC00
0001F000
0007C000
000E0000
00000000
00000000
00000000
00000000
00000000
00000000
00000000
00004000
000FFF00
007FFFC0
01FFFFE0
03F807F0
07E003F8
0FC001F8
1F8001FC
1F8000FC
3F8000FC
3F0001FE
7FFFFFFE
7FFFFFFE
7FFFFFFE
FF000000
FE000000
FE000000
FE000000
FE000000
FE000000
FF000000
FF000000
7F000000
7F000000
7F800000
7F800000
3F800000
3FC00008
1FE0001C
0FF0003C
0FF80078
03FE01F0
01FFFFE0
00FFFF80
001FFE00
0000C000
ENDCHAR
STARTCHAR 00EA
ENCODING 234
SWIDTH 578 0
DWIDTH 37 0
BBX 31 52 3 -1
BITMAP
0003F000
0007F800
000FFC00
001FFE00
003FFF00
007E1F80
00F807C0
01E001E0
01800070
00000000
00000000
00000000
00000000
00000000
00000000
00000000
00004000
000FFF00
007FFFC0
01FFFFE0
03F807F0
07E003F8
0FC001F8
1F8001FC
1F8000FC
3F0000FC
3F0001FC
7FFFFFFE
7FFFFFFE
7FFFFFFE
FF000000
FE000000
FE000000
FE000000
FE000000
FE000000
FF000000
FF000000
7F000000
7F000000
7F800000
7F800000
3F800000
3FC00008
1FE0001C
0FF0003C
0FF80078
03FE01F0
01FFFFE0
00FFFF80
001FFE00
0000C000
ENDCHAR
STARTCHAR 00EB
ENCODING 235
SWIDTH 578 0
DWIDTH 37 0
BBX 31 51 3 -1
BITMAP
003C0700
007E1F80
00FE1FC0
00FE1FC0
00FE1FC0
00FE1FC0
007E1F80
003C0700
00000000
00000000
00000000
00000000
00000000
00000000
00000000
00004000
000FFF00
007FFFC0
01FFFFE0
03F807F0
07E003F8
0FC001F8
1F8001FC
1F8000FC
3F0000FC
3F0001FC
7FFFFFFE
7FFFFFFE
7FFFFFFE
FF000000
FE000000
FE000000
FE000000
FE000000
FE000000
FF000000
FF000000
7F000000
7F000000
7F800000
7F800000
3F800000
3FC00008
1FE0001C
0FF0003C
0FF80078
03FE01F0
01FFFFE0
00FFFF80
001FFE00
0000C000
ENDCHAR
STARTCHAR 00EC
ENCODING 236
SWIDTH 343 0
DWIDTH 22 0
BBX 20 52 1 0
BITMAP
780000
FC0000
FE0000
7F0000
7F8000
1FE000
07F000
01F800
007C00
001E00
000000
000000
000000
000000
000000
000000
000000
000C00
01FC00
3FFC00
7FFC00
7FFC00
07FC00
03FC00
01FC00
01FC00
01FC00
01FC00
01FC00
01FC00
01FC00
01FC00
01FC00
01FC00
01FC00
01FC00
01FC00
01FC00
01FC00
01FC00
01FC00
01FC00
01FC00
01FC00
01FC00
01FC00
01FC00
01FC00
03FE00
0FFF00
7FFFF0
7FFFF0
ENDCHAR
STARTCHAR 00ED
ENCODING 237
SWIDTH 343 0
DWIDTH 22 0
BBX 19 52 2 0
BITMAP
0003C0
0007E0
000FE0
001FC0
003FC0
007F00
01FC00
03F000
07C000
0F0000
000000
000000
000000
000000
000000
000000
000000
001800
03F800
7FF800
FFF800
FFF800
0FF800
07F800
03F800
03F800
03F800
03F800
03F800
03F800
03F800
03F800
03F800
03F800
03F800
03F800
03F800
03F800
03F800
03F800
03F800
03F800
03F800
03F800
03F800
03F800
03F800
03F800
07FC00
7FFFC0
FFFFE0
FFFFE0
ENDCHAR
STARTCHAR 00EE
ENCODING 238
SWIDTH 343 0
DWIDTH 22 0
BBX 21 51 1 0
BITMAP
00F800
01FC00
03FE00
07FF00
0FFF80
1F8FC0
3E03E0
7800F0
F00078
000000
000000
000000
000000
000000
000000
000000
000C00
01FC00
3FFC00
7FFC00
7FFC00
07FC00
03FC00
01FC00
01FC00
01FC00
01FC00
01FC00
01FC00
01FC00
01FC00
01FC00
01FC00
01FC00
01FC00
01FC00
01FC00
01FC00
01FC00
01FC00
01FC00
01FC00
01FC00
01FC00
01FC00
01FC00
01FC00
03FE00
3FFFE0
7FFFF0
7FFFF0
ENDCHAR
STARTCHAR 00EF
ENCODING 239
SWIDTH 343 0
DWIDTH 22 0
BBX 19 50 2 0
BITMAP
3C0780
7E0FC0
7F1FC0
7F1FE0
FF1FE0
7F1FC0
7E0FC0
3C0780
000000
000000
000000
000000
000000
000000
000000
001800
03F800
7FF800
FFF800
FFF800
0FF800
07F800
03F800
03F800
03F800
03F800
03F800
03F800
03F800
03F800
03F800
03F800
03F800
03F800
03F800
03F800
03F800
03F800
03F800
03F800
03F800
03F800
03F800
03F800
03F800
03F800
07FC00
1FFE00
FFFFE0
FFFFE0
ENDCHAR
STARTCHAR 00F0
ENCODING 240
SWIDTH 640 0
DWIDTH 41 0
BBX 34 52 3 -1
BITMAP
0000001000
00E0007800
01FC00F800
007F83E000
000FEFC000
0003FF0000
0001FC0000
0001FE0000
0003FF0000
000F9F8000
003E0FC000
00FC0FE000
007007F000
004003F800
000003F800
000001FC00
000001FC00
000000FE00
000000FE00
000FF07F00
007FFC7F00
01FFFF7F00
03FC0FBF80
07F007BF80
0FE001FF80
1FC001FF80
1FC000FF80
3F8000FFC0
3F80007FC0
7F80007FC0
7F80007FC0
7F00007FC0
FF00003FC0
FF00003FC0
FF00003FC0
FF00003F80
FF00003F80
FF00003F80
7F00007F80
7F80007F00
7F80007F00
7F80007F00
3F8000FE00
3FC000FE00
1FC001FC00
0FE001F800
07F003F000
03F80FE000
01FFFFC000
00FFFF8000
001FFC0000
0000800000
ENDCHAR
STARTCHAR 00F1
ENCODING 241
SWIDTH 687 0
DWIDTH 44 0
BBX 41 50 2 0
BITMAP
0003E0060000
000FF80E0000
001FFE0E0000
001FFFFC0000
003FFFFC0000
00387FF80000
00701FF00000
006003E00000
000000000000
000000000000
000000000000
000000000000
000000000000
000000000000
000000000000
002000800000
03E01FFC0000
7FE0FFFF0000
FFE1FFFF8000
FFE3C03FC000
0FEF001FC000
07EE000FE000
07FC000FE000
07F8000FE000
03F80007E000
03F00007E000
03F00007E000
03F00007E000
03F00007E000
03F00007E000
03F00007E000
03F00007E000
03F00007E000
03F00007E000
03F00007E000
03F00007E000
03F00007E000
03F00007E000
03F00007E000
03F00007E000
03F00007E000
03F00007E000
03F00007E000
03F00007E000
03F00007F000
07F00007F000
07F8000FF000
1FFC003FFC00
FFFF80FFFF80
FFFF80FFFF80
ENDCHAR
STARTCHAR 00F2
ENCODING 242
SWIDTH 656 0
DWIDTH 42 0
BBX 36 53 3 -1
BITMAP
001E000000
001F000000
003FC00000
001FE00000
000FF00000
0003F80000
0000FC0000
00003E0000
00000F0000
0000038000
0000000000
0000000000
0000000000
0000000000
0000000000
0000000000
0000000000
0000400000
000FFF0000
007FFFC000
00FFFFF000
03FC03F800
07F001FE00
0FE0007F00
1FC0007F00
1FC0003F80
3F80001FC0
3F80001FC0
7F00000FE0
7F00000FE0
7F00000FE0
FF00000FE0
FE00000FF0
FE00000FF0
FE000007F0
FE000007F0
FE00000FF0
FE00000FF0
FF00000FE0
7F00000FE0
7F00000FE0
7F00000FE0
3F80001FC0
3F80001FC0
1FC0003F80
1FC0003F00
0FE0007E00
07F000FC00
03FC03F800
00FFFFF000
007FFFC000
000FFF0000
0000400000
ENDCHAR
STARTCHAR 00F3
ENCODING 243
SWIDTH 656 0
DWIDTH 42 0
BBX 36 53 3 -1
BITMAP
000001C000
000007E000
00000FE000
00001FE000
00003FC000
00007F0000
0001FC0000
0003E00000
0007800000
000E000000
0000000000
0000000000
0000000000
0000000000
0000000000
0000000000
0000000000
0000400000
000FFF0000
007FFFC000
00FFFFF000
03FC03F800
07F001FE00
0FE0007F00
1FC0007F00
1FC0003F80
3F80001FC0
3F80001FC0
7F00000FE0
7F00000FE0
7F00000FE0
FF00000FE0
FE00000FF0
FE00000FF0
FE000007F0
FE000007F0
FE00000FF0
FE00000FF0
FF00000FE0
7F00000FE0
7F00000FE0
7F00000FE0
3F80001FC0
3F80001FC0
1FC0003F80
1FC0003F00
0FE0007E00
07F000FC00
03FC03F800
00FFFFF000
007FFFC000
000FFF0000
0000400000
ENDCHAR
STARTCHAR 00F4
ENCODING 244
SWIDTH 656 0
DWIDTH 42 0
BBX 36 52 3 -1
BITMAP
0001F80000
0003FC0000
0007FE0000
000FFF0000
001FBF8000
003F0F8000
007C03C000
00F000E000
01C0007000
0000000000
0000000000
0000000000
0000000000
0000000000
0000000000
0000000000
0000400000
000FFF0000
007FFFC000
00FFFFF000
03FC03F800
07F001FE00
0FE0007F00
1FC0007F00
1FC0003F80
3F80001FC0
3F80001FC0
7F00000FE0
7F00000FE0
7F00000FE0
FF00000FE0
FE00000FF0
FE00000FF0
FE000007F0
FE000007F0
FE00000FF0
FE00000FF0
FF00000FE0
7F00000FE0
7F00000FE0
7F00000FE0
3F80001FC0
3F80001FC0
1FC0003F80
1FC0003F00
0FE0007E00
07F000FC00
03FC03F800
00FFFFF000
007FFFC000
000FFF0000
0000400000
ENDCHAR
STARTCHAR 00F5
ENCODING 245
SWIDTH 656 0
DWIDTH 42 0
BBX 36 51 3 -1
BITMAP
001F003000
007FC03000
00FFF87000
00FFFFE000
01FFFFE000
01C3FFC000
01807F8000
03801F0000
0000000000
0000000000
0000000000
0000000000
0000000000
0000000000
0000000000
0000400000
000FFF0000
007FFFC000
00FFFFF000
03FC03F800
07F001FE00
0FE0007F00
1FC0007F00
1FC0003F80
3F80001FC0
3F80001FC0
7F00000FE0
7F00000FE0
7F00000FE0
FF00000FE0
FE00000FF0
FE00000FF0
FE000007F0
FE000007F0
FE00000FF0
FE00000FF0
FF00000FE0
7F00000FE0
7F00000FE0
7F00000FE0
3F80001FC0
3F80001FC0
1FC0003F80
1FC0003F00
0FE0007E00
07F000FC00
03FC03F800
00FFFFF000
007FFFC000
000FFF0000
0000400000
ENDCHAR
STARTCHAR 00F6
ENCODING 246
SWIDTH 656 0
DWIDTH 42 0
BBX 36 51 3 -1
BITMAP
001C078000
003E0FC000
007F0FE000
007F1FE000
007F1FE000
007F0FE000
003E0FC000
001C078000
0000000000
0000000000
0000000000
0000000000
0000000000
0000000000
0000000000
0000400000
000FFF0000
007FFFC000
00FFFFF000
03FC03F800
07F001FE00
0FE0007F00
1FC0007F00
1FC0003F80
3F80001FC0
3F80001FC0
7F00000FE0
7F00000FE0
7F00000FE0
FF00000FE0
FE00000FF0
FE00000FF0
FE000007F0
FE000007F0
FE00000FF0
FE00000FF0
FF00000FE0
7F00000FE0
7F00000FE0
7F00000FE0
3F80001FC0
3F80001FC0
1FC0003F80
1FC0003F00
0FE0007E00
07F000FC00
03FC03F800
00FFFFF000
007FFFC000
000FFF0000
0000400000
ENDCHAR
STARTCHAR 00F7
ENCODING 247
SWIDTH 593 0
DWIDTH 38 0
BBX 30 31 4 6
BITMAP
00078000
000FE000
001FE000
001FF000
001FF000
001FE000
000FE000
00078000
00000000
00000000
00000000
00000000
00000000
00000000
FFFFFFFC
FFFFFFFC
FFFFFFFC
00000000
00000000
00000000
00000000
00000000
00000000
00078000
000FE000
001FE000
001FF000
001FF000
001FE000
000FE000
00078000
ENDCHAR
STARTCHAR 00F8
ENCODING 248
SWIDTH 656 0
DWIDTH 42 0
BBX 37 43 3 -4
BITMAP
0000000078
00000000F0
00000001F0
00000003E0
00004003C0
000FFF07C0
007FFFCF80
00FFFFFF00
03FC07FE00
07F001FE00
0FE000FE00
1FC0007F00
1F8000FF80
3F8001FF80
3F8003FFC0
7F0007DFC0
7F00078FE0
FF000F0FE0
FE001E0FE0
FE003E0FF0
FE007C0FF0
FE00780FF0
FE00F00FF0
FE01E00FF0
FE03E00FF0
FE07C00FE0
7F07800FE0
7F0F000FE0
7F1E000FE0
3F3E001FC0
3FFC001FC0
1FF8003F80
1FF0007F00
0FE0007E00
07F001FC00
07FC03F800
07FFFFF000
0F7FFFC000
1E1FFF0000
3E00400000
7C00000000
7800000000
F000000000
ENDCHAR
STARTCHAR 00F9
ENCODING 249
SWIDTH 671 0
DWIDTH 43 0
BBX 40 53 1 -1
BITMAP
001E000000
003F000000
003FC00000
001FE00000
000FF00000
0003F80000
0000FC0000
00003E0000
00000F0000
0000038000
0000000000
0000000000
0000000000
0000000000
0000000000
0000000000
0000000000
0000000000
FFF001FFE0
FFF001FFE0
7FF000FFE0
0FF0001FE0
07F0000FE0
07F0000FE0
03F00007E0
03F00007E0
03F00007E0
03F00007E0
03F00007E0
03F00007E0
03F00007E0
03F00007E0
03F00007E0
03F00007E0
03F00007E0
03F00007E0
03F00007E0
03F0000FE0
03F0000FE0
03F0000FE0
03F0000FE0
03F0001FE0
03F8001FE0
03F8003FE0
03F8003FE0
03FC007FE0
01FC00F7E0
01FE01E7E0
00FFFFC3F0
00FFFF83FF
003FFF03FF
000FFC03FF
0000800200
ENDCHAR
STARTCHAR 00FA
ENCODING 250
SWIDTH 671 0
DWIDTH 43 0
BBX 40 53 1 -1
BITMAP
000000F000
000003F000
000007F000
00000FF000
00001FE000
00003F8000
00007E0000
0001F80000
0003C00000
0007000000
0000000000
0000000000
0000000000
0000000000
0000000000
0000000000
0000000000
0000000000
FFF001FFE0
FFF001FFE0
7FF000FFE0
0FF0001FE0
07F0000FE0
07F0000FE0
03F00007E0
03F00007E0
03F00007E0
03F00007E0
03F00007E0
03F00007E0
03F00007E0
03F00007E0
03F00007E0
03F00007E0
03F00007E0
03F00007E0
03F00007E0
03F0000FE0
03F0000FE0
03F0000FE0
03F0000FE0
03F0001FE0
03F8001FE0
03F8003FE0
03F8003FE0
03FC007FE0
01FC00F7E0
01FE01E7E0
00FFFFC3F0
00FFFF83FF
003FFF03FF
000FFC03FF
0000800200
ENDCHAR
STARTCHAR 00FB
ENCODING 251
SWIDTH 671 0
DWIDTH 43 0
BBX 40 52 1 -1
BITMAP
0000FC0000
0001FE0000
0003FF0000
0007FF8000
000FFFC000
001F87E000
003E01F000
0078007800
0060001C00
0000000000
0000000000
0000000000
0000000000
0000000000
0000000000
0000000000
0000000000
FFF001FFE0
FFF001FFE0
7FF000FFE0
0FF0001FE0
07F0000FE0
07F0000FE0
03F00007E0
03F00007E0
03F00007E0
03F00007E0
03F00007E0
03F00007E0
03F00007E0
03F00007E0
03F00007E0
03F00007E0
03F00007E0
03F00007E0
03F00007E0
03F0000FE0
03F0000FE0
03F0000FE0
03F0000FE0
03F0001FE0
03F8001FE0
03F8003FE0
03F8003FE0
03FC007FE0
01FC00F7E0
01FE01E7E0
00FFFFC3F0
00FFFF83FF
003FFF03FF
000FFC03FF
0000800200
ENDCHAR
STARTCHAR 00FC
ENCODING 252
SWIDTH 671 0
DWIDTH 43 0
BBX 40 51 1 -1
BITMAP
000F01C000
001F87E000
003F87F000
003F87F000
003F87F000
003F87F000
001F87E000
000F01C000
0000000000
0000000000
0000000000
0000000000
0000000000
0000000000
0000000000
0000000000
FFF001FFE0
FFF001FFE0
7FF000FFE0
0FF0001FE0
07F0000FE0
07F0000FE0
03F00007E0
03F00007E0
03F00007E0
03F00007E0
03F00007E0
03F00007E0
03F00007E0
03F00007E0
03F00007E0
03F00007E0
03F00007E0
03F00007E0
03F00007E0
03F0000FE0
03F0000FE0
03F0000FE0
03F0000FE0
03F0001FE0
03F8001FE0
03F8003FE0
03F8003FE0
03FC007FE0
01FC00F7E0
01FE01E7E0
00FFFFC3F0
00FFFF83FF
003FFF03FF
000FFC03FF
0000800200
ENDCHAR
STARTCHAR 00FD
ENCODING 253
SWIDTH 640 0
DWIDTH 41 0
BBX 40 70 0 -17
BITMAP
0000000400
0000003E00
0000007F00
000000FF00
000001FE00
000003FC00
000007F000
00000FC000
00001F0000
00003C0000
0000700000
0000000000
0000000000
0000000000
0000000000
0000000000
0000000000
0000000000
0000000000
FFFF803FFF
FFFF803FFF
3FFE0007FC
0FF80003F8
07F80001F0
07F80001E0
03F80003E0
03FC0003C0
01FC0003C0
01FC000780
00FE000780
00FE000780
007F000F00
007F000F00
003F001E00
003F801E00
001F801C00
001FC03C00
001FC03800
000FC07800
000FE07800
0007E07000
0007F0F000
0003F0E000
0003F1E000
0001F9C000
0001FBC000
0000FF8000
0000FF8000
00007F0000
00007F0000
00007F0000
00003E0000
00003E0000
00001C0000
00003C0000
0000380000
0000780000
0000700000
0000F00000
0000F00000
0001E00000
0003E00000
000FC00000
00FFC00000
03FF800000
07FF000000
07FF000000
07FE000000
03F8000000
0080000000
ENDCHAR
STARTCHAR 00FE
ENCODING 254
SWIDTH 656 0
DWIDTH 42 0
BBX 39 69 0 -16
BITMAP
00F0000000
0FF0000000
FFF0000000
FFF0000000
1FF0000000
07F0000000
07F0000000
07F0000000
03F0000000
03F0000000
03F0000000
03F0000000
03F0000000
03F0000000
03F0000000
03F0000000
03F0000000
03F0000000
03F0020000
03F07FF000
03F0FFFC00
03F3FFFF00
03F7807F80
03FF001FC0
03FE000FE0
03FC000FF0
03F80007F0
03F80003F8
03F80003F8
03F00001FC
03F00001FC
03F00001FC
03F00001FC
03F00001FE
03F00001FE
03F00000FE
03F00000FE
03F00001FE
03F00001FE
03F00001FC
03F00001FC
03F00001FC
03F00001FC
03F80003F8
03F80003F8
03FC0007F0
03FC0007F0
03FE000FE0
03FF001FC0
03F7C07F80
03F3FFFF00
03F1FFFC00
03F07FF000
03F0020000
03F0000000
03F0000000
03F0000000
03F0000000
03F0000000
03F0000000
03F0000000
03F0000000
03F0000000
07F8000000
07F8000000
0FFC000000
3FFF800000
FFFFF00000
FFFFF00000
ENDCHAR
STARTCHAR 00FF
ENCODING 255
SWIDTH 640 0
DWIDTH 41 0
BBX 40 67 0 -17
BITMAP
0001E03C00
0003F07E00
0003F0FE00
0007F8FE00
0007F8FE00
0003F8FE00
0003F07E00
0001E03C00
0000000000
0000000000
0000000000
0000000000
0000000000
0000000000
0000000000
0000000000
FFFF803FFF
FFFF803FFF
3FFE0007FC
0FF80003F8
07F80001F0
07F80001E0
03F80003E0
03FC0003C0
01FC0003C0
01FC000780
00FE000780
00FE000780
007F000F00
007F000F00
003F001E00
003F801E00
001F801C00
001FC03C00
001FC03800
000FC07800
000FE07800
0007E07000
0007F0F000
0003F0E000
0003F1E000
0001F9C000
0001FBC000
0000FF8000
0000FF8000
00007F0000
00007F0000
00007F0000
00003E0000
00003E0000
00001C0000
00003C0000
0000380000
0000780000
0000700000
0000F00000
0000F00000
0001E00000
0003E00000
000FC00000
00FFC00000
03FF800000
07FF000000
07FF000000
07FE000000
03F8000000
0080000000
ENDCHAR
STARTCHAR 0100
ENCODING 256
SWIDTH 765 0
DWIDTH 49 0
BBX 50 60 0 0
BITMAP
0000FFFF800000
0000FFFF800000
0000FFFF800000
00000000000000
00000000000000
00000000000000
00000000000000
00000000000000
00000000000000
00000000000000
000001C0000000
000001E0000000
000003E0000000
000003E0000000
000007F0000000
000007F0000000
000007F8000000
00000FF8000000
00000FF8000000
00000FFC000000
00001FFC000000
00001CFE000000
00003CFE000000
000038FE000000
0000387F000000
0000787F000000
0000707F000000
0000F03F800000
0000E03F800000
0000E01FC00000
0001E01FC00000
0001C01FC00000
0003C00FE00000
0003C00FE00000
0003800FF00000
00078007F00000
00070007F00000
000F0003F80000
000F0003F80000
000FFFFFFC0000
001FFFFFFC0000
001FFFFFFC0000
001C0001FE0000
003C0000FE0000
00380000FF0000
007800007F0000
007000007F0000
007000007F8000
00F000003F8000
00E000003FC000
01E000003FC000
01E000001FC000
01C000001FE000
03C000001FE000
03C000001FF000
07C000001FF800
0FE000001FFC00
7FF000007FFE00
FFFE0007FFFFC0
FFFE0007FFFFC0
ENDCHAR
STARTCHAR 0101
ENCODING 257
SWIDTH 546 0
DWIDTH 35 0
BBX 33 50 3 -1
BITMAP
07FFFE0000
07FFFE0000
07FFFE0000
0000000000
0000000000
0000000000
0000000000
0000000000
0000000000
0000000000
0000000000
0000000000
0000000000
0000000000
0004000000
03FFF80000
0FFFFE0000
1FC0FF0000
3F803F0000
7F003F8000
7F001F8000
7F001F8000
3E001F8000
1C001FC000
00001FC000
00001FC000
00001FC000
00003FC000
0000FFC000
0003FFC000
000FDFC000
007E1FC000
01F81FC000
03F01FC000
0FC01FC000
1F801FC000
3F001FC000
7E001FC000
FE001FC000
FC001FC000
FC003FC000
FC003FC000
FE007FC000
FE00EFC000
FF01CFC100
7FFF8FE100
7FFF07FF80
3FFE07FF00
0FF803FC00
0080004000
ENDCHAR
STARTCHAR 0102
ENCODING 258
SWIDTH 765 0
DWIDTH 49 0
BBX 50 62 0 0
BITMAP
0000C001800000
0000E003800000
0000F80F800000
00007FFF000000
00003FFE000000
00001FFC000000
000007F0000000
00000000000000
00000000000000
00000000000000
00000000000000
00000000000000
000001C0000000
000001E0000000
000003E0000000
000003E0000000
000007F0000000
000007F0000000
000007F8000000
00000FF8000000
00000FF8000000
00000FFC000000
00001FFC000000
00001CFE000000
00003CFE000000
000038FE000000
0000387F000000
0000787F000000
0000707F000000
0000F03F800000
0000E03F800000
0000E01FC00000
0001E01FC00000
0001C01FC00000
0003C00FE00000
0003C00FE00000
0003800FF00000
00078007F00000
00070007F00000
000F0003F80000
000F0003F80000
000FFFFFFC0000
001FFFFFFC0000
001FFFFFFC0000
001C0001FE0000
003C0000FE0000
00380000FF0000
007800007F0000
007000007F0000
007000007F8000
00F000003F8000
00E000003FC000
01E000003FC000
01E000001FC000
01C000001FE000
03C000001FE000
03C000001FF000
07C000001FF800
0FE000001FFC00
7FF000007FFE00
FFFE0007FFFFC0
FFFE0007FFFFC0
ENDCHAR
STARTCHAR 0103
ENCODING 259
SWIDTH 546 0
DWIDTH 35 0
BBX 33 51 3 -1
BITMAP
07000E0000
07000E0000
03801C0000
03E07C0000
01FFF80000
00FFF00000
007FE00000
001F800000
0000000000
0000000000
0000000000
0000000000
0000000000
0000000000
0000000000
0004000000
03FFF80000
0FFFFE0000
1FC0FF0000
3F803F0000
7F003F8000
7F001F8000
7F001F8000
3E001F8000
3C001FC000
00001FC000
00001FC000
00001FC000
00001FC000
00007FC000
0003FFC000
000FDFC000
003F1FC000
00FC1FC000
03F01FC000
0FC01FC000
1F801FC000
3F001FC000
7E001FC000
7E001FC000
FC001FC000
FC003FC000
FC003FC000
FE007FC000
FE00EFC000
FF01CFC100
FFFF8FE100
7FFF07FF80
3FFE07FF00
0FF803FC00
0080004000
ENDCHAR
STARTCHAR 0104
ENCODING 260
SWIDTH 765 0
DWIDTH 49 0
BBX 50 65 0 -15
BITMAP
000001C0000000
000001E0000000
000003E0000000
000003E0000000
000007F0000000
000007F0000000
000007F8000000
00000FF8000000
00000FF8000000
00001FFC000000
00001FFC000000
00001CFE000000
00003CFE000000
000038FE000000
0000787F000000
0000787F000000
0000707F800000
0000F03F800000
0000E03F800000
0000E01FC00000
0001E01FC00000
0001C01FE00000
0003C00FE00000
0003C00FE00000
0003800FF00000
00078007F00000
00070007F80000
000F0003F80000
000F0003F80000
000FFFFFFC0000
001FFFFFFC0000
001FFFFFFE0000
003C0001FE0000
003C0000FE0000
00380000FF0000
007800007F0000
007000007F8000
00F000007F8000
00F000003F8000
00E000003FC000
01E000001FC000
01E000001FE000
03C000001FE000
03C000001FF000
07C000001FF000
0FC000001FF800
1FE000003FFE00
FFFE0007FFFFC0
FFFE0007FFFFC0
FFFE0007FFFFC0
0000000003C000
000000000F0000
000000001E0000
000000003C0000
00000000780000
00000000F80000
00000000F00000
00000001F00000
00000001F00C00
00000001F01E00
00000001F87C00
00000001FFFC00
00000000FFF800
00000000FFE000
000000003F8000
ENDCHAR
STARTCHAR 0105
ENCODING 261
SWIDTH 562 0
DWIDTH 36 0
BBX 33 50 3 -15
BITMAP
0004000000
03FFF80000
0FFFFE0000
1FC0FF0000
3F803F0000
7F003F8000
7F001F8000
7F001F8000
3E001F8000
1C001FC000
00001FC000
00001FC000
00001FC000
00003FC000
0000FFC000
0003FFC000
000FDFC000
007E1FC000
01F81FC000
03F01FC000
0FC01FC000
1F801FC000
3F001FC000
7E001FC000
FE001FC000
FC001FC000
FC003FC000
FC003FC000
FE007FC000
FE00EFC000
FF01CFC100
7FFF8FE100
7FFF0FFF80
3FFE07FF00
0FF803FC00
008003C000
00000F0000
00001E0000
00003C0000
0000780000
0000F80000
0000F00000
0001F00000
0001F00C00
0001F01E00
0001F87E00
0001FFFC00
0000FFF800
0000FFE000
00003F8000
ENDCHAR
STARTCHAR 0106
ENCODING 262
SWIDTH 796 0
DWIDTH 51 0
BBX 44 64 4 -1
BITMAP
000000008000
00000007C000
0000001FE000
0000007FC000
000000FFC000
000003FF0000
000007F00000
00003F000000
000000000000
000000000000
000000000000
000000000000
000000800000
00007FFE00C0
0003FFFFC0C0
000FFFFFF1C0
001FF003FDC0
007FC000FFC0
00FF00003FC0
01FE00001FC0
03FC00000FC0
07F8000007C0
0FF0000003C0
0FF0000003C0
1FE0000001C0
1FE0000001C0
3FC0000000C0
3FC0000000C0
7FC000000000
7F8000000000
7F8000000000
7F8000000000
FF8000000000
FF8000000000
FF8000000000
FF8000000000
FF0000000000
FF0000000000
FF0000000000
FF0000000000
FF0000000000
FF8000000000
FF8000000000
FF8000000000
FF8000000000
FF8000000000
7F8000000000
7F8000000070
7FC000000070
3FC0000000F0
3FC0000000F0
1FE0000001F0
1FE0000001F0
0FF0000003F0
0FF8000003F0
07F8000007F0
03FC00000FF0
01FF00001FF0
00FF80007EF0
003FF001FCF0
001FFFFFF070
0007FFFFC070
0000FFFE0070
000003800000
ENDCHAR
STARTCHAR 0107
ENCODING 263
SWIDTH 531 0
DWIDTH 34 0
BBX 29 53 3 -1
BITMAP
000000E0
000003F0
000007F0
00000FF0
00001FE0
00003FC0
00007E00
0000F800
0001E000
00078000
00000000
00000000
00000000
00000000
00000000
00000000
00000000
00004000
001FFF80
007FFFE0
01FFFFF0
03F80FF8
07E003F8
0FC001F8
1FC000F0
1F800000
3F800000
3F000000
7F000000
7F000000
7F000000
FF000000
FE000000
FE000000
FE000000
FE000000
FE000000
FF000000
FF000000
FF000000
7F000000
7F000000
7F800000
3F800000
3F800000
1FC00010
1FE00078
0FF000F8
07FC03F0
03FFFFC0
00FFFF00
003FFC00
00010000
ENDCHAR
STARTCHAR 0108
ENCODING 264
SWIDTH 796 0
DWIDTH 51 0
BBX 44 64 4 -1
BITMAP
000007F00000
00000FF80000
00001FFC0000
00003FFE0000
00007F3F0000
0000FC0F8000
0001E003C000
00038000E000
000000000000
000000000000
000000000000
000000000000
000000800000
00007FFE00C0
0003FFFFC0C0
000FFFFFF1C0
001FF003FDC0
007FC000FFC0
00FF00003FC0
01FE00001FC0
03FC00000FC0
07F8000007C0
0FF0000003C0
0FF0000003C0
1FE0000001C0
1FE0000001C0
3FC0000000C0
3FC0000000C0
7FC000000000
7F8000000000
7F8000000000
7F8000000000
FF8000000000
FF8000000000
FF8000000000
FF8000000000
FF0000000000
FF0000000000
FF0000000000
FF0000000000
FF0000000000
FF8000000000
FF8000000000
FF8000000000
FF8000000000
FF8000000000
7F8000000000
7F8000000070
7FC000000070
3FC0000000F0
3FC0000000F0
1FE0000001F0
1FE0000001F0
0FF0000003F0
0FF8000003F0
07F8000007F0
03FC00000FF0
01FF00001FF0
00FF80007EF0
003FF001FCF0
001FFFFFF070
0007FFFFC070
0000FFFE0070
000003800000
ENDCHAR
STARTCHAR 0109
ENCODING 265
SWIDTH 531 0
DWIDTH 34 0
BBX 29 52 3 -1
BITMAP
0003F000
0007F800
000FFC00
001FFE00
001FBF00
003E1F80
007807C0
00E001E0
01C00070
00000000
00000000
00000000
00000000
00000000
00000000
00000000
00004000
001FFF80
007FFFE0
01FFFFF0
03F80FF8
07E007F8
0FC003F8
1FC001F8
1F8000F0
3F800000
3F000000
7F000000
7F000000
7F000000
FF000000
FE000000
FE000000
FE000000
FE000000
FE000000
FF000000
FF000000
FF000000
7F000000
7F000000
7F800000
3F800000
3F800000
1FC00010
1FE00038
0FF000F8
07FC03F0
03FFFFC0
00FFFF80
003FFC00
00010000
ENDCHAR
STARTCHAR 010A
ENCODING 266
SWIDTH 796 0
DWIDTH 51 0
BBX 44 63 4 -1
BITMAP
000001C00000
000003F00000
000007F00000
000007F00000
000007F00000
000003F00000
000001E00000
000000000000
000000000000
000000000000
000000000000
000000800000
00007FFE00C0
0003FFFFC0C0
000FFFFFF1C0
001FF003FDC0
007FC000FFC0
00FF00003FC0
01FE00001FC0
03FC00000FC0
07F8000007C0
0FF0000003C0
0FF0000003C0
1FE0000001C0
1FE0000001C0
3FC0000000C0
3FC0000000C0
7FC000000000
7F8000000000
7F8000000000
7F8000000000
FF8000000000
FF8000000000
FF8000000000
FF8000000000
FF0000000000
FF0000000000
FF0000000000
FF0000000000
FF0000000000
FF8000000000
FF8000000000
FF8000000000
FF8000000000
FF8000000000
7F8000000000
7F8000000070
7FC000000070
3FC0000000F0
3FC0000000F0
1FE0000001F0
1FE0000001F0
0FF0000003F0
0FF8000003F0
07F8000007F0
03FC00000FF0
01FF00001FF0
00FF80007EF0
003FF001FCF0
001FFFFFF070
0007FFFFC070
0000FFFE0070
000003800000
ENDCHAR
STARTCHAR 010B
ENCODING 267
SWIDTH 531 0
DWIDTH 34 0
BBX 29 53 3 -1
BITMAP
0001E000
0003F000
0003F800
0007F800
0007F800
0003F800
0003F000
0001E000
00000000
00000000
00000000
00000000
00000000
00000000
00000000
00000000
00000000
00004000
001FFF80
007FFFE0
01FFFFF0
03F80FF8
07E007F8
0FC003F8
1FC001F8
1F8000F0
3F800000
3F000000
7F000000
7F000000
7F000000
FF000000
FE000000
FE000000
FE000000
FE000000
FE000000
FF000000
FF000000
FF000000
7F000000
7F000000
7F800000
3F800000
3F800000
1FC00010
1FE00038
0FF000F8
07FC03F0
03FFFFC0
00FFFF80
003FFC00
00010000
ENDCHAR
STARTCHAR 010C
ENCODING 268
SWIDTH 796 0
DWIDTH 51 0
BBX 44 64 4 -1
BITMAP
00038000E000
0001E003C000
0000F80F8000
00007F3F0000
00003FFE0000
00001FFC0000
00000FF80000
000007F00000
000000000000
000000000000
000000000000
000000000000
000000800000
00007FFE00C0
0003FFFFC0C0
000FFFFFF1C0
001FF003FDC0
007FC000FFC0
00FF00003FC0
01FE00001FC0
03FC00000FC0
07F8000007C0
0FF0000003C0
0FF0000003C0
1FE0000001C0
1FE0000001C0
3FC0000000C0
3FC0000000C0
7FC000000000
7F8000000000
7F8000000000
7F8000000000
FF8000000000
FF8000000000
FF8000000000
FF8000000000
FF0000000000
FF0000000000
FF0000000000
FF0000000000
FF0000000000
FF8000000000
FF8000000000
FF8000000000
FF8000000000
FF8000000000
7F8000000000
7F8000000070
7FC000000070
3FC0000000F0
3FC0000000F0
1FE0000001F0
1FE0000001F0
0FF0000003F0
0FF8000003F0
07F8000007F0
03FC00000FF0
01FF00001FF0
00FF80007EF0
003FF001FCF0
001FFFFFF070
0007FFFFC070
0000FFFE0070
000003800000
ENDCHAR
STARTCHAR 010D
ENCODING 269
SWIDTH 531 0
DWIDTH 34 0
BBX 29 52 3 -1
BITMAP
01C000F0
00F003C0
007C07C0
003E1F80
001FBF00
001FFE00
000FFC00
0007F800
0003F000
00000000
00000000
00000000
00000000
00000000
00000000
00000000
00004000
001FFF80
007FFFE0
01FFFFF0
03F80FF8
07E003F8
0FC001F8
1FC000F0
1F800000
3F800000
3F000000
7F000000
7F000000
7F000000
FF000000
FE000000
FE000000
FE000000
FE000000
FE000000
FF000000
FF000000
FF000000
7F000000
7F000000
7F800000
3F800000
3F800000
1FC00010
1FE00078
0FF000F8
07FC03F0
03FFFFC0
00FFFF00
003FFC00
00010000
ENDCHAR
STARTCHAR 010E
ENCODING 270
SWIDTH 890 0
DWIDTH 57 0
BBX 51 62 2 0
BITMAP
0000F000780000
00007C01E00000
00003F07C00000
00001FFF800000
00000FFF000000
000007FE000000
000003FC000000
00000000000000
00000000000000
00000000000000
00000000000000
00000000000000
3FFFFFFC000000
3FFFFFFFC00000
3FFFFFFFF00000
01FE001FFC0000
01FE0001FF0000
00FE00007F8000
00FE00001FC000
00FE00000FE000
00FE000007F000
00FE000003F800
00FE000003FC00
00FE000001FE00
00FE000000FE00
00FE000000FF00
00FE0000007F00
00FE0000007F80
00FE0000007F80
00FE0000007FC0
00FE0000003FC0
00FE0000003FC0
00FE0000003FC0
00FE0000003FC0
00FE0000003FE0
00FE0000003FE0
00FE0000003FE0
00FE0000003FE0
00FE0000003FE0
00FE0000003FE0
00FE0000003FE0
00FE0000003FE0
00FE0000003FC0
00FE0000003FC0
00FE0000003FC0
00FE0000003FC0
00FE0000007F80
00FE0000007F80
00FE0000007F80
00FE000000FF00
00FE000000FE00
00FE000001FE00
00FE000001FC00
00FE000003F800
00FE000007F800
00FF00000FE000
00FF80003FC000
01FFC000FF8000
03FFF80FFE0000
7FFFFFFFF80000
FFFFFFFFE00000
FFFFFFFE000000
ENDCHAR
STARTCHAR 010F
ENCODING 271
SWIDTH 671 0
DWIDTH 43 0
BBX 46 55 3 -1
BITMAP
000000008000
0000003F8000
000007FF8000
00000FFF8040
00000FFF81F8
0000007F83F8
0000003F83FC
0000003F83FC
0000001F81FC
0000001F809C
0000001F803C
0000001F8038
0000001F8078
0000001F80F0
0000001F83E0
0000001F8180
0000001F8000
0000001F8000
0000001F8000
0000801F8000
001FFC1F8000
007FFF1F8000
01FFFF9F8000
03F807DF8000
07E001FF8000
0FC000FF8000
1FC0007F8000
3F80003F8000
3F80003F8000
7F00003F8000
7F00003F8000
7F00001F8000
7F00001F8000
FE00001F8000
FE00001F8000
FE00001F8000
FE00001F8000
FE00001F8000
FE00001F8000
FE00001F8000
FF00001F8000
7F00001F8000
7F00003F8000
7F00003F8000
3F00003F8000
3F80003F8000
3F80007F8000
1FC0007F8000
0FE000EF8000
07F003EFC000
03F80FCFE000
01FFFF8FFE00
007FFF0FFE00
001FFC0FFE00
000080000000
ENDCHAR
STARTCHAR 0110
ENCODING 272
SWIDTH 875 0
DWIDTH 56 0
BBX 51 50 2 0
BITMAP
3FFFFFFC000000
3FFFFFFF800000
3FFFFFFFF00000
03FE001FFC0000
01FE0001FF0000
00FE00007F8000
00FE00001FC000
00FE00000FE000
00FE000007F000
00FE000003F800
00FE000003FC00
00FE000001FE00
00FE000000FE00
00FE000000FF00
00FE000000FF00
00FE0000007F80
00FE0000007F80
00FE0000007F80
00FE0000003FC0
00FE0000003FC0
00FE0000003FC0
00FE0000003FC0
1FFFFF80003FC0
1FFFFF80003FE0
1FFFFF80003FE0
00FE0000003FE0
00FE0000003FE0
00FE0000003FE0
00FE0000003FE0
00FE0000003FC0
00FE0000003FC0
00FE0000003FC0
00FE0000003FC0
00FE0000003FC0
00FE0000007F80
00FE0000007F80
00FE0000007F00
00FE000000FF00
00FE000000FE00
00FE000001FE00
00FE000003FC00
00FE000003F800
00FE000007F000
00FF00000FE000
00FF80003FC000
01FFC000FF8000
03FFF80FFE0000
FFFFFFFFF80000
FFFFFFFFE00000
FFFFFFFE000000
ENDCHAR
STARTCHAR 0111
ENCODING 273
SWIDTH 671 0
DWIDTH 43 0
BBX 39 55 3 -1
BITMAP
0000000180
0000007F80
00000FFF80
00000FFF80
00000FFF80
0000007F80
0000003F80
0000003F80
0000001F80
0000001F80
0000001F80
0000001F80
000007FFFC
000007FFFC
000007FFFC
0000001F80
0000001F80
0000001F80
0000001F80
0000801F80
001FFC1F80
007FFF1F80
01FFFF9F80
03F807DF80
07E001FF80
0FC000FF80
1FC0007F80
3F80003F80
3F80003F80
7F00003F80
7F00003F80
7F00001F80
7F00001F80
FE00001F80
FE00001F80
FE00001F80
FE00001F80
FE00001F80
FE00001F80
FE00001F80
FF00001F80
7F00001F80
7F00003F80
7F00003F80
3F00003F80
3F80003F80
3F80007F80
1FC0007F80
0FE000EF80
07F003EFC0
03F80FCFE0
01FFFF8FFE
007FFF0FFE
001FFC0FFE
0000800000
ENDCHAR
STARTCHAR 0112
ENCODING 274
SWIDTH 718 0
DWIDTH 46 0
BBX 41 60 3 0
BITMAP
0007FFFC0000
0007FFFC0000
0007FFFC0000
000000000000
000000000000
000000000000
000000000000
000000000000
000000000000
000000000000
7FFFFFFFFC00
7FFFFFFFFC00
7FFFFFFFFC00
07FC0007FC00
03FC0000FC00
03FC00007C00
01FC00003C00
01FC00001C00
01FC00001C00
01FC00001C00
01FC00000C00
01FC00000C00
01FC00000000
01FC00000000
01FC00000000
01FC00000000
01FC00300000
01FC00300000
01FC00700000
01FC00F00000
01FC01F00000
01FC1FF00000
01FFFFF00000
01FFFFF00000
01FFFFF00000
01FC1FF00000
01FC03F00000
01FC00F00000
01FC00F00000
01FC00700000
01FC00700000
01FC00300000
01FC00300000
01FC00300000
01FC00000000
01FC00000000
01FC00000000
01FC00000000
01FC00000380
01FC00000300
01FC00000700
01FC00000700
01FC00000F00
01FC00000F00
03FE00001F00
03FF00003F00
07FFC001FF00
FFFFFFFFFF00
FFFFFFFFFF00
FFFFFFFFFF00
ENDCHAR
STARTCHAR 0113
ENCODING 275
SWIDTH 578 0
DWIDTH 37 0
BBX 31 50 3 -1
BITMAP
00FFFFC0
00FFFFC0
00FFFFC0
00000000
00000000
00000000
00000000
00000000
00000000
00000000
00000000
00000000
00000000
00000000
00004000
000FFF00
007FFFC0
01FFFFE0
03F807F0
07E003F8
0FC001F8
1F8001FC
1F8000FC
3F0000FC
3F0001FC
7FFFFFFE
7FFFFFFE
7FFFFFFE
FF000000
FE000000
FE000000
FE000000
FE000000
FE000000
FF000000
FF000000
7F000000
7F000000
7F800000
7F800000
3F800000
3FC00008
1FE0001C
0FF0003C
0FF80078
03FE01F0
01FFFFE0
00FFFF80
001FFE00
0000C000
ENDCHAR
STARTCHAR 0114
ENCODING 276
SWIDTH 718 0
DWIDTH 46 0
BBX 41 62 3 0
BITMAP
000E001C0000
0007001C0000
0007C0780000
0003FFF80000
0003FFF00000
0000FFE00000
00003F800000
000000000000
000000000000
000000000000
000000000000
000000000000
7FFFFFFFFC00
7FFFFFFFFC00
7FFFFFFFFC00
07FC0007FC00
03FC0000FC00
03FC00007C00
01FC00003C00
01FC00001C00
01FC00001C00
01FC00001C00
01FC00000C00
01FC00000C00
01FC00000000
01FC00000000
01FC00000000
01FC00000000
01FC00300000
01FC00300000
01FC00700000
01FC00F00000
01FC01F00000
01FC1FF00000
01FFFFF00000
01FFFFF00000
01FFFFF00000
01FC1FF00000
01FC03F00000
01FC00F00000
01FC00F00000
01FC00700000
01FC00700000
01FC00300000
01FC00300000
01FC00300000
01FC00000000
01FC00000000
01FC00000000
01FC00000000
01FC00000380
01FC00000300
01FC00000700
01FC00000700
01FC00000F00
01FC00000F00
03FE00001F00
03FF00003F00
07FFC001FF00
FFFFFFFFFF00
FFFFFFFFFF00
FFFFFFFFFF00
ENDCHAR
STARTCHAR 0115
ENCODING 277
SWIDTH 578 0
DWIDTH 37 0
BBX 31 51 3 -1
BITMAP
00E001C0
00E001C0
00700380
007C0F80
003FFF00
001FFE00
000FFC00
0003F000
00000000
00000000
00000000
00000000
00000000
00000000
00000000
00004000
000FFF00
007FFFC0
01FFFFE0
03F807F0
07E003F8
0FC001F8
1F8001FC
1F8000FC
3F0000FC
3F0001FC
7FFFFFFE
7FFFFFFE
7FFFFFFE
FF000000
FE000000
FE000000
FE000000
FE000000
FE000000
FF000000
FF000000
7F000000
7F000000
7F800000
7F800000
3F800000
3FC00008
1FE0001C
0FF0003C
0FF80078
03FE01F0
01FFFFE0
00FFFF80
001FFE00
0000C000
ENDCHAR
STARTCHAR 0116
ENCODING 278
SWIDTH 718 0
DWIDTH 46 0
BBX 41 62 3 0
BITMAP
00003C000000
00007E000000
00007E000000
00007E000000
00007E000000
00007E000000
00003C000000
000000000000
000000000000
000000000000
000000000000
000000000000
7FFFFFFFFC00
7FFFFFFFFC00
7FFFFFFFFC00
07FC0007FC00
03FC0000FC00
03FC00007C00
01FC00003C00
01FC00001C00
01FC00001C00
01FC00001C00
01FC00000C00
01FC00000C00
01FC00000000
01FC00000000
01FC00000000
01FC00000000
01FC00300000
01FC00300000
01FC00700000
01FC00F00000
01FC01F00000
01FC1FF00000
01FFFFF00000
01FFFFF00000
01FFFFF00000
01FC1FF00000
01FC03F00000
01FC00F00000
01FC00F00000
01FC00700000
01FC00700000
01FC00300000
01FC00300000
01FC00300000
01FC00000000
01FC00000000
01FC00000000
01FC00000000
01FC00000380
01FC00000300
01FC00000700
01FC00000700
01FC00000F00
01FC00000F00
03FE00001F00
03FF00003F00
07FFC001FF00
FFFFFFFFFF00
FFFFFFFFFF00
FFFFFFFFFF00
ENDCHAR
STARTCHAR 0117
ENCODING 279
SWIDTH 578 0
DWIDTH 37 0
BBX 31 53 3 -1
BITMAP
0001E000
0003F000
0007F800
0007F800
0007F800
0007F800
0003F000
0001E000
00000000
00000000
00000000
00000000
00000000
00000000
00000000
00000000
00000000
00004000
000FFF00
007FFFC0
01FFFFE0
03F807F0
07E003F8
0FC001F8
1F8001FC
1F8000FC
3F0000FC
3F0001FC
7FFFFFFE
7FFFFFFE
7FFFFFFE
FF000000
FE000000
FE000000
FE000000
FE000000
FE000000
FF000000
FF000000
7F000000
7F000000
7F800000
7F800000
3F800000
3FC00008
1FE0001C
0FF0003C
0FF80078
03FE01F0
01FFFFE0
00FFFF80
001FFE00
0000C000
ENDCHAR
STARTCHAR 0118
ENCODING 280
SWIDTH 718 0
DWIDTH 46 0
BBX 41 65 3 -15
BITMAP
7FFFFFFFFC00
7FFFFFFFFC00
7FFFFFFFFC00
07FC0007FC00
03FC0000FC00
03FC00007C00
01FC00003C00
01FC00001C00
01FC00001C00
01FC00001C00
01FC00000C00
01FC00000C00
01FC00000000
01FC00000000
01FC00000000
01FC00000000
01FC00300000
01FC00300000
01FC00700000
01FC00F00000
01FC01F00000
01FC1FF00000
01FFFFF00000
01FFFFF00000
01FFFFF00000
01FC1FF00000
01FC03F00000
01FC00F00000
01FC00F00000
01FC00700000
01FC00700000
01FC00300000
01FC00300000
01FC00300000
01FC00000000
01FC00000000
01FC00000000
01FC00000000
01FC00000380
01FC00000300
01FC00000700
01FC00000700
01FC00000F00
01FC00000F00
01FE00001F00
03FF00003F00
03FFC001FF00
0FFFFFFFFF00
FFFFFFFFFF00
FFFFFFFFFF00
00001E000000
000078000000
0001F0000000
0003E0000000
0003C0000000
000780000000
000F80000000
000F80000000
000F80600000
000F80F00000
000FC3E00000
000FFFC00000
000FFF800000
0007FF000000
0001FC000000
ENDCHAR
STARTCHAR 0119
ENCODING 281
SWIDTH 578 0
DWIDTH 37 0
BBX 31 50 3 -15
BITMAP
00004000
000FFF00
007FFFC0
01FFFFE0
03F807F0
07E003F8
0FC001F8
1F8001FC
1F8000FC
3F0000FC
3F0001FC
7FFFFFFE
7FFFFFFE
7FFFFFFE
FF000000
FE000000
FE000000
FE000000
FE000000
FE000000
FF000000
FF000000
7F000000
7F000000
7F800000
7F800000
3F800000
3FC00008
1FE0001C
0FF0003C
0FF80078
07FE01F0
01FFFFE0
00FFFF80
001FFE00
0007C000
001F0000
003E0000
007C0000
00F80000
01F00000
01F00000
01F00000
03E00C00
03F01E00
03F87C00
01FFF800
01FFF000
00FFE000
007F0000
ENDCHAR
STARTCHAR 011A
ENCODING 282
SWIDTH 718 0
DWIDTH 46 0
BBX 41 62 3 0
BITMAP
001E000F0000
000F803C0000
0007E1F80000
0003FFF00000
0001FFE00000
0000FFC00000
00007F800000
000000000000
000000000000
000000000000
000000000000
000000000000
7FFFFFFFFC00
7FFFFFFFFC00
7FFFFFFFFC00
07FC0007FC00
03FC0000FC00
03FC00007C00
01FC00003C00
01FC00001C00
01FC00001C00
01FC00001C00
01FC00000C00
01FC00000C00
01FC00000000
01FC00000000
01FC00000000
01FC00000000
01FC00300000
01FC00300000
01FC00700000
01FC00F00000
01FC01F00000
01FC1FF00000
01FFFFF00000
01FFFFF00000
01FFFFF00000
01FC1FF00000
01FC03F00000
01FC00F00000
01FC00F00000
01FC00700000
01FC00700000
01FC00300000
01FC00300000
01FC00300000
01FC00000000
01FC00000000
01FC00000000
01FC00000000
01FC00000380
01FC00000300
01FC00000700
01FC00000700
01FC00000F00
01FC00000F00
03FE00001F00
03FF00003F00
07FFC001FF00
FFFFFFFFFF00
FFFFFFFFFF00
FFFFFFFFFF00
ENDCHAR
STARTCHAR 011B
ENCODING 283
SWIDTH 578 0
DWIDTH 37 0
BBX 31 52 3 -1
BITMAP
01800070
01E001E0
00F807C0
007E1F80
003FFF00
001FFE00
000FFC00
0007F800
0003F000
00000000
00000000
00000000
00000000
00000000
00000000
00000000
00004000
000FFF00
007FFFC0
01FFFFE0
03F807F0
07E003F8
0FC001F8
1F8001FC
1F8000FC
3F8000FC
3F0001FE
7FFFFFFE
7FFFFFFE
7FFFFFFE
FF000000
FE000000
FE000000
FE000000
FE000000
FE000000
FF000000
FF000000
7F000000
7F000000
7F800000
7F800000
3F800000
3FC00008
1FE0001C
0FF0003C
0FF80078
03FE01F0
01FFFFE0
00FFFF80
001FFE00
0000C000
ENDCHAR
STARTCHAR 011C
ENCODING 284
SWIDTH 875 0
DWIDTH 56 0
BBX 50 64 4 -1
BITMAP
000007F0000000
00000FF8000000
00001FFC000000
00003FFE000000
00007F7F000000
0000F80F800000
0001E003C00000
00038000E00000
00000000000000
00000000000000
00000000000000
00000000000000
00000080000000
00007FFE00E000
0003FFFFC0C000
000FFFFFF1C000
001FF003FDC000
007FC0007FC000
00FF00003FC000
01FE00001FC000
03FC00000FC000
07F8000007C000
0FF0000007C000
0FF0000003C000
1FE0000003C000
1FE0000003C000
3FC0000001C000
3FC0000001C000
7FC00000000000
7F800000000000
7F800000000000
7F800000000000
FF800000000000
FF800000000000
FF800000000000
FF800000000000
FF000000000000
FF000000000000
FF000000000000
FF000000000000
FF000000000000
FF800000000000
FF800000FFFFC0
FF800000FFFFC0
FF8000001FFE00
FF80000007FC00
7F80000007F800
7F80000003F800
7FC0000003F800
3FC0000003F800
3FC0000003F800
3FE0000003F800
1FE0000003F800
0FF0000003F800
0FF8000007F800
07F8000007F800
03FC00000FF800
01FF00001FF800
00FF80007F0000
007FF001F80000
001FFFFFE00000
0007FFFF800000
0000FFFE000000
00000300000000
ENDCHAR
STARTCHAR 011D
ENCODING 285
SWIDTH 593 0
DWIDTH 38 0
BBX 37 68 2 -17
BITMAP
0007F00000
000FF80000
001FFC0000
001FFE0000
003F7F0000
007C1F0000
00F0078000
01E003C000
038000E000
0000000000
0000000000
0000000000
0000000000
0000000000
0000000000
0000000000
0001000100
003FF80FF0
00FFFE1FF8
01F83FFFF8
07F01FFFF8
07E00FE0F8
0FC00FE020
0FC007E000
1FC007F000
1FC007F000
1F8007F000
1F8007F000
1F8007F000
1FC007F000
1FC007F000
1FC007E000
0FC007E000
0FE00FE000
07E00FC000
03F01F8000
01F83F0000
007FFE0000
01FFF80000
07FF000000
0FC0000000
1F00000000
1E00000000
1F00000000
1FF8000000
1FFFF80000
1FFFFFC000
0FFFFFF000
07FFFFF800
01FFFFFC00
000FFFFE00
00000FFF00
0F0000FF00
3FC0007F00
7F00003F80
7E00001F80
FC00001F80
FC00001F80
FC00001F80
FC00001F00
FC00001F00
7E00003E00
7F00007E00
3F8000FC00
0FFE3FF800
07FFFFE000
00FFFF0000
0001800000
ENDCHAR
STARTCHAR 011E
ENCODING 286
SWIDTH 875 0
DWIDTH 56 0
BBX 50 64 4 -1
BITMAP
0000C001800000
0000E001800000
0000E003800000
0000F80F800000
00007FFF000000
00003FFE000000
00001FFC000000
000007F0000000
00000000000000
00000000000000
00000000000000
00000000000000
00000080000000
00007FFE00E000
0003FFFFC0C000
000FFFFFF1C000
001FF003FDC000
007FC0007FC000
00FF00003FC000
01FE00001FC000
03FC00000FC000
07F8000007C000
0FF0000007C000
0FF0000003C000
1FE0000003C000
1FE0000003C000
3FC0000001C000
3FC0000001C000
7FC00000000000
7F800000000000
7F800000000000
7F800000000000
FF800000000000
FF800000000000
FF800000000000
FF800000000000
FF000000000000
FF000000000000
FF000000000000
FF000000000000
FF000000000000
FF800000000000
FF800000FFFFC0
FF800000FFFFC0
FF800000FFFFC0
FF8000000FFC00
7F80000007F800
7F80000003F800
7FC0000003F800
3FC0000003F800
3FC0000003F800
3FE0000003F800
1FE0000003F800
0FF0000003F800
0FF8000007F800
07F8000007F800
03FC00000FF800
01FF00001FF800
00FF80007F0000
007FF001F80000
001FFFFFE00000
0007FFFF800000
0000FFFE000000
00000300000000
ENDCHAR
STARTCHAR 011F
ENCODING 287
SWIDTH 593 0
DWIDTH 38 0
BBX 37 67 2 -17
BITMAP
01C0038000
01C0038000
00E0070000
00F81F0000
007FFE0000
003FFC0000
001FF80000
0007E00000
0000000000
0000000000
0000000000
0000000000
0000000000
0000000000
0000000000
0001000100
003FF80FF0
00FFFE1FF8
01F83FFFF8
07F01FFFF8
07E00FE0F8
0FC00FE020
0FC007E000
1FC007F000
1FC007F000
1F8007F000
1F8007F000
1F8007F000
1FC007F000
1FC007F000
1FC007E000
0FC007E000
0FE00FE000
07E00FC000
03F01F8000
01F83F0000
007FFE0000
01FFF80000
07FF000000
0FC0000000
1F00000000
1E00000000
1F00000000
1FF8000000
1FFFF80000
1FFFFFC000
0FFFFFF000
07FFFFF800
01FFFFFC00
000FFFFE00
00000FFF00
0F0000FF00
3FC0007F00
7F00003F80
7E00001F80
FC00001F80
FC00001F80
FC00001F80
FC00001F00
FC00001F00
7E00003E00
7F00007E00
3F8000FC00
0FFE3FF800
07FFFFE000
00FFFF0000
0001800000
ENDCHAR
STARTCHAR 0120
ENCODING 288
SWIDTH 875 0
DWIDTH 56 0
BBX 50 63 4 -1
BITMAP
000001C0000000
000003E0000000
000007F0000000
000007F0000000
000007F0000000
000003E0000000
000001C0000000
00000000000000
00000000000000
00000000000000
00000000000000
00000080000000
00007FFE00E000
0003FFFFC0C000
000FFFFFF1C000
001FF003FDC000
007FC0007FC000
00FF00003FC000
01FE00001FC000
03FC00000FC000
07F8000007C000
0FF0000007C000
0FF0000003C000
1FE0000003C000
1FE0000003C000
3FC0000001C000
3FC0000001C000
7FC00000000000
7F800000000000
7F800000000000
7F800000000000
FF800000000000
FF800000000000
FF800000000000
FF800000000000
FF000000000000
FF000000000000
FF000000000000
FF000000000000
FF000000000000
FF800000000000
FF800000FFFFC0
FF800000FFFFC0
FF8000001FFE00
FF80000007FC00
7F80000007F800
7F80000003F800
7FC0000003F800
3FC0000003F800
3FC0000003F800
3FE0000003F800
1FE0000003F800
0FF0000003F800
0FF8000007F800
07F8000007F800
03FC00000FF800
01FF00001FF800
00FF80007F0000
007FF001F80000
001FFFFFE00000
0007FFFF800000
0000FFFE000000
00000300000000
ENDCHAR
STARTCHAR 0121
ENCODING 289
SWIDTH 593 0
DWIDTH 38 0
BBX 37 69 2 -17
BITMAP
0003C00000
0007E00000
0007F00000
000FF00000
000FF00000
0007F00000
0007E00000
0003C00000
0000000000
0000000000
0000000000
0000000000
0000000000
0000000000
0000000000
0000000000
0000000000
0001000100
003FF80FF0
00FFFE1FF8
01F83FFFF8
07F01FFFF8
07E00FE0F8
0FC00FE020
0FC007E000
1FC007F000
1FC007F000
1F8007F000
1F8007F000
1F8007F000
1FC007F000
1FC007F000
1FC007E000
0FC007E000
0FE00FE000
07E00FC000
03F01F8000
01F83F0000
007FFE0000
01FFF80000
07FF000000
0FC0000000
1F00000000
1E00000000
1F00000000
1FF8000000
1FFFF80000
1FFFFFC000
0FFFFFF000
07FFFFF800
01FFFFFC00
000FFFFE00
00000FFF00
0F0000FF00
3FC0007F00
7F00003F80
7E00001F80
FC00001F80
FC00001F80
FC00001F80
FC00001F00
FC00001F00
7E00003E00
7F00007E00
3F8000FC00
0FFE3FF800
07FFFFE000
00FFFF0000
0001800000
ENDCHAR
STARTCHAR 0122
ENCODING 290
SWIDTH 875 0
DWIDTH 56 0
BBX 50 67 4 -16
BITMAP
00000080000000
00007FFE00E000
0003FFFFC0C000
000FFFFFF1C000
001FF003FDC000
007FC0007FC000
00FF00003FC000
01FE00001FC000
03FC00000FC000
07F8000007C000
0FF0000007C000
0FF0000003C000
1FE0000003C000
1FE0000003C000
3FC0000001C000
3FC0000001C000
7FC00000000000
7F800000000000
7F800000000000
7F800000000000
FF800000000000
FF800000000000
FF800000000000
FF800000000000
FF000000000000
FF000000000000
FF000000000000
FF000000000000
FF000000000000
FF800000000000
FF800000FFFFC0
FF800000FFFFC0
FF8000001FFE00
FF80000007FC00
7F80000007F800
7F80000003F800
7FC0000003F800
3FC0000003F800
3FC0000003F800
3FE0000003F800
1FE0000003F800
0FF0000003F800
0FF8000007F800
07F8000007F800
03FC00000FF800
01FF00001FF800
00FF80007F0000
007FF001F80000
001FFFFFE00000
0007FFFF800000
0000FFFE000000
00000300000000
00000000000000
00000000000000
00000000000000
00000780000000
00000FE0000000
00000FE0000000
00000FE0000000
00000FE0000000
000007E0000000
000000E0000000
000000E0000000
000001C0000000
00000380000000
00000F00000000
00000600000000
ENDCHAR
STARTCHAR 0123
ENCODING 291
SWIDTH 593 0
DWIDTH 38 0
BBX 37 72 2 -17
BITMAP
0000600000
0000F00000
0001C00000
0003800000
0007000000
0007000000
0007E00000
0007F00000
0007F00000
0007F00000
0007F00000
0001E00000
0000000000
0000000000
0000000000
0000000000
0000000000
0000000000
0000000000
0000000000
0001000100
003FF80FF0
00FFFE1FF8
01F83FFFF8
07F01FFFF8
07E00FE0F8
0FC00FE020
0FC007E000
1FC007F000
1FC007F000
1F8007F000
1F8007F000
1F8007F000
1FC007F000
1FC007F000
1FC007E000
0FC007E000
0FE00FE000
07E00FC000
03F01F8000
01F83F0000
007FFE0000
01FFF80000
07FF000000
0FC0000000
1F00000000
1E00000000
1F00000000
1FF8000000
1FFFF80000
1FFFFFC000
0FFFFFF000
07FFFFF800
01FFFFFC00
000FFFFE00
00000FFF00
0F0000FF00
3FC0007F00
7F00003F80
7E00001F80
FC00001F80
FC00001F80
FC00001F80
FC00001F00
FC00001F00
7E00003E00
7F00007E00
3F8000FC00
0FFE3FF800
07FFFFE000
00FFFF0000
0001800000
ENDCHAR
STARTCHAR 0124
ENCODING 292
SWIDTH 921 0
DWIDTH 59 0
BBX 53 62 3 0
BITMAP
000001FE000000
000003FF000000
000007FF800000
00000FFFC00000
00001F87E00000
00003C01F00000
0000F000780000
00000000000000
00000000000000
00000000000000
00000000000000
00000000000000
7FFFF0007FFFF8
7FFFF0007FFFF8
7FFFF0007FFFF8
07FF000007FF80
03FE000001FE00
03FC000001FE00
01FC000001FE00
01FC000001FC00
01FC000000FC00
01FC000000FC00
01FC000000FC00
01FC000000FC00
01FC000000FC00
01FC000000FC00
01FC000000FC00
01FC000000FC00
01FC000000FC00
01FC000000FC00
01FC000000FC00
01FC000000FC00
01FC000000FC00
01FC000000FC00
01FC000000FC00
01FFFFFFFFFC00
01FFFFFFFFFC00
01FFFFFFFFFC00
01FC000000FC00
01FC000000FC00
01FC000000FC00
01FC000000FC00
01FC000000FC00
01FC000000FC00
01FC000000FC00
01FC000000FC00
01FC000000FC00
01FC000000FC00
01FC000000FC00
01FC000000FC00
01FC000000FC00
01FC000000FC00
01FC000000FC00
01FC000000FC00
01FC000001FC00
01FC000001FC00
01FC000001FE00
03FC000001FE00
03FE000003FF00
0FFF80000FFFC0
FFFFF8007FFFF8
FFFFF8007FFFF8
ENDCHAR
STARTCHAR 0125
ENCODING 293
SWIDTH 687 0
DWIDTH 44 0
BBX 42 54 1 0
BITMAP
001000000000
03F000000000
7FF000000000
FFF007E00000
FFF00FE00000
0FF01FF00000
07F03FF80000
03F07FFC0000
03F0FC7E0000
03F1F01F0000
03F1E0078000
03F78003C000
03F000000000
03F000000000
03F000000000
03F000000000
03F000000000
03F000000000
03F000000000
03F000800000
03F01FFC0000
03F07FFF0000
03F1FFFFC000
03F3E03FC000
03F7801FE000
03FF000FE000
03FE0007F000
03FC0007F000
03F80007F000
03F80007F000
03F80003F000
03F00003F000
03F00003F000
03F00003F000
03F00003F000
03F00003F000
03F00003F000
03F00003F000
03F00003F000
03F00003F000
03F00003F000
03F00003F000
03F00003F000
03F00003F000
03F00003F000
03F00003F000
03F00003F000
03F00003F000
03F00003F000
03F80007F800
07F80007F800
1FFE003FFE00
7FFFC07FFFC0
7FFFC07FFFC0
ENDCHAR
STARTCHAR 0126
ENCODING 294
SWIDTH 921 0
DWIDTH 59 0
BBX 53 50 3 0
BITMAP
7FFFF0007FFFF8
7FFFF0007FFFF8
7FFFF0007FFFF8
07FF000003FF80
03FE000001FE00
03FC000001FE00
01FC000001FE00
01FC000000FC00
01FC000000FC00
01FC000000FC00
01FC000000FC00
01FC000000FC00
3FFFFFFFFFFFE0
3FFFFFFFFFFFE0
3FFFFFFFFFFFE0
01FC000000FC00
01FC000000FC00
01FC000000FC00
01FC000000FC00
01FC000000FC00
01FC000000FC00
01FC000000FC00
01FC000000FC00
01FFFFFFFFFC00
01FFFFFFFFFC00
01FFFFFFFFFC00
01FC000000FC00
01FC000000FC00
01FC000000FC00
01FC000000FC00
01FC000000FC00
01FC000000FC00
01FC000000FC00
01FC000000FC00
01FC000000FC00
01FC000000FC00
01FC000000FC00
01FC000000FC00
01FC000000FC00
01FC000000FC00
01FC000000FC00
01FC000000FC00
01FC000000FE00
01FC000001FE00
01FC000001FE00
03FC000001FE00
03FE000003FF00
0FFF80000FFFC0
FFFFF8007FFFF8
FFFFF8007FFFF8
ENDCHAR
STARTCHAR 0127
ENCODING 295
SWIDTH 687 0
DWIDTH 44 0
BBX 42 54 1 0
BITMAP
001000000000
01F000000000
3FF000000000
FFF000000000
FFF000000000
0FF000000000
07F000000000
03F000000000
03F000000000
03F000000000
03F000000000
03F000000000
FFFFC0000000
FFFFC0000000
FFFFC0000000
03F000000000
03F000000000
03F000000000
03F000000000
03F000800000
03F01FFC0000
03F07FFF0000
03F1FFFFC000
03F3E03FC000
03F7801FE000
03FF000FE000
03FE0007F000
03FC0007F000
03F80007F000
03F80007F000
03F80003F000
03F00003F000
03F00003F000
03F00003F000
03F00003F000
03F00003F000
03F00003F000
03F00003F000
03F00003F000
03F00003F000
03F00003F000
03F00003F000
03F00003F000
03F00003F000
03F00003F000
03F00003F000
03F00003F000
03F00003F000
03F00003F000
03F80007F800
07F80007F800
1FFE003FFE00
7FFFC07FFFC0
7FFFC07FFFC0
ENDCHAR
STARTCHAR 0128
ENCODING 296
SWIDTH 421 0
DWIDTH 27 0
BBX 22 62 2 0
BITMAP
07C00C
1FF01C
3FFC1C
3FFFF8
7FFFF8
70FFF0
E03FE0
C007C0
000000
000000
000000
000000
3FFFF8
3FFFF8
3FFFF8
07FF80
01FF00
01FE00
01FE00
00FE00
00FE00
00FE00
00FE00
00FE00
00FE00
00FE00
00FE00
00FE00
00FE00
00FE00
00FE00
00FE00
00FE00
00FE00
00FE00
00FE00
00FE00
00FE00
00FE00
00FE00
00FE00
00FE00
00FE00
00FE00
00FE00
00FE00
00FE00
00FE00
00FE00
00FE00
00FE00
00FE00
00FE00
00FE00
00FE00
00FE00
01FE00
01FF00
03FF00
0FFFC0
7FFFFC
7FFFFC
ENDCHAR
STARTCHAR 0129
ENCODING 297
SWIDTH 343 0
DWIDTH 22 0
BBX 22 50 0 0
BITMAP
07C00C
1FF01C
3FFC38
7FFFF8
7FFFF8
60FFF0
E03FE0
C007C0
000000
000000
000000
000000
000000
000000
000000
000600
00FE00
1FFE00
3FFE00
3FFE00
03FE00
01FE00
00FE00
00FE00
00FE00
00FE00
00FE00
00FE00
00FE00
00FE00
00FE00
00FE00
00FE00
00FE00
00FE00
00FE00
00FE00
00FE00
00FE00
00FE00
00FE00
00FE00
00FE00
00FE00
00FE00
00FE00
01FF00
1FFFF0
3FFFF8
3FFFF8
ENDCHAR
STARTCHAR 012A
ENCODING 298
SWIDTH 421 0
DWIDTH 27 0
BBX 21 60 3 0
BITMAP
3FFFE0
3FFFE0
3FFFE0
000000
000000
000000
000000
000000
000000
000000
7FFFF0
7FFFF0
7FFFF0
0FFF00
03FE00
03FC00
03FC00
01FC00
01FC00
01FC00
01FC00
01FC00
01FC00
01FC00
01FC00
01FC00
01FC00
01FC00
01FC00
01FC00
01FC00
01FC00
01FC00
01FC00
01FC00
01FC00
01FC00
01FC00
01FC00
01FC00
01FC00
01FC00
01FC00
01FC00
01FC00
01FC00
01FC00
01FC00
01FC00
01FC00
01FC00
01FC00
01FC00
01FC00
03FC00
03FE00
07FE00
1FFF80
FFFFF8
FFFFF8
ENDCHAR
STARTCHAR 012B
ENCODING 299
SWIDTH 343 0
DWIDTH 22 0
BBX 19 49 2 0
BITMAP
7FFFC0
7FFFC0
7FFFC0
000000
000000
000000
000000
000000
000000
000000
000000
000000
000000
000000
007800
0FF800
FFF800
FFF800
FFF800
07F800
03F800
03F800
03F800
03F800
03F800
03F800
03F800
03F800
03F800
03F800
03F800
03F800
03F800
03F800
03F800
03F800
03F800
03F800
03F800
03F800
03F800
03F800
03F800
03F800
03F800
07FC00
1FFE00
FFFFE0
FFFFE0
ENDCHAR
STARTCHAR 012C
ENCODING 300
SWIDTH 421 0
DWIDTH 27 0
BBX 21 62 3 0
BITMAP
7000E0
3800E0
3E07C0
1FFFC0
1FFF80
07FF00
01FC00
000000
000000
000000
000000
000000
7FFFF0
7FFFF0
7FFFF0
0FFF00
03FE00
03FC00
03FC00
01FC00
01FC00
01FC00
01FC00
01FC00
01FC00
01FC00
01FC00
01FC00
01FC00
01FC00
01FC00
01FC00
01FC00
01FC00
01FC00
01FC00
01FC00
01FC00
01FC00
01FC00
01FC00
01FC00
01FC00
01FC00
01FC00
01FC00
01FC00
01FC00
01FC00
01FC00
01FC00
01FC00
01FC00
01FC00
01FC00
01FC00
03FC00
03FE00
07FE00
1FFF80
FFFFF8
FFFFF8
ENDCHAR
STARTCHAR 012D
ENCODING 301
SWIDTH 343 0
DWIDTH 22 0
BBX 19 50 2 0
BITMAP
6000C0
7001C0
7803C0
3E0F80
3FFF80
1FFF00
0FFE00
03F800
000000
000000
000000
000000
000000
000000
000000
003800
07F800
FFF800
FFF800
FFF800
0FF800
07F800
03F800
03F800
03F800
03F800
03F800
03F800
03F800
03F800
03F800
03F800
03F800
03F800
03F800
03F800
03F800
03F800
03F800
03F800
03F800
03F800
03F800
03F800
03F800
03F800
07FC00
7FFFC0
FFFFE0
FFFFE0
ENDCHAR
STARTCHAR 012E
ENCODING 302
SWIDTH 421 0
DWIDTH 27 0
BBX 21 65 3 -15
BITMAP
7FFFF0
7FFFF0
7FFFF0
0FFF00
03FE00
03FC00
03FC00
01FC00
01FC00
01FC00
01FC00
01FC00
01FC00
01FC00
01FC00
01FC00
01FC00
01FC00
01FC00
01FC00
01FC00
01FC00
01FC00
01FC00
01FC00
01FC00
01FC00
01FC00
01FC00
01FC00
01FC00
01FC00
01FC00
01FC00
01FC00
01FC00
01FC00
01FC00
01FC00
01FC00
01FC00
01FC00
01FC00
01FC00
03FC00
03FE00
07FE00
1FFF80
FFFFF8
FFFFF8
00F000
03C000
078000
1F0000
1E0000
3E0000
7C0000
7C0000
7C0300
7C0780
7E1F00
7FFE00
7FFC00
3FF800
0FE000
ENDCHAR
STARTCHAR 012F
ENCODING 303
SWIDTH 343 0
DWIDTH 22 0
BBX 20 67 1 -15
BITMAP
00F000
01F800
03FC00
03FC00
03FC00
03FC00
01F800
00F000
000000
000000
000000
000000
000000
000000
000000
000000
000000
000C00
01FC00
7FFC00
7FFC00
7FFC00
03FC00
01FC00
01FC00
01FC00
01FC00
01FC00
01FC00
01FC00
01FC00
01FC00
01FC00
01FC00
01FC00
01FC00
01FC00
01FC00
01FC00
01FC00
01FC00
01FC00
01FC00
01FC00
01FC00
01FC00
01FC00
01FC00
03FE00
0FFF00
7FFFF0
7FFFF0
01E000
078000
0F0000
1E0000
3C0000
7C0000
F80000
F80000
F80600
F80F00
FC3E00
FFFC00
7FF800
7FF000
1F8000
ENDCHAR
STARTCHAR 0130
ENCODING 304
SWIDTH 421 0
DWIDTH 27 0
BBX 21 62 3 0
BITMAP
007000
00F800
01FC00
01FC00
01FC00
01F800
007000
000000
000000
000000
000000
000000
7FFFF0
7FFFF0
7FFFF0
0FFF00
03FE00
03FC00
03FC00
01FC00
01FC00
01FC00
01FC00
01FC00
01FC00
01FC00
01FC00
01FC00
01FC00
01FC00
01FC00
01FC00
01FC00
01FC00
01FC00
01FC00
01FC00
01FC00
01FC00
01FC00
01FC00
01FC00
01FC00
01FC00
01FC00
01FC00
01FC00
01FC00
01FC00
01FC00
01FC00
01FC00
01FC00
01FC00
01FC00
01FC00
03FC00
03FE00
07FE00
1FFF80
FFFFF8
FFFFF8
ENDCHAR
STARTCHAR 0131
ENCODING 305
SWIDTH 343 0
DWIDTH 22 0
BBX 19 35 2 0
BITMAP
001800
03F800
7FF800
FFF800
FFF800
0FF800
07F800
03F800
03F800
03F800
03F800
03F800
03F800
03F800
03F800
03F800
03F800
03F800
03F800
03F800
03F800
03F800
03F800
03F800
03F800
03F800
03F800
03F800
03F800
03F800
03F800
07FC00
1FFE00
FFFFE0
FFFFE0
ENDCHAR
STARTCHAR 0132
ENCODING 306
SWIDTH 812 0
DWIDTH 52 0
BBX 46 67 3 -17
BITMAP
7FFFF03FFFFC
7FFFF03FFFFC
7FFFF03FFFFC
0FFF0001FFC0
03FE0000FF80
03FC0000FF00
03FC00007F00
01FC00007F00
01FC00007F00
01FC00007F00
01FC00007F00
01FC00007F00
01FC00007F00
01FC00007F00
01FC00007F00
01FC00007F00
01FC00007F00
01FC00007F00
01FC00007F00
01FC00007F00
01FC00007F00
01FC00007F00
01FC00007F00
01FC00007F00
01FC00007F00
01FC00007F00
01FC00007F00
01FC00007F00
01FC00007F00
01FC00007F00
01FC00007F00
01FC00007F00
01FC00007F00
01FC00007F00
01FC00007F00
01FC00007F00
01FC00007F00
01FC00007F00
01FC00007F00
01FC00007F00
01FC00007F00
01FC00007F00
01FC00007F00
01FC00007F00
03FC00007F00
03FE00007F00
07FE00007F00
1FFF80007F00
FFFFF8007F00
FFFFF8007F00
000000007F00
000000007F00
000000007E00
000000007E00
000000007E00
000000007E00
000000007E00
00003C00FE00
00007E00FC00
00007E00FC00
00007F01F800
00007F01F800
00007F83F000
00003FFFE000
00001FFFC000
00000FFF0000
000000600000
ENDCHAR
STARTCHAR 0133
ENCODING 307
SWIDTH 640 0
DWIDTH 41 0
BBX 34 69 2 -17
BITMAP
01E0000F00
03F0001F80
07F8003FC0
07F8003FC0
07F8003FC0
07F8003FC0
03F0001F80
01E0000F00
0000000000
0000000000
0000000000
0000000000
0000000000
0000000000
0000000000
0000000000
0000000000
0018000080
03F8003F80
FFF807FF80
FFF807FF80
FFF807FF80
07F8007F80
03F8003F80
03F8001F80
03F8001F80
03F8001F80
03F8001F80
03F8001F80
03F8001F80
03F8001F80
03F8001F80
03F8001F80
03F8001F80
03F8001F80
03F8001F80
03F8001F80
03F8001F80
03F8001F80
03F8001F80
03F8001F80
03F8001F80
03F8001F80
03F8001F80
03F8001F80
03F8001F80
03F8001F80
03F8001F80
07FC001F80
1FFE001F80
FFFFE01F80
FFFFE01F80
0000001F80
0000001F80
0000001F80
0000001F80
0000001F80
0000001F80
0000001F80
0006001F00
000F801F00
001F801F00
001FC03E00
001FC03E00
001FE07C00
000FFFF800
0007FFF000
0001FFC000
0000180000
ENDCHAR
STARTCHAR 0134
ENCODING 308
SWIDTH 390 0
DWIDTH 25 0
BBX 30 80 -7 -17
BITMAP
0000FE00
0001FF00
0003FF80
0007FFC0
000FE7E0
001F81F0
003C0078
0070001C
00000000
00000000
00000000
00000000
00000000
003FFFF8
003FFFF8
003FFFF8
0003FF80
0001FF00
0000FE00
0000FE00
0000FE00
0000FE00
0000FE00
0000FE00
0000FE00
0000FE00
0000FE00
0000FE00
0000FE00
0000FE00
0000FE00
0000FE00
0000FE00
0000FE00
0000FE00
0000FE00
0000FE00
0000FE00
0000FE00
0000FE00
0000FE00
0000FE00
0000FE00
0000FE00
0000FE00
0000FE00
0000FE00
0000FE00
0000FE00
0000FE00
0000FE00
0000FE00
0000FE00
0000FE00
0000FE00
0000FE00
0000FE00
0000FE00
0000FE00
0000FE00
0000FE00
0000FE00
0000FE00
0000FE00
0000FE00
0000FE00
0000FE00
0000FE00
0000FE00
0000FC00
7800FC00
FC00FC00
FE01F800
FE01F800
FF03F000
FF87E000
7FFFC000
3FFF8000
0FFE0000
00400000
ENDCHAR
STARTCHAR 0135
ENCODING 309
SWIDTH 296 0
DWIDTH 19 0
BBX 30 68 -9 -17
BITMAP
0000FE00
0001FF00
0003FF80
0007FF80
000FEFC0
000F83E0
001E00F0
00380078
0070001C
00000000
00000000
00000000
00000000
00000000
00000000
00000000
00001E00
0003FE00
003FFE00
003FFE00
003FFE00
0001FE00
0000FE00
0000FE00
0000FE00
0000FE00
0000FE00
0000FE00
0000FE00
0000FE00
0000FE00
0000FE00
0000FE00
0000FE00
0000FE00
0000FE00
0000FE00
0000FE00
0000FE00
0000FE00
0000FE00
0000FE00
0000FE00
0000FE00
0000FE00
0000FE00
0000FE00
0000FE00
0000FE00
0000FE00
0000FE00
0000FE00
0000FE00
0000FE00
0000FC00
0000FC00
0000FC00
0000FC00
1000FC00
7C00F800
FC00F800
FE01F000
FE01F000
7F03E000
7FFFC000
3FFF8000
0FFE0000
00400000
ENDCHAR
STARTCHAR 0136
ENCODING 310
SWIDTH 781 0
DWIDTH 50 0
BBX 48 66 3 -16
BITMAP
7FFFF01FFFE0
7FFFF01FFFE0
0FFF8007FF00
03FE0001FC00
03FC0001F800
01FC0003F000
01FC0003E000
01FC0007C000
01FC000F8000
01FC001F0000
01FC003E0000
01FC003E0000
01FC007C0000
01FC00F80000
01FC01F00000
01FC03E00000
01FC03C00000
01FC07800000
01FC0F800000
01FC1F000000
01FC3E000000
01FC3C000000
01FC7E000000
01FCFF000000
01FDFF800000
01FFFFC00000
01FFFFC00000
01FF9FE00000
01FF0FF00000
01FE07F80000
01FE07FC0000
01FC03FC0000
01FC01FE0000
01FC00FF0000
01FC007F8000
01FC007FC000
01FC003FE000
01FC001FE000
01FC000FF000
01FC000FF800
01FC0007FC00
01FC0003FE00
01FC0001FE00
01FC0000FF00
01FC0000FF80
03FC00007FC0
03FE00007FE0
0FFF8001FFF8
FFFFF80FFFFF
FFFFF80FFFFF
000000000000
000000000000
000000000000
000000000000
000007800000
00000FC00000
00000FE00000
00001FE00000
00000FE00000
000007E00000
000000E00000
000001E00000
000001C00000
000007800000
00000F000000
000004000000
ENDCHAR
STARTCHAR 0137
ENCODING 311
SWIDTH 609 0
DWIDTH 39 0
BBX 38 70 1 -16
BITMAP
0010000000
03F0000000
7FF0000000
FFF0000000
FFF0000000
07F0000000
03F0000000
03F0000000
03F0000000
03F0000000
03F0000000
03F0000000
03F0000000
03F0000000
03F0000000
03F0000000
03F0000000
03F0000000
03F0000000
03F0000000
03F01FFFE0
03F01FFFE0
03F003FF00
03F000FC00
03F000F800
03F001F000
03F003E000
03F007C000
03F00F8000
03F01F0000
03F03E0000
03F0780000
03F0F00000
03F1E00000
03F3E00000
03F7F00000
03FFF80000
03FFFC0000
03FDFE0000
03F8FF0000
03F07F0000
03F03F8000
03F03FC000
03F01FE000
03F00FF000
03F007F800
03F003FC00
03F001FE00
03F801FE00
03F800FF00
07F8007F80
1FFE007FE0
FFFFC7FFFC
FFFFC7FFFC
0000000000
0000000000
0000000000
0000000000
00003C0000
0000FE0000
0000FE0000
0000FF0000
0000FF0000
00007F0000
00000F0000
00000E0000
00001E0000
00003C0000
0000F00000
0000600000
ENDCHAR
STARTCHAR 0138
ENCODING 312
SWIDTH 640 0
DWIDTH 41 0
BBX 38 35 2 0
BITMAP
00F0000000
1FF01FFFF0
FFF01FFFF0
FFF001FF80
1FF000FE00
07F001F800
03F001F000
03F003E000
03F007C000
03F00F8000
03F01F0000
03F03E0000
03F07C0000
03F0F00000
03F1E00000
03F3E00000
03F7F00000
03FFF80000
03FFFC0000
03FDFE0000
03F8FF0000
03F07F0000
03F03F8000
03F01FC000
03F01FE000
03F00FF000
03F007F800
03F003FC00
03F801FE00
03F801FF00
03F800FF80
07FC007FC0
1FFE00FFF0
FFFFC7FFFC
FFFFC7FFFC
ENDCHAR
STARTCHAR 0139
ENCODING 313
SWIDTH 734 0
DWIDTH 47 0
BBX 42 62 3 0
BITMAP
0001E0000000
0007F0000000
001FF0000000
003FE0000000
00FFC0000000
03FC00000000
0FC000000000
000000000000
000000000000
000000000000
000000000000
000000000000
7FFFF0000000
7FFFF0000000
7FFFF0000000
07FF00000000
03FE00000000
03FC00000000
01FC00000000
01FC00000000
01FC00000000
01FC00000000
01FC00000000
01FC00000000
01FC00000000
01FC00000000
01FC00000000
01FC00000000
01FC00000000
01FC00000000
01FC00000000
01FC00000000
01FC00000000
01FC00000000
01FC00000000
01FC00000000
01FC00000000
01FC00000000
01FC00000000
01FC00000000
01FC00000000
01FC00000000
01FC00000000
01FC00000000
01FC00000000
01FC00000000
01FC00000000
01FC00000000
01FC00000000
01FC000000C0
01FC000001C0
01FC000001C0
01FC000001C0
01FC000003C0
01FC000003C0
01FC000007C0
03FE00000FC0
03FF00001FC0
07FFC000FFC0
FFFFFFFFFF80
FFFFFFFFFF80
FFFFFFFFFF80
ENDCHAR
STARTCHAR 013A
ENCODING 314
SWIDTH 328 0
DWIDTH 21 0
BBX 19 62 1 0
BITMAP
0003E0
000FE0
001FE0
007FE0
01FF80
03F800
1F8000
000000
000000
000000
01F000
3FF000
FFF000
FFF000
0FF000
03F000
03F000
03F000
03F000
03F000
03F000
03F000
03F000
03F000
03F000
03F000
03F000
03F000
03F000
03F000
03F000
03F000
03F000
03F000
03F000
03F000
03F000
03F000
03F000
03F000
03F000
03F000
03F000
03F000
03F000
03F000
03F000
03F000
03F000
03F000
03F000
03F000
03F000
03F000
03F000
03F800
03F800
03F800
07FC00
3FFF00
FFFFC0
FFFFC0
ENDCHAR
STARTCHAR 013B
ENCODING 315
SWIDTH 734 0
DWIDTH 47 0
BBX 42 66 3 -16
BITMAP
7FFFF0000000
7FFFF0000000
7FFFF0000000
07FF00000000
03FE00000000
03FC00000000
01FC00000000
01FC00000000
01FC00000000
01FC00000000
01FC00000000
01FC00000000
01FC00000000
01FC00000000
01FC00000000
01FC00000000
01FC00000000
01FC00000000
01FC00000000
01FC00000000
01FC00000000
01FC00000000
01FC00000000
01FC00000000
01FC00000000
01FC00000000
01FC00000000
01FC00000000
01FC00000000
01FC00000000
01FC00000000
01FC00000000
01FC00000000
01FC00000000
01FC00000000
01FC00000000
01FC00000000
01FC000000C0
01FC000001C0
01FC000001C0
01FC000001C0
01FC000003C0
01FC000003C0
01FC000007C0
03FE00000FC0
03FF00001FC0
07FFC000FFC0
FFFFFFFFFF80
FFFFFFFFFF80
FFFFFFFFFF80
000000000000
000000000000
000000000000
000000000000
00001E000000
00003F000000
00003F800000
00007F800000
00003F800000
00001F800000
000003800000
000007800000
000007000000
00001E000000
00003C000000
000018000000
ENDCHAR
STARTCHAR 013C
ENCODING 316
SWIDTH 328 0
DWIDTH 21 0
BBX 18 70 1 -16
BITMAP
000800
01F000
3FF000
FFF000
FFF000
0FF000
03F000
03F000
03F000
03F000
03F000
03F000
03F000
03F000
03F000
03F000
03F000
03F000
03F000
03F000
03F000
03F000
03F000
03F000
03F000
03F000
03F000
03F000
03F000
03F000
03F000
03F000
03F000
03F000
03F000
03F000
03F000
03F000
03F000
03F000
03F000
03F000
03F000
03F000
03F000
03F000
03F000
03F800
03F800
03F800
07F800
1FFE00
FFFFC0
FFFFC0
000000
000000
000000
000000
01E000
03F800
03F800
03F800
03F800
01F800
003800
003800
007000
00E000
03C000
018000
ENDCHAR
STARTCHAR 013D
ENCODING 317
SWIDTH 734 0
DWIDTH 47 0
BBX 42 62 3 0
BITMAP
F00078000000
7C01E0000000
3F0FC0000000
1FFF80000000
0FFF00000000
07FE00000000
03FC00000000
000000000000
000000000000
000000000000
000000000000
000000000000
7FFFF0000000
7FFFF0000000
7FFFF0000000
07FF00000000
03FE00000000
03FC00000000
01FC00000000
01FC00000000
01FC00000000
01FC00000000
01FC00000000
01FC00000000
01FC00000000
01FC00000000
01FC00000000
01FC00000000
01FC00000000
01FC00000000
01FC00000000
01FC00000000
01FC00000000
01FC00000000
01FC00000000
01FC00000000
01FC00000000
01FC00000000
01FC00000000
01FC00000000
01FC00000000
01FC00000000
01FC00000000
01FC00000000
01FC00000000
01FC00000000
01FC00000000
01FC00000000
01FC00000000
01FC000000C0
01FC000001C0
01FC000001C0
01FC000001C0
01FC000003C0
01FC000003C0
01FC000007C0
03FE00000FC0
03FF00001FC0
07FFC000FFC0
FFFFFFFFFF80
FFFFFFFFFF80
FFFFFFFFFF80
ENDCHAR
STARTCHAR 013E
ENCODING 318
SWIDTH 328 0
DWIDTH 21 0
BBX 25 54 1 0
BITMAP
00100000
03F00000
7FF00000
FFF00400
FFF03F00
07F03F80
03F07F80
03F03F80
03F03F80
03F00B80
03F00380
03F00780
03F00F00
03F01E00
03F03C00
03F01800
03F00000
03F00000
03F00000
03F00000
03F00000
03F00000
03F00000
03F00000
03F00000
03F00000
03F00000
03F00000
03F00000
03F00000
03F00000
03F00000
03F00000
03F00000
03F00000
03F00000
03F00000
03F00000
03F00000
03F00000
03F00000
03F00000
03F00000
03F00000
03F00000
03F00000
03F00000
03F80000
03F80000
03F80000
07FC0000
1FFE0000
FFFFC000
FFFFC000
ENDCHAR
STARTCHAR 013F
ENCODING 319
SWIDTH 734 0
DWIDTH 47 0
BBX 42 50 3 0
BITMAP
7FFFF0000000
7FFFF0000000
7FFFF0000000
07FF00000000
03FE00000000
03FC00000000
01FC00000000
01FC00000000
01FC00000000
01FC00000000
01FC00000000
01FC00000000
01FC00000000
01FC00000000
01FC00000000
01FC00000000
01FC00000000
01FC00000000
01FC00000000
01FC00F00000
01FC01F80000
01FC03FC0000
01FC03FC0000
01FC03FC0000
01FC03FC0000
01FC03FC0000
01FC01F80000
01FC00F00000
01FC00000000
01FC00000000
01FC00000000
01FC00000000
01FC00000000
01FC00000000
01FC00000000
01FC00000000
01FC00000000
01FC000000C0
01FC000001C0
01FC000001C0
01FC000001C0
01FC000003C0
01FC000003C0
01FC000007C0
03FE00000FC0
03FF00001FC0
07FFC000FF80
FFFFFFFFFF80
FFFFFFFFFF80
FFFFFFFFFF80
ENDCHAR
STARTCHAR 0140
ENCODING 320
SWIDTH 406 0
DWIDTH 26 0
BBX 26 54 1 0
BITMAP
00080000
01F00000
3FF00000
FFF00000
FFF00000
0FF00000
03F00000
03F00000
03F00000
03F00000
03F00000
03F00000
03F00000
03F00000
03F00000
03F00000
03F00000
03F00000
03F00000
03F00000
03F00000
03F00000
03F00000
03F00F00
03F01F80
03F03FC0
03F03FC0
03F03FC0
03F03FC0
03F01F80
03F00F00
03F00000
03F00000
03F00000
03F00000
03F00000
03F00000
03F00000
03F00000
03F00000
03F00000
03F00000
03F00000
03F00000
03F00000
03F00000
03F00000
03F80000
03F80000
03F80000
07F80000
1FFE0000
FFFFC000
FFFFC000
ENDCHAR
STARTCHAR 0141
ENCODING 321
SWIDTH 734 0
DWIDTH 47 0
BBX 42 50 3 0
BITMAP
7FFFF0000000
7FFFF0000000
7FFFF0000000
07FF00000000
03FE00000000
03FC00000000
01FC00000000
01FC00000000
01FC00000000
01FC00000000
01FC00000000
01FC00000000
01FC00000000
01FC00000000
01FC00000000
01FC00000000
01FC04000000
01FC0C000000
01FC3C000000
01FCFC000000
01FDF8000000
01FFE0000000
01FFC0000000
01FF00000000
01FE00000000
01FC00000000
07FC00000000
0FFC00000000
3FFC00000000
7FFC00000000
79FC00000000
61FC00000000
41FC00000000
01FC00000000
01FC00000000
01FC00000000
01FC00000000
01FC000000C0
01FC000001C0
01FC000001C0
01FC000001C0
01FC000003C0
01FC000003C0
01FE000007C0
01FE00000FC0
03FF00001FC0
07FFC000FFC0
FFFFFFFFFF80
FFFFFFFFFF80
FFFFFFFFFF80
ENDCHAR
STARTCHAR 0142
ENCODING 322
SWIDTH 328 0
DWIDTH 21 0
BBX 18 54 1 0
BITMAP
000800
01F000
3FF000
FFF000
FFF000
0FF000
03F000
03F000
03F000
03F000
03F000
03F000
03F000
03F000
03F000
03F000
03F000
03F000
03F000
03F000
03F000
03F040
03F0C0
03F3C0
03FFC0
03FF80
03FF00
03FC00
03F800
0FF000
1FF000
7FF000
7FF000
7BF000
63F000
03F000
03F000
03F000
03F000
03F000
03F000
03F000
03F000
03F000
03F000
03F000
03F000
03F800
03F800
03F800
07FC00
0FFE00
FFFFC0
FFFFC0
ENDCHAR
STARTCHAR 0143
ENCODING 323
SWIDTH 906 0
DWIDTH 58 0
BBX 52 63 3 -1
BITMAP
00000000F00000
00000003F80000
0000000FF80000
0000003FF00000
0000007FC00000
000001FE000000
00000FC0000000
00000000000000
00000000000000
00000000000000
00000000000000
00000000000000
7FFC00001FFFF0
7FFC00001FFFF0
7FFE00001FFFF0
0FFF000001FF00
03FF000000FE00
03FF8000007C00
03FFC000007C00
01FFE000007800
01FFE000007800
01FFF000007800
01FFF800007800
01EFFC00007800
01E7FC00007800
01E7FE00007800
01E3FF00007800
01E1FF80007800
01E0FF80007800
01E0FFC0007800
01E07FE0007800
01E03FE0007800
01E01FF0007800
01E01FF8007800
01E00FFC007800
01E007FC007800
01E003FE007800
01E003FF007800
01E001FF807800
01E000FF807800
01E0007FC07800
01E0003FE07800
01E0003FF07800
01E0001FF07800
01E0000FF87800
01E00007FC7800
01E00007FC7800
01E00003FE7800
01E00001FF7800
01E00000FFF800
01E00000FFF800
01E000007FF800
01E000003FF800
01E000001FF800
01E000001FF800
01E000000FF800
03E0000007F800
03F0000003F800
07F0000003F800
1FFC000001F800
FFFF800000F800
FFFF8000007800
00000000007800
ENDCHAR
STARTCHAR 0144
ENCODING 324
SWIDTH 687 0
DWIDTH 44 0
BBX 41 52 2 0
BITMAP
000000780000
000000FC0000
000001FC0000
000003FC0000
000007F80000
00000FE00000
00001F800000
00007E000000
0000F8000000
0001E0000000
000000000000
000000000000
000000000000
000000000000
000000000000
000000000000
000000000000
002000800000
03E01FFC0000
7FE0FFFF0000
FFE1FFFF8000
FFE3C03FC000
0FEF001FC000
07EE000FE000
07FC000FE000
07F8000FE000
03F80007E000
03F00007E000
03F00007E000
03F00007E000
03F00007E000
03F00007E000
03F00007E000
03F00007E000
03F00007E000
03F00007E000
03F00007E000
03F00007E000
03F00007E000
03F00007E000
03F00007E000
03F00007E000
03F00007E000
03F00007E000
03F00007E000
03F00007E000
03F00007F000
07F00007F000
07F8000FF000
1FFC003FFC00
FFFF80FFFF80
FFFF80FFFF80
ENDCHAR
STARTCHAR 0145
ENCODING 325
SWIDTH 906 0
DWIDTH 58 0
BBX 52 66 3 -16
BITMAP
7FFC00001FFFF0
7FFC00001FFFF0
7FFE00001FFFF0
0FFF000001FF00
03FF000000FE00
03FF8000007C00
03FFC000007C00
01FFE000007800
01FFE000007800
01FFF000007800
01FFF800007800
01EFFC00007800
01E7FC00007800
01E7FE00007800
01E3FF00007800
01E1FF80007800
01E0FF80007800
01E0FFC0007800
01E07FE0007800
01E03FE0007800
01E01FF0007800
01E01FF8007800
01E00FFC007800
01E007FC007800
01E003FE007800
01E003FF007800
01E001FF807800
01E000FF807800
01E0007FC07800
01E0007FE07800
01E0003FF07800
01E0001FF07800
01E0000FF87800
01E0000FFC7800
01E00007FC7800
01E00003FE7800
01E00001FF7800
01E00001FFF800
01E00000FFF800
01E000007FF800
01E000003FF800
01E000003FF800
01E000001FF800
01E000000FF800
03E0000007F800
03F0000007F800
07F0000003F800
1FFC000001F800
FFFF800000F800
FFFF800000F800
00000000007800
00000000000000
00000000000000
00000000000000
000000F0000000
000001F8000000
000001FC000000
000003FC000000
000001FC000000
000000FC000000
0000001C000000
0000003C000000
00000038000000
000000F0000000
000001E0000000
000000C0000000
ENDCHAR
STARTCHAR 0146
ENCODING 326
SWIDTH 687 0
DWIDTH 44 0
BBX 41 51 2 -16
BITMAP
002000800000
03E01FFC0000
7FE0FFFF0000
FFE1FFFF8000
FFE3C03FC000
0FEF001FC000
07EE000FE000
07FC000FE000
07F8000FE000
03F80007E000
03F00007E000
03F00007E000
03F00007E000
03F00007E000
03F00007E000
03F00007E000
03F00007E000
03F00007E000
03F00007E000
03F00007E000
03F00007E000
03F00007E000
03F00007E000
03F00007E000
03F00007E000
03F00007E000
03F00007E000
03F00007E000
03F00007E000
03F00007F000
07F00007F000
07F8000FF000
1FFC003FFC00
FFFF80FFFF80
FFFF80FFFF80
000000000000
000000000000
000000000000
000000000000
00003E000000
00007F000000
00007F000000
00007F000000
00007F800000
00003F000000
000007000000
000007000000
00000E000000
00001C000000
000078000000
000030000000
ENDCHAR
STARTCHAR 0147
ENCODING 327
SWIDTH 906 0
DWIDTH 58 0
BBX 52 63 3 -1
BITMAP
0000F000780000
00003C01F00000
00001F07E00000
00000FFFC00000
000007FF800000
000003FF000000
000001FE000000
00000000000000
00000000000000
00000000000000
00000000000000
00000000000000
7FFC00001FFFF0
7FFC00001FFFF0
7FFE00001FFFF0
0FFF000001FF00
03FF800000FE00
03FF8000007C00
03FFC000007C00
01FFE000007800
01FFE000007800
01FFF000007800
01FFF800007800
01EFFC00007800
01E7FC00007800
01E7FE00007800
01E3FF00007800
01E1FF80007800
01E0FF80007800
01E0FFC0007800
01E07FE0007800
01E03FF0007800
01E01FF0007800
01E00FF8007800
01E00FFC007800
01E007FE007800
01E003FE007800
01E001FF007800
01E001FF807800
01E000FF807800
01E0007FC07800
01E0003FE07800
01E0003FF07800
01E0001FF07800
01E0000FF87800
01E00007FC7800
01E00007FE7800
01E00003FE7800
01E00001FF7800
01E00000FFF800
01E00000FFF800
01E000007FF800
01E000003FF800
01E000001FF800
01E000001FF800
01E000000FF800
03E0000007F800
03F0000003F800
07F0000003F800
FFFF800001F800
FFFF800000F800
FFFF8000007800
00000000007800
ENDCHAR
STARTCHAR 0148
ENCODING 328
SWIDTH 687 0
DWIDTH 44 0
BBX 41 51 2 0
BITMAP
0038000E0000
001E001C0000
000F00780000
0007C1F00000
0003F7F00000
0001FFE00000
0001FFC00000
0000FF800000
00007F000000
000000000000
000000000000
000000000000
000000000000
000000000000
000000000000
000000000000
002000800000
03E01FFC0000
7FE0FFFF0000
FFE1FFFF8000
FFE3C03FC000
0FEF001FC000
07EE000FE000
07FC000FE000
07F8000FE000
03F80007E000
03F00007E000
03F00007E000
03F00007E000
03F00007E000
03F00007E000
03F00007E000
03F00007E000
03F00007E000
03F00007E000
03F00007E000
03F00007E000
03F00007E000
03F00007E000
03F00007E000
03F00007E000
03F00007E000
03F00007E000
03F00007E000
03F00007E000
03F00007F000
07F00007F000
07F8000FF000
1FFC003FFC00
FFFF80FFFF80
FFFF80FFFF80
ENDCHAR
STARTCHAR 0149
ENCODING 329
SWIDTH 765 0
DWIDTH 49 0
BBX 45 54 2 0
BITMAP
700000000000
F80000000000
FC0000000000
FC0000000000
FC0000000000
F80000000000
F80000000000
780000000000
780000000000
780000000000
700000000000
700000000000
300000000000
300000000000
000000000000
000000000000
000000000000
000000000000
000000000000
000200080000
003E01FFC000
03FE07FFF000
07FE1FFFF800
07FE3E03FC00
007F7801FE00
003FF000FE00
003FE0007E00
003FC0007F00
003F80007F00
003F80007F00
003F80007F00
003F00003F00
003F00003F00
003F00003F00
003F00003F00
003F00003F00
003F00003F00
003F00003F00
003F00003F00
003F00003F00
003F00003F00
003F00003F00
003F00003F00
003F00003F00
003F00003F00
003F00003F00
003F00003F00
003F00003F00
003F00003F00
003F80007F00
007F80007F80
01FFE001FFE0
07FFFC0FFFF8
07FFFC0FFFF8
ENDCHAR
STARTCHAR 014A
ENCODING 330
SWIDTH 906 0
DWIDTH 58 0
BBX 52 67 3 -17
BITMAP
7FFC00001FFFF0
7FFC00001FFFF0
7FFE00001FFFF0
0FFF000001FF00
03FF000000FE00
03FF8000007C00
03FFC000007C00
01FFE000007800
01FFE000007800
01FFF000007800
01FFF800007800
01EFFC00007800
01E7FC00007800
01E7FE00007800
01E3FF00007800
01E1FF80007800
01E0FF80007800
01E0FFC0007800
01E07FE0007800
01E03FE0007800
01E01FF0007800
01E01FF8007800
01E00FFC007800
01E007FC007800
01E003FE007800
01E003FF007800
01E001FF807800
01E000FF807800
01E0007FC07800
01E0007FE07800
01E0003FF07800
01E0001FF07800
01E0000FF87800
01E0000FFC7800
01E00007FC7800
01E00003FE7800
01E00001FF7800
01E00001FFF800
01E00000FFF800
01E000007FF800
01E000003FF800
01E000001FF800
01E000001FF800
01E000000FF800
03E0000007F800
03F0000003F800
07F0000003F800
1FFC000001F800
FFFF800000F800
FFFF8000007800
00000000007800
00000000007800
00000000007800
00000000007800
00000000007800
00000000007800
00000000007800
000001E0007000
000001F000F000
000003F800F000
000003F801E000
000003FC03C000
000001FE07C000
000001FFFF8000
000000FFFE0000
0000003FFC0000
00000001000000
ENDCHAR
STARTCHAR 014B
ENCODING 331
SWIDTH 671 0
DWIDTH 43 0
BBX 35 52 2 -17
BITMAP
0020008000
03E01FFC00
7FE0FFFF00
FFE1FFFF80
FFE3C03FC0
0FEF001FC0
07EE000FE0
07FC000FE0
07F8000FE0
03F80007E0
03F00007E0
03F00007E0
03F00007E0
03F00007E0
03F00007E0
03F00007E0
03F00007E0
03F00007E0
03F00007E0
03F00007E0
03F00007E0
03F00007E0
03F00007E0
03F00007E0
03F00007E0
03F00007E0
03F00007E0
03F00007E0
03F00007E0
03F00007E0
07F00007E0
07F80007E0
1FFC0007E0
FFFF8007E0
FFFF8007E0
00000007E0
00000007E0
00000007E0
00000007E0
00000007E0
00000007E0
00000007E0
00018007C0
0007E007C0
0007E007C0
0007F00F80
0007F00F80
0007F81F00
0003FFFE00
0001FFFC00
00007FF000
0000060000
ENDCHAR
STARTCHAR 014C
ENCODING 332
SWIDTH 953 0
DWIDTH 61 0
BBX 53 61 4 -1
BITMAP
00003FFFE00000
00003FFFE00000
00003FFFE00000
00000000000000
00000000000000
00000000000000
00000000000000
00000000000000
00000000000000
00000020000000
00001FFFC00000
0000FFFFF80000
0003FFFFFE0000
000FF800FF8000
003FC0003FC000
007F80000FF000
00FE000007F800
01FC000003FC00
03F8000001FE00
07F0000000FE00
0FF00000007F00
0FE00000007F80
1FE00000003F80
3FC00000003FC0
3FC00000001FE0
3F800000001FE0
7F800000001FE0
7F800000000FF0
FF800000000FF0
FF000000000FF0
FF000000000FF0
FF000000000FF8
FF000000000FF8
FF0000000007F8
FF0000000007F8
FF0000000007F8
FF0000000007F8
FF000000000FF8
FF000000000FF8
FF000000000FF8
FF000000000FF0
FF000000000FF0
7F800000000FF0
7F800000000FE0
7F800000001FE0
3FC00000001FE0
3FC00000001FC0
1FC00000003FC0
1FE00000003F80
0FE00000007F00
07F0000000FF00
03F8000000FE00
01FC000001FC00
00FE000003F800
007F00000FF000
003FC0001FC000
000FF000FF8000
0003FFFFFE0000
0000FFFFF80000
00001FFFC00000
00000060000000
ENDCHAR
STARTCHAR 014D
ENCODING 333
SWIDTH 656 0
DWIDTH 42 0
BBX 36 50 3 -1
BITMAP
007FFFC000
007FFFC000
007FFFC000
0000000000
0000000000
0000000000
0000000000
0000000000
0000000000
0000000000
0000000000
0000000000
0000000000
0000000000
0000400000
000FFF0000
007FFFC000
00FFFFF000
03FC03F800
07F001FE00
0FE0007F00
1FC0007F00
1FC0003F80
3F80001FC0
3F80001FC0
7F00000FE0
7F00000FE0
7F00000FE0
FF00000FE0
FE00000FF0
FE00000FF0
FE000007F0
FE000007F0
FE00000FF0
FE00000FF0
FF00000FE0
7F00000FE0
7F00000FE0
7F00000FE0
3F80001FC0
3F80001FC0
1FC0003F80
1FC0003F00
0FE0007E00
07F000FC00
03FC03F800
00FFFFF000
007FFFC000
000FFF0000
0000400000
ENDCHAR
STARTCHAR 014E
ENCODING 334
SWIDTH 953 0
DWIDTH 61 0
BBX 53 64 4 -1
BITMAP
00007000600000
00003000E00000
00003801E00000
00003E07C00000
00001FFFC00000
00000FFF800000
000007FF000000
000001FC000000
00000000000000
00000000000000
00000000000000
00000000000000
00000020000000
00001FFFC00000
0000FFFFF80000
0003FFFFFE0000
000FF800FF8000
003FC0003FC000
007F80000FF000
00FE000007F800
01FC000003FC00
03F8000001FE00
07F0000000FE00
0FF00000007F00
0FE00000007F80
1FE00000003F80
3FC00000003FC0
3FC00000001FE0
3F800000001FE0
7F800000001FE0
7F800000000FF0
FF800000000FF0
FF000000000FF0
FF000000000FF0
FF000000000FF8
FF000000000FF8
FF0000000007F8
FF0000000007F8
FF0000000007F8
FF0000000007F8
FF000000000FF8
FF000000000FF8
FF000000000FF8
FF000000000FF0
FF000000000FF0
7F800000000FF0
7F800000000FE0
7F800000001FE0
3FC00000001FE0
3FC00000001FC0
1FC00000003FC0
1FE00000003F80
0FE00000007F00
07F0000000FF00
03F8000000FE00
01FC000001FC00
00FE000003F800
007F00000FF000
003FC0001FC000
000FF000FF8000
0003FFFFFE0000
0000FFFFF80000
00001FFFC00000
00000060000000
ENDCHAR
STARTCHAR 014F
ENCODING 335
SWIDTH 656 0
DWIDTH 42 0
BBX 36 51 3 -1
BITMAP
006000E000
007000C000
007801C000
003E07C000
003FFF8000
001FFF0000
0007FE0000
0001F80000
0000000000
0000000000
0000000000
0000000000
0000000000
0000000000
0000000000
0000400000
000FFF0000
007FFFC000
00FFFFF000
03FC03F800
07F001FE00
0FE0007F00
1FC0007F00
1FC0003F80
3F80001FC0
3F80001FC0
7F00000FE0
7F00000FE0
7F00000FE0
FF00000FE0
FE00000FF0
FE00000FF0
FE000007F0
FE000007F0
FE00000FF0
FE00000FF0
FF00000FE0
7F00000FE0
7F00000FE0
7F00000FE0
3F80001FC0
3F80001FC0
1FC0003F80
1FC0003F00
0FE0007E00
07F000FC00
03FC03F800
00FFFFF000
007FFFC000
000FFF0000
0000400000
ENDCHAR
STARTCHAR 0150
ENCODING 336
SWIDTH 953 0
DWIDTH 61 0
BBX 53 63 4 -1
BITMAP
00000078078000
000001FC1FC000
000003FC7FC000
00000FFCFFC000
00003FF3FF0000
00007F07F00000
0001F03F000000
00020000000000
00000000000000
00000000000000
00000000000000
00000020000000
00001FFFC00000
0000FFFFF80000
0003FFFFFE0000
000FF800FF8000
003FC0003FC000
007F80000FF000
00FE000007F800
01FC000003FC00
03F8000001FE00
07F0000000FE00
0FF00000007F00
0FE00000007F80
1FE00000003F80
3FC00000003FC0
3FC00000001FE0
3F800000001FE0
7F800000001FE0
7F800000000FF0
FF800000000FF0
FF000000000FF0
FF000000000FF0
FF000000000FF8
FF000000000FF8
FF0000000007F8
FF0000000007F8
FF0000000007F8
FF0000000007F8
FF000000000FF8
FF000000000FF8
FF000000000FF8
FF000000000FF0
FF000000000FF0
7F800000000FF0
7F800000000FE0
7F800000001FE0
3FC00000001FE0
3FC00000001FC0
1FC00000003FC0
1FE00000003F80
0FE00000007F00
07F0000000FF00
03F8000000FE00
01FC000001FC00
00FE000003F800
007F00000FF000
003FC0001FC000
000FF000FF8000
0003FFFFFE0000
0000FFFFF80000
00001FFFC00000
00000060000000
ENDCHAR
STARTCHAR 0151
ENCODING 337
SWIDTH 656 0
DWIDTH 42 0
BBX 36 53 3 -1
BITMAP
00003C01C0
00007E07E0
0000FE0FE0
0001FC1FE0
0007F83FC0
000FF07F80
001FC0FC00
003F01F000
007C03C000
00F00F0000
0000000000
0000000000
0000000000
0000000000
0000000000
0000000000
0000000000
0000400000
000FFF0000
007FFFC000
00FFFFF000
03FC03F800
07F001FE00
0FE0007F00
1FC0007F00
1FC0003F80
3F80001FC0
3F80001FC0
7F00000FE0
7F00000FE0
7F00000FE0
FF00000FE0
FE00000FF0
FE00000FF0
FE000007F0
FE000007F0
FE00000FF0
FE00000FF0
FF00000FE0
7F00000FE0
7F00000FE0
7F00000FE0
3F80001FC0
3F80001FC0
1FC0003F80
1FC0003F00
0FE0007E00
07F000FC00
03FC03F800
00FFFFF000
007FFFC000
000FFF0000
0000400000
ENDCHAR
STARTCHAR 0152
ENCODING 338
SWIDTH 1156 0
DWIDTH 74 0
BBX 67 50 4 0
BITMAP
000007FFFFFFFFFF00
00007FFFFFFFFFFF00
0001FFFFFFFFFFFF00
0007FE03FF0003FF00
001FE000FF00003F00
003F80007F00001F00
00FF00007F00000F00
01FE00007F00000700
03FC00007F00000700
07F800007F00000300
07F000007F00000300
0FE000007F00000300
1FE000007F00000000
1FC000007F00000000
3FC000007F00000000
3FC000007F00000000
7F8000007F000C0000
7F8000007F000C0000
7F8000007F001C0000
FF8000007F001C0000
FF0000007F007C0000
FF0000007F03FC0000
FF0000007FFFFC0000
FF0000007FFFFC0000
FF0000007FFFFC0000
FF0000007F03FC0000
FF0000007F007C0000
FF0000007F003C0000
FF0000007F001C0000
FF0000007F001C0000
FF0000007F000C0000
FF0000007F000C0000
7F8000007F000C0000
7F8000007F000C0000
3F8000007F00000000
3FC000007F00000000
3FC000007F00000000
1FC000007F00000000
0FE000007F000000E0
0FE000007F000000E0
07F000007F000000E0
03F800007F000001E0
01FC00007F000001E0
00FE00007F000003C0
007F00007F800007C0
001FC000FFC0000FC0
000FF801FFF0007FC0
0003FFFFFFFFFFFFC0
00007FFFFFFFFFFFC0
00000FFFFFFFFFFFC0
ENDCHAR
STARTCHAR 0153
ENCODING 339
SWIDTH 1015 0
DWIDTH 65 0
BBX 59 36 3 -1
BITMAP
0000400000020000
000FFF0000FFF000
007FFFC007FFFC00
00FFFFF00FFFFE00
03FC03FC3F807F00
07F001FE7E003F80
0FE0007FFC001FC0
1FC0007FFC000FC0
1FC0003FF8000FC0
3F80001FF8000FE0
3F80001FF8000FE0
7F00000FFFFFFFE0
7F00000FFFFFFFE0
7F00000FFFFFFFE0
FF00000FF0000000
FE00000FF0000000
FE00000FF0000000
FE000007F0000000
FE000007F0000000
FE00000FF0000000
FE00000FF0000000
FF00000FF0000000
7F00000FF0000000
7F00000FF8000000
7F00000FF8000000
3F80001FF8000000
3F80001FFC000000
1FC0003FFC000080
1FC0003FFE0000C0
0FE0007EFF0003E0
07F001FC7F800780
03FC03F83FE01F00
00FFFFF01FFFFE00
007FFFC007FFF800
000FFF0001FFE000
00006000000C0000
ENDCHAR
STARTCHAR 0154
ENCODING 340
SWIDTH 781 0
DWIDTH 50 0
BBX 49 62 3 0
BITMAP
0000003C000000
000000FE000000
000003FE000000
000007FC000000
00001FF8000000
00007F80000000
0001F800000000
00000000000000
00000000000000
00000000000000
00000000000000
00000000000000
7FFFFFE0000000
7FFFFFFE000000
7FFFFFFF800000
07FC00FFE00000
03FC001FF00000
01FC000FF80000
01FC0007F80000
01FC0003FC0000
01FC0003FC0000
01FC0003FE0000
01FC0001FE0000
01FC0001FE0000
01FC0001FE0000
01FC0001FE0000
01FC0001FE0000
01FC0001FE0000
01FC0003FE0000
01FC0003FC0000
01FC0003FC0000
01FC0007F80000
01FC000FF80000
01FC003FF00000
01FC01FFC00000
01FFFFFF800000
01FFFFFE000000
01FFFFE0000000
01FC7FE0000000
01FC1FF0000000
01FC0FF8000000
01FC07F8000000
01FC03FC000000
01FC01FE000000
01FC01FF000000
01FC00FF800000
01FC007F800000
01FC003FC00000
01FC003FE00000
01FC001FF00000
01FC000FF80000
01FC0007F80000
01FC0003FC0000
01FC0003FE0000
01FC0001FF0000
01FC0000FF8000
01FC00007F8000
03FC00007FE000
03FE00003FF000
0FFFC0001FFE00
FFFFFC000FFF80
FFFFFC000FFF80
ENDCHAR
STARTCHAR 0155
ENCODING 341
SWIDTH 484 0
DWIDTH 31 0
BBX 28 52 2 0
BITMAP
00000F00
00001F00
00007F80
0000FF00
0001FE00
0003FC00
0007F000
000FC000
001F0000
003C0000
00000000
00000000
00000000
00000000
00000000
00000000
00000000
00000100
00300FE0
03F03FF0
7FF07FF0
FFF0FFF0
FFF1FFF0
0FF3C7E0
07F78080
03F70000
03FE0000
03FE0000
03FC0000
03FC0000
03F80000
03F80000
03F80000
03F80000
03F80000
03F00000
03F00000
03F00000
03F00000
03F00000
03F00000
03F00000
03F00000
03F00000
03F00000
03F00000
03F00000
07F80000
07F80000
3FFE0000
FFFF8000
FFFF8000
ENDCHAR
STARTCHAR 0156
ENCODING 342
SWIDTH 781 0
DWIDTH 50 0
BBX 49 66 3 -16
BITMAP
7FFFFFE0000000
7FFFFFFE000000
7FFFFFFF800000
07FC00FFE00000
03FC001FF00000
01FC000FF80000
01FC0007F80000
01FC0003FC0000
01FC0003FC0000
01FC0003FE0000
01FC0001FE0000
01FC0001FE0000
01FC0001FE0000
01FC0001FE0000
01FC0001FE0000
01FC0001FE0000
01FC0003FE0000
01FC0003FC0000
01FC0003FC0000
01FC0007F80000
01FC000FF80000
01FC003FF00000
01FC01FFC00000
01FFFFFF800000
01FFFFFE000000
01FFFFE0000000
01FC7FE0000000
01FC1FF0000000
01FC0FF8000000
01FC07F8000000
01FC03FC000000
01FC01FE000000
01FC01FF000000
01FC00FF800000
01FC007F800000
01FC003FC00000
01FC003FE00000
01FC001FF00000
01FC000FF80000
01FC0007F80000
01FC0003FC0000
01FC0003FE0000
01FC0001FF0000
01FC0000FF8000
01FC00007F8000
03FC00007FE000
03FE00003FF000
0FFFC0001FFE00
FFFFFC000FFF80
FFFFFC000FFF80
00000000000000
00000000000000
00000000000000
00000000000000
00000780000000
00000FC0000000
00000FE0000000
00001FE0000000
00000FE0000000
000007E0000000
000000E0000000
000001E0000000
000001C0000000
00000780000000
00000F00000000
00000400000000
ENDCHAR
STARTCHAR 0157
ENCODING 343
SWIDTH 484 0
DWIDTH 31 0
BBX 28 51 2 -16
BITMAP
00000100
00300FE0
03F03FF0
7FF07FF0
FFF0FFF0
FFF1FFF0
0FF3C7E0
07F78080
03F70000
03FE0000
03FE0000
03FC0000
03FC0000
03F80000
03F80000
03F80000
03F80000
03F80000
03F00000
03F00000
03F00000
03F00000
03F00000
03F00000
03F00000
03F00000
03F00000
03F00000
03F00000
03F00000
07F80000
07F80000
3FFE0000
FFFF8000
FFFF8000
00000000
00000000
00000000
00000000
01E00000
03F00000
07F80000
07F80000
03F80000
03F80000
00380000
00700000
00F00000
01E00000
03C00000
03000000
ENDCHAR
STARTCHAR 0158
ENCODING 344
SWIDTH 781 0
DWIDTH 50 0
BBX 49 62 3 0
BITMAP
003E000F000000
000F807C000000
0007E1F8000000
0003FFF0000000
0001FFE0000000
0000FFC0000000
00007F80000000
00000000000000
00000000000000
00000000000000
00000000000000
00000000000000
7FFFFFE0000000
7FFFFFFE000000
7FFFFFFF800000
07FC00FFE00000
03FC001FF00000
01FC000FF80000
01FC0007F80000
01FC0003FC0000
01FC0003FC0000
01FC0003FE0000
01FC0001FE0000
01FC0001FE0000
01FC0001FE0000
01FC0001FE0000
01FC0001FE0000
01FC0001FE0000
01FC0003FE0000
01FC0003FC0000
01FC0003FC0000
01FC0007F80000
01FC000FF80000
01FC003FF00000
01FC01FFC00000
01FFFFFF800000
01FFFFFE000000
01FFFFE0000000
01FC7FE0000000
01FC1FF0000000
01FC0FF8000000
01FC07F8000000
01FC03FC000000
01FC01FE000000
01FC01FF000000
01FC00FF800000
01FC007F800000
01FC003FC00000
01FC003FE00000
01FC001FF00000
01FC000FF80000
01FC0007FC0000
01FC0003FC0000
01FC0003FE0000
01FC0001FF0000
01FC0000FF8000
01FC00007FC000
03FE00007FE000
07FF00003FF800
FFFFFC001FFF80
FFFFFC000FFF80
FFFFFC000FFF80
ENDCHAR
STARTCHAR 0159
ENCODING 345
SWIDTH 484 0
DWIDTH 31 0
BBX 28 51 2 0
BITMAP
070001C0
03800780
01E00F00
01F83E00
00FCFC00
007FF800
003FF000
001FF000
000FE000
00000000
00000000
00000000
00000000
00000000
00000000
00000000
00000100
00300FE0
03F03FF0
7FF07FF0
FFF0FFF0
FFF1FFF0
0FF3C7E0
07F78080
03F70000
03FE0000
03FE0000
03FC0000
03FC0000
03F80000
03F80000
03F80000
03F80000
03F80000
03F00000
03F00000
03F00000
03F00000
03F00000
03F00000
03F00000
03F00000
03F00000
03F00000
03F00000
03F00000
07F80000
07F80000
3FFE0000
FFFF8000
FFFF8000
ENDCHAR
STARTCHAR 015A
ENCODING 346
SWIDTH 640 0
DWIDTH 41 0
BBX 34 64 4 -1
BITMAP
0000010000
00000FC000
00001FC000
00007FC000
0001FF8000
0003FE0000
000FF00000
003F000000
0000000000
0000000000
0000000000
0000000000
0000800000
003FFC0800
00FFFF1800
01FFFF9C00
03F00FFC00
07C003FC00
0F8000FC00
1F80007C00
1F00007C00
3F00003C00
3F00003C00
3F00001C00
3F00001C00
3F00000C00
3F80000000
3F80000000
3FC0000000
3FF0000000
3FF8000000
1FFE000000
1FFF800000
0FFFE00000
07FFF80000
03FFFE0000
01FFFF8000
00FFFFE000
003FFFF000
000FFFF800
0003FFFE00
0000FFFE00
00003FFF00
00000FFF80
000003FF80
000000FF80
0000007FC0
C000007FC0
C000003FC0
E000003FC0
E000001FC0
E000001FC0
F000001F80
F000001F80
F800003F80
FC00003F00
FE00003F00
FF00007E00
FF8000FC00
77F003F800
63FFFFE000
40FFFFC000
003FFE0000
0000800000
ENDCHAR
STARTCHAR 015B
ENCODING 347
SWIDTH 453 0
DWIDTH 29 0
BBX 22 53 4 -1
BITMAP
0000F0
0003F0
0007F8
000FF0
001FE0
003F80
007E00
00F800
01E000
070000
000000
000000
000000
000000
000000
000000
000000
004000
07FC20
0FFF60
1FFFE0
3E03E0
7C01E0
7C00E0
7C00E0
FC0060
FC0060
FC0000
FE0000
7F0000
7FC000
3FF000
3FF800
1FFE00
07FF00
03FFC0
01FFE0
007FF0
001FF8
000FF8
0003FC
C001FC
C000FC
E000FC
E000FC
F000FC
F000F8
FC01F8
FE03F0
FFFFF0
C7FFC0
C3FF80
003000
ENDCHAR
STARTCHAR 015C
ENCODING 348
SWIDTH 640 0
DWIDTH 41 0
BBX 34 64 4 -1
BITMAP
0007F00000
000FF80000
001FFC0000
003FFE0000
007E7F0000
00F81F8000
01E003C000
038000E000
0000000000
0000000000
0000000000
0000000000
0000800000
003FFC0800
00FFFF1800
01FFFF9C00
03F00FFC00
07C003FC00
0F8000FC00
1F80007C00
1F00007C00
3F00003C00
3F00003C00
3F00001C00
3F00001C00
3F00000C00
3F80000000
3F80000000
3FC0000000
3FF0000000
3FF8000000
1FFE000000
1FFF800000
0FFFE00000
07FFF80000
03FFFE0000
01FFFF8000
00FFFFE000
003FFFF000
000FFFF800
0003FFFE00
0000FFFE00
00003FFF00
00000FFF80
000003FF80
000000FF80
0000007FC0
C000007FC0
C000003FC0
E000003FC0
E000001FC0
E000001FC0
F000001F80
F000001F80
F800003F80
FC00003F00
FE00003F00
FF00007E00
FF8000FC00
77F003F800
63FFFFE000
40FFFFC000
003FFE0000
0000800000
ENDCHAR
STARTCHAR 015D
ENCODING 349
SWIDTH 453 0
DWIDTH 29 0
BBX 22 52 4 -1
BITMAP
01F800
03FC00
07FE00
07FF00
0FDF80
1F0FC0
3C03E0
7000F0
E00038
000000
000000
000000
000000
000000
000000
000000
004000
07FC20
0FFF60
1FFFE0
3E03E0
7C01E0
7C00E0
7C00E0
FC0060
FC0060
FC0000
FE0000
7F0000
7FC000
3FF000
3FF800
1FFE00
07FF00
03FFC0
01FFE0
007FF0
001FF8
000FF8
0003FC
C001FC
C000FC
E000FC
E000FC
F000FC
F000F8
FC01F8
FE03F0
FFFFF0
C7FFC0
C3FF80
003000
ENDCHAR
STARTCHAR 015E
ENCODING 350
SWIDTH 640 0
DWIDTH 41 0
BBX 34 68 4 -17
BITMAP
0000800000
003FFC0800
00FFFF1800
01FFFF9C00
03F00FFC00
07C003FC00
0F8000FC00
1F80007C00
1F00007C00
3F00003C00
3F00003C00
3F00001C00
3F00001C00
3F00000C00
3F80000000
3F80000000
3FC0000000
3FF0000000
3FF8000000
1FFE000000
1FFF800000
0FFFE00000
07FFF80000
03FFFE0000
01FFFF8000
00FFFFE000
003FFFF000
000FFFF800
0003FFFC00
0000FFFE00
00003FFF00
00000FFF80
000003FF80
000000FF80
0000007FC0
C000007FC0
C000003FC0
E000003FC0
E000001FC0
E000001FC0
F000001F80
F000001F80
F800003F80
FC00003F00
FE00003F00
FF00007E00
FF8000FC00
7FF003F800
63FFFFF000
41FFFFC000
003FFF0000
0003C00000
0003800000
0007800000
0007000000
000FF00000
000FFC0000
001FFE0000
0000FF0000
00003F0000
00201F0000
00701F0000
00781F0000
007C3F0000
007FFE0000
003FFC0000
001FF80000
0001800000
ENDCHAR
STARTCHAR 015F
ENCODING 351
SWIDTH 453 0
DWIDTH 29 0
BBX 22 52 4 -17
BITMAP
004000
07FC20
0FFF60
1FFFE0
3E03E0
7C01E0
7C00E0
7C00E0
FC0060
FC0060
FC0000
FE0000
FF0000
7FC000
7FF000
3FF800
1FFE00
0FFF00
07FFC0
01FFE0
00FFF0
003FF8
000FF8
0007FC
C003FC
C001FC
E000FC
E000FC
F000FC
F000F8
F800F8
FC01F0
FF03F0
CFFFC0
C3FF00
007000
007000
00F000
00E000
01FC00
01FF80
03FFC0
000FC0
0007E0
0E03E0
0E03E0
1F07E0
0F07C0
0FFFC0
07FF80
03FF00
002000
ENDCHAR
STARTCHAR 0160
ENCODING 352
SWIDTH 640 0
DWIDTH 41 0
BBX 34 64 4 -1
BITMAP
038000E000
01E003C000
00F81F8000
007E7F0000
003FFE0000
001FFC0000
000FF80000
0007F00000
0000000000
0000000000
0000000000
0000000000
0000800000
003FFC0800
00FFFF1800
01FFFF9C00
03F00FFC00
07C003FC00
0F8000FC00
1F80007C00
1F00007C00
3F00003C00
3F00003C00
3F00001C00
3F00001C00
3F00000C00
3F80000000
3F80000000
3FC0000000
3FF0000000
3FF8000000
1FFE000000
1FFF800000
0FFFE00000
07FFF80000
03FFFE0000
01FFFF8000
00FFFFE000
003FFFF000
000FFFF800
0003FFFE00
0000FFFE00
00003FFF00
00000FFF80
000003FF80
000000FF80
0000007FC0
C000007FC0
C000003FC0
E000003FC0
E000001FC0
E000001FC0
F000001F80
F000001F80
F800003F80
FC00003F00
FE00003F00
FF00007E00
FF8000FC00
77F003F800
63FFFFE000
40FFFFC000
003FFE0000
0000800000
ENDCHAR
STARTCHAR 0161
ENCODING 353
SWIDTH 453 0
DWIDTH 29 0
BBX 22 52 4 -1
BITMAP
E00038
7000F0
3C03E0
1F0FC0
0FDF80
07FF00
07FE00
03FC00
01F800
000000
000000
000000
000000
000000
000000
000000
004000
07FC20
0FFF60
1FFFE0
3E03E0
7C01E0
7C00E0
7C00E0
FC0060
FC0060
FC0000
FE0000
7F0000
7FC000
3FF000
3FF800
1FFE00
07FF00
03FFC0
01FFE0
007FF0
001FF8
000FF8
0003FC
C001FC
C000FC
E000FC
E000FC
F000FC
F000F8
FC01F8
FE03F0
FFFFF0
C7FFC0
C3FF80
003000
ENDCHAR
STARTCHAR 0162
ENCODING 354
SWIDTH 796 0
DWIDTH 51 0
BBX 49 67 1 -17
BITMAP
FFFFFFFFFFFF80
FFFFFFFFFFFF80
FFFFFFFFFFFF80
FF801FFC01FF80
FC0007F8001F80
F80007F8000F80
F00007F8000780
F00007F8000380
E00007F8000380
E00007F8000380
E00007F8000380
E00007F8000180
E00007F8000180
000007F8000000
000007F8000000
000007F8000000
000007F8000000
000007F8000000
000007F8000000
000007F8000000
000007F8000000
000007F8000000
000007F8000000
000007F8000000
000007F8000000
000007F8000000
000007F8000000
000007F8000000
000007F8000000
000007F8000000
000007F8000000
000007F8000000
000007F8000000
000007F8000000
000007F8000000
000007F8000000
000007F8000000
000007F8000000
000007F8000000
000007F8000000
000007F8000000
000007F8000000
000007F8000000
000007F8000000
00000FF8000000
00000FFC000000
00001FFE000000
0000FFFFC00000
0007FFFFF80000
0007FFFFF80000
000003C0000000
00000380000000
00000380000000
00000780000000
000007F0000000
00000FFC000000
00000FFE000000
0000007F000000
0000003F000000
0000301F000000
0000781F000000
0000781F000000
00007C3F000000
00007FFE000000
00003FFC000000
00000FF8000000
00000080000000
ENDCHAR
STARTCHAR 0163
ENCODING 355
SWIDTH 375 0
DWIDTH 24 0
BBX 21 59 3 -17
BITMAP
00C000
01C000
01C000
03C000
07C000
0FC000
1FC000
7FC000
FFFFC0
FFFFC0
FFFFC0
1FC000
1FC000
1FC000
1FC000
1FC000
1FC000
1FC000
1FC000
1FC000
1FC000
1FC000
1FC000
1FC000
1FC000
1FC000
1FC000
1FC000
1FC000
1FC000
1FC000
1FC000
1FC000
1FC000
1FC000
1FC000
0FC010
0FE038
0FE070
07FFF0
03FFE0
01FF80
00F000
00E000
01E000
01C000
03F800
03FF00
07FF80
001F80
000FC0
1C07C0
1C07C0
3E0FC0
1E0F80
1FFF80
0FFF00
07FE00
004000
ENDCHAR
STARTCHAR 0164
ENCODING 356
SWIDTH 796 0
DWIDTH 51 0
BBX 49 62 1 0
BITMAP
0003C001E00000
0000F007C00000
00007E1F800000
00003FFF000000
00001FFE000000
00000FFC000000
000007F8000000
00000000000000
00000000000000
00000000000000
00000000000000
00000000000000
FFFFFFFFFFFF80
FFFFFFFFFFFF80
FFFFFFFFFFFF80
FF801FFC01FF80
FC0007F8001F80
F80007F8000F80
F00007F8000780
F00007F8000380
E00007F8000380
E00007F8000380
E00007F8000380
E00007F8000180
E00007F8000180
000007F8000000
000007F8000000
000007F8000000
000007F8000000
000007F8000000
000007F8000000
000007F8000000
000007F8000000
000007F8000000
000007F8000000
000007F8000000
000007F8000000
000007F8000000
000007F8000000
000007F8000000
000007F8000000
000007F8000000
000007F8000000
000007F8000000
000007F8000000
000007F8000000
000007F8000000
000007F8000000
000007F8000000
000007F8000000
000007F8000000
000007F8000000
000007F8000000
000007F8000000
000007F8000000
000007F8000000
00000FF8000000
00000FFC000000
00001FFE000000
0000FFFFC00000
0007FFFFF80000
0007FFFFF80000
ENDCHAR
STARTCHAR 0165
ENCODING 357
SWIDTH 375 0
DWIDTH 24 0
BBX 24 52 3 -1
BITMAP
000008
00007E
00007F
0000FF
0000FF
00007F
000017
000007
00000E
00C01E
01C03C
01C078
03C020
03C000
07C000
0FC000
3FC000
7FC000
FFFFC0
FFFFC0
FFFFC0
1FC000
1FC000
1FC000
1FC000
1FC000
1FC000
1FC000
1FC000
1FC000
1FC000
1FC000
1FC000
1FC000
1FC000
1FC000
1FC000
1FC000
1FC000
1FC000
1FC000
1FC000
1FC000
1FC000
1FC000
0FC010
0FE038
0FE070
07FFF0
03FFE0
01FF80
001800
ENDCHAR
STARTCHAR 0166
ENCODING 358
SWIDTH 812 0
DWIDTH 52 0
BBX 49 50 1 0
BITMAP
FFFFFFFFFFFF80
FFFFFFFFFFFF80
FFFFFFFFFFFF80
FF801FFC01FF80
FC0007F8001F80
F80007F8000F80
F00007F8000780
F00007F8000380
E00007F8000380
E00007F8000380
E00007F8000380
E00007F8000180
E00007F8000180
000007F8000000
000007F8000000
000007F8000000
000007F8000000
000007F8000000
000007F8000000
000007F8000000
00FFFFFFFFC000
00FFFFFFFFC000
00FFFFFFFFC000
000007F8000000
000007F8000000
000007F8000000
000007F8000000
000007F8000000
000007F8000000
000007F8000000
000007F8000000
000007F8000000
000007F8000000
000007F8000000
000007F8000000
000007F8000000
000007F8000000
000007F8000000
000007F8000000
000007F8000000
000007F8000000
000007F8000000
000007F8000000
000007F8000000
00000FF8000000
00000FFC000000
00001FFE000000
0000FFFFC00000
0007FFFFF80000
0007FFFFF80000
ENDCHAR
STARTCHAR 0167
ENCODING 359
SWIDTH 375 0
DWIDTH 24 0
BBX 21 43 3 -1
BITMAP
00C000
00C000
01C000
01C000
03C000
07C000
0FC000
1FC000
7FC000
FFFFC0
FFFFC0
FFFFC0
0FC000
0FC000
0FC000
0FC000
0FC000
FFFFC0
FFFFC0
FFFFC0
0FC000
0FC000
0FC000
0FC000
0FC000
0FC000
0FC000
0FC000
0FC000
0FC000
0FC000
0FC000
0FC000
0FC000
0FC000
0FC000
0FC010
0FE038
0FF070
07FFF0
03FFE0
01FF80
001800
ENDCHAR
STARTCHAR 0168
ENCODING 360
SWIDTH 859 0
DWIDTH 55 0
BBX 51 63 2 -1
BITMAP
000007C00C0000
00001FF00C0000
00003FFE1C0000
00003FFFF80000
00007FFFF80000
000070FFF00000
0000601FE00000
0000E007C00000
00000000000000
00000000000000
00000000000000
00000000000000
FFFFFC007FFFE0
FFFFFC007FFFE0
1FFFC0000FFF00
07FF000003FC00
03FF000001F800
03FE000001F800
01FE000000F800
01FE000000F800
01FE000000F000
01FE000000F000
01FE000000F000
01FE000000F000
01FE000000F000
01FE000000F000
01FE000000F000
01FE000000F000
01FE000000F000
01FE000000F000
01FE000000F000
01FE000000F000
01FE000000F000
01FE000000F000
01FE000000F000
01FE000000F000
01FE000000F000
01FE000000F000
01FE000000F000
01FE000000F000
01FE000000F000
01FE000000F000
01FE000000F000
01FE000000F000
01FE000000F000
01FE000000F000
01FE000000F000
01FE000000F000
01FE000000F000
01FE000000E000
00FE000000E000
00FF000001E000
00FF000001E000
00FF800003C000
007F800007C000
007FC000078000
003FE0001F8000
001FF8007F0000
000FFFFFFE0000
0007FFFFFC0000
0001FFFFF00000
00007FFF800000
000000E0000000
ENDCHAR
STARTCHAR 0169
ENCODING 361
SWIDTH 671 0
DWIDTH 43 0
BBX 40 51 1 -1
BITMAP
000F801800
001FE01800
003FFC3800
007FFFF800
00FFFFF000
00E1FFE000
00C03FE000
00C00F8000
0000000000
0000000000
0000000000
0000000000
0000000000
0000000000
0000000000
0000000000
FFF001FFE0
FFF001FFE0
7FF000FFE0
0FF0001FE0
07F0000FE0
07F0000FE0
03F00007E0
03F00007E0
03F00007E0
03F00007E0
03F00007E0
03F00007E0
03F00007E0
03F00007E0
03F00007E0
03F00007E0
03F00007E0
03F00007E0
03F00007E0
03F0000FE0
03F0000FE0
03F0000FE0
03F0000FE0
03F0001FE0
03F8001FE0
03F8003FE0
03F8003FE0
03FC007FE0
01FC00F7E0
01FE01E7E0
00FFFFC3F0
00FFFF83FF
003FFF03FF
000FFC03FF
0000800200
ENDCHAR
STARTCHAR 016A
ENCODING 362
SWIDTH 859 0
DWIDTH 55 0
BBX 51 61 2 -1
BITMAP
00001FFFF00000
00001FFFF00000
00001FFFF00000
00000000000000
00000000000000
00000000000000
00000000000000
00000000000000
00000000000000
00000000000000
FFFFFC007FFFE0
FFFFFC007FFFE0
1FFFC0000FFF00
07FF000003FC00
03FF000001F800
03FE000001F800
01FE000000F800
01FE000000F800
01FE000000F000
01FE000000F000
01FE000000F000
01FE000000F000
01FE000000F000
01FE000000F000
01FE000000F000
01FE000000F000
01FE000000F000
01FE000000F000
01FE000000F000
01FE000000F000
01FE000000F000
01FE000000F000
01FE000000F000
01FE000000F000
01FE000000F000
01FE000000F000
01FE000000F000
01FE000000F000
01FE000000F000
01FE000000F000
01FE000000F000
01FE000000F000
01FE000000F000
01FE000000F000
01FE000000F000
01FE000000F000
01FE000000F000
01FE000000E000
00FE000000E000
00FF000001E000
00FF000001E000
00FF800003C000
007F800007C000
007FC000078000
003FE0001F8000
001FF8007F0000
000FFFFFFE0000
0007FFFFFC0000
0001FFFFF00000
00007FFF800000
000000E0000000
ENDCHAR
STARTCHAR 016B
ENCODING 363
SWIDTH 671 0
DWIDTH 43 0
BBX 40 50 1 -1
BITMAP
003FFFF000
003FFFF000
003FFFF000
0000000000
0000000000
0000000000
0000000000
0000000000
0000000000
0000000000
0000000000
0000000000
0000000000
0000000000
0000000000
FFF001FFE0
FFF001FFE0
7FF000FFE0
0FF0001FE0
07F0000FE0
07F0000FE0
03F00007E0
03F00007E0
03F00007E0
03F00007E0
03F00007E0
03F00007E0
03F00007E0
03F00007E0
03F00007E0
03F00007E0
03F00007E0
03F00007E0
03F00007E0
03F0000FE0
03F0000FE0
03F0000FE0
03F0000FE0
03F0001FE0
03F8001FE0
03F8003FE0
03F8003FE0
03FC007FE0
01FC00F7E0
01FE01E7E0
00FFFFC3F0
00FFFF83FF
003FFF03FF
000FFC03FF
0000800200
ENDCHAR
STARTCHAR 016C
ENCODING 364
SWIDTH 859 0
DWIDTH 55 0
BBX 51 64 2 -1
BITMAP
00001800300000
00001800700000
00001C00F00000
00001F03E00000
00000FFFE00000
000007FFC00000
000003FF800000
000000FE000000
00000000000000
00000000000000
00000000000000
00000000000000
00000000000000
FFFFFC007FFFE0
FFFFFC007FFFE0
1FFFC0000FFF00
07FF000003FC00
03FF000001F800
03FE000001F800
01FE000000F800
01FE000000F800
01FE000000F000
01FE000000F000
01FE000000F000
01FE000000F000
01FE000000F000
01FE000000F000
01FE000000F000
01FE000000F000
01FE000000F000
01FE000000F000
01FE000000F000
01FE000000F000
01FE000000F000
01FE000000F000
01FE000000F000
01FE000000F000
01FE000000F000
01FE000000F000
01FE000000F000
01FE000000F000
01FE000000F000
01FE000000F000
01FE000000F000
01FE000000F000
01FE000000F000
01FE000000F000
01FE000000F000
01FE000000F000
01FE000000F000
01FE000000E000
00FE000000E000
00FF000001E000
00FF000001E000
00FF800003C000
007F800007C000
007FC000078000
003FE0001F8000
001FF8007F0000
000FFFFFFE0000
0007FFFFFC0000
0001FFFFF00000
00007FFF800000
000000E0000000
ENDCHAR
STARTCHAR 016D
ENCODING 365
SWIDTH 671 0
DWIDTH 43 0
BBX 40 51 1 -1
BITMAP
0038007000
0038007000
001C00E000
001F03E000
000FFFC000
0007FF8000
0003FF0000
0000FC0000
0000000000
0000000000
0000000000
0000000000
0000000000
0000000000
0000000000
0000000000
FFF001FFE0
FFF001FFE0
7FF000FFE0
0FF0001FE0
07F0000FE0
07F0000FE0
03F00007E0
03F00007E0
03F00007E0
03F00007E0
03F00007E0
03F00007E0
03F00007E0
03F00007E0
03F00007E0
03F00007E0
03F00007E0
03F00007E0
03F00007E0
03F0000FE0
03F0000FE0
03F0000FE0
03F0000FE0
03F0001FE0
03F8001FE0
03F8003FE0
03F8003FE0
03FC007FE0
01FC00F7E0
01FE01E7E0
00FFFFC3F0
00FFFF83FF
003FFF03FF
000FFC03FF
0000800200
ENDCHAR
STARTCHAR 016E
ENCODING 366
SWIDTH 859 0
DWIDTH 55 0
BBX 51 63 2 -1
BITMAP
0000007C000000
000000FE000000
000001C6000000
00000186000000
00000187000000
000001C6000000
000000FE000000
0000007C000000
00000000000000
00000000000000
00000000000000
00000000000000
FFFFFC007FFFE0
FFFFFC007FFFE0
1FFFC0000FFF00
07FF000003FC00
03FF000001F800
03FE000001F800
01FE000000F800
01FE000000F800
01FE000000F000
01FE000000F000
01FE000000F000
01FE000000F000
01FE000000F000
01FE000000F000
01FE000000F000
01FE000000F000
01FE000000F000
01FE000000F000
01FE000000F000
01FE000000F000
01FE000000F000
01FE000000F000
01FE000000F000
01FE000000F000
01FE000000F000
01FE000000F000
01FE000000F000
01FE000000F000
01FE000000F000
01FE000000F000
01FE000000F000
01FE000000F000
01FE000000F000
01FE000000F000
01FE000000F000
01FE000000F000
01FE000000F000
01FE000000E000
00FE000000E000
00FF000001E000
00FF000001E000
00FF800003C000
007F800007C000
007FC000078000
003FE0001F8000
001FF8007F0000
000FFFFFFE0000
0007FFFFFC0000
0001FFFFF00000
00007FFF800000
000000E0000000
ENDCHAR
STARTCHAR 016F
ENCODING 367
SWIDTH 671 0
DWIDTH 43 0
BBX 40 55 1 -1
BITMAP
00007C0000
0000FF0000
0001FF0000
0003C78000
0003838000
0003838000
0003838000
0003838000
0001C78000
0001FF0000
0000FE0000
0000380000
0000000000
0000000000
0000000000
0000000000
0000000000
0000000000
0000000000
0000000000
FFF001FFE0
FFF001FFE0
7FF000FFE0
0FF0001FE0
07F0000FE0
07F0000FE0
03F00007E0
03F00007E0
03F00007E0
03F00007E0
03F00007E0
03F00007E0
03F00007E0
03F00007E0
03F00007E0
03F00007E0
03F00007E0
03F00007E0
03F00007E0
03F0000FE0
03F0000FE0
03F0000FE0
03F0000FE0
03F0001FE0
03F8001FE0
03F8003FE0
03F8003FE0
03FC007FE0
01FC00F7E0
01FE01E7E0
00FFFFC3F0
00FFFF83FF
003FFF03FF
000FFC03FF
0000800200
ENDCHAR
ENDFONT
